<mxfile host="app.diagrams.net" modified="2023-03-24T03:37:09.029Z" agent="5.0 (Windows NT 10.0; Win64; x64) AppleWebKit/537.36 (KHTML, like Gecko) Chrome/111.0.0.0 Safari/537.36" etag="bRb6t67nT8btF0lf5APd" version="20.8.18" type="github">
  <diagram name="페이지-1" id="aakLn67ulSrQ4rMYl33v">
    <mxGraphModel dx="1259" dy="715" grid="1" gridSize="10" guides="1" tooltips="1" connect="1" arrows="1" fold="1" page="1" pageScale="1" pageWidth="1654" pageHeight="2336" math="0" shadow="0">
      <root>
        <mxCell id="0" />
        <mxCell id="1" parent="0" />
        <mxCell id="jjM4XxSEG5LytGMmibBt-12" value="" style="whiteSpace=wrap;html=1;aspect=fixed;" vertex="1" parent="1">
          <mxGeometry x="920" y="43" width="260" height="260" as="geometry" />
        </mxCell>
        <mxCell id="jjM4XxSEG5LytGMmibBt-8" value="" style="shape=image;verticalLabelPosition=bottom;labelBackgroundColor=default;verticalAlign=top;imageAspect=0;image=data:image/png,iVBORw0KGgoAAAANSUhEUgAAAIcAAACECAYAAAC6czikAAAAAXNSR0IArs4c6QAAAARnQU1BAACxjwv8YQUAAAAJcEhZcwAADsMAAA7DAcdvqGQAABDbSURBVHhe7d3Li21HFQZw/xPHjpwIIggOnTkUB4IIPhEnigMdmIlIcCQS0IGIxJFcUeMjEgghGLgKajA4MKAOggQfEB8EAop65HfuXedWV9c+Zz9qv/rUB4vu273P3lWrvvrWqlW1+77pcMfxxr9fP7z8118d7r/y48OPfvuNwzd/+fjhyRe/ePjK/U8dHn/+o0d77Nn3HT7/7HtP9oXnPnD63RP3P3P8zL2Xnjj85OVvHX7+yjOHP/3zlcN///efh0+4u7hT5PjjP353+PWrLxxJYPA/+cN3HT743bccPvS9tx7tI99/2+FjT7398PGn3nHDPvGDd96y/Bqf83n3cU+GSF//xWNH4v3htd8cXnvjzw9bcjewa3KEKnz7pS8fZ/lnn3nPaRBj0BFkLgsSIYx/Iwulee73945E2bu67I4cCPHiq88fCfHpp999nMGhBnOT4ZKlZGHCE6JQlT1iF+QwA4UMhKAOIfNrk+GSaR8V8/0Donzn8Lc3/vKwV9vH5skhAfzqzz53yhm2Togu0+4IP5Jb4XDr2CQ5Xv/X349yLGxE/pA7e6+GJJEXSZqFnK3mJpsiByeRXkvLPatEX0N6/bTimTMvGZscb4IcGi7J5DDSe9dJkRslkVhb6citaoJvKdSY+65ODgUljd/CamNtQxKhVJ3GqqwG+Bfx3HMoViOHzkvM7lpOMdUicbUqU9CbCtXdWFYPJdwq5JCpayxilBzU7FHNxPJdgj4GQgklci9fh4aWRckh/tmfwOSmFv3MBKIiYxJWqiFUxX0k+0OwGDlkzHKLphbDLfKxIXkDlZBr+LzPMqvAIViEHMKIfYdgcbPhZnBNLMvePrmDwmH4Gyl8HlmGVGhnJ4diFua3MFLHEMRgn8sfVJURw7XURpkg/m08+mJWcsgvNAhrSx1tNs5MNHlIiSDyOsmna3yVzLrO5xCEovTFLOTQQAdqYi+hWX2LPIRKpOB3ExIRnDMJONLgZ12kKqE6OcTDRoxlLPIQYQPURfwMCZQKTNKAlYoxSa+/hKrkQAwMbcRYzpCBihj8CCd+nquDRNTvEMeqsQ+qkQMxZNKYmXeg2fxm0ENJSvUM4xPbFCZvH1QjR5RpSw1vtowhhs27LlipuMY49TlPUoUc9176WlOMlY0iCOnnSu1CjeuMlTG7hMnkIGGNGOuacEIN+px+l5dE3nGpmDaJHLJeDWOlRjeb3/h+yKaajTyT2ecufWY0ObBUoxox1jO+VxIfsrUv16AyLK2DlDCKHLFkJU+lRjeb32JSDj2obEmr/G7svvTTDz/8aRmjyOGQTiPGeoYYQsOYw0AKY0oOMX5poSzHYHJgamwFN1verDaE8ykHkqNaiiDnCDaIHCRJWbblGeuYwby0I9sH8kUTnPrYHO3CIHLEpk6p4c3mNTPd8nPskcEciMbs0nYtaXuTo4WTdYxKG0Qz/Fx+MBRp3tF1AKgXOWJ1It7ljW82n4VK991FHQL3pEYmfNeKpxc51OTdKG98s3ks1OKc5E+FvEVii4AKYyVcJIfGaWxLQpcxg8Uc4qkZRnLIXaJWZZFRwkVyOIPYktD5Tcg2UFPeUxmKKKVTkFLecZYcPuDUeFON+SxCiGrl0n/kJeod2lCqd5wlB9VoucY8ZkD4Vt1iTKWzBuI9WupROiDUSQ7S1jbW6pvwwZBCXjFXwtkXVIupYeU5Tic52jmNehahg1JIAi0d50w2h0A40zbpQ07UIjlchNlNNaZZJJl86Ril5eNWSBF4+uUnjyIgvORJaZEcmN1yjWFmIiEDR/MdU6dQbOqqQG4B8p1oc15sK5LDIVUdLTmh2SNLySA/EzIcZ+DwrSlEF6yQohim7SlukcOOnbeiriWk6GduBj1CAqelFqrg9+J1kEHIWKo+URNUTdjT1/x9llvkcHSME0qO3IvlAx2DHAMrvjK/M2uYCaFSyDhJSJDBO6VtSS9BDxLsRRX6Qn8jN0qT0hvk0GkXclrJ6Vs1JDD4Ouh7PzPgMdAqgQbY0tEAW9+HUUpmBpn5jIP44q6RoAuSZf7L36O9QQ5OMaNy52/NQhGogE6FvFM9ybTBbuiP+GtL/GryBG6Qw8xyUWlAtmARIjA8XQnk6/OGYUCImGjpW/s3yOEAyNZCCjYjhMYLEQjRlKEu+DPK6MJv4EQOsXZr50MjDkoM5QcN5zE2R/I5viYMJmDc50SOWO9ugRyhFBLJRop+iCR6DHzOJEQOZfRb5NhCvhGJpnyikWIY0kRyKJAhVqnsFjlItxlbGrQlLJahSDp2BlwrqMalVxsvIcZf7hEJ/okcax7qEe+oxR4rjFsA1eg6JNwX8Wc0RI84dHQixxr1DWSMDLktR8fDKnNqGKY8iMFiA+5IDjdemhyIIQGeKofXDrOc6k6FcB7KEafCjuTAlCWT0Ug8p0rhtSMSyXyrfQyEJmOCILE7eyRH/K2o0kDWtshrpmTXDQ/AhxS/RgLfSQ71hKVWKh7eFGM6EMIiwqZZDRgT44MHEaaO5Ej/64U5DTEcS2uYjnitoNZEizfgbpAj4hZJKQ1oLUMMCtUwHRYQiGHcaqFIDkvIuV+Sdm8HSVodow4M3vvvvfnGDupUnCXH3AWw9BBJw3jES+3pHkgNFMlhu3bO1xBaOKkH4SRWFLXrQ53kmKt07p4e2MLJdFB4RyoQw3jVrigvrhweVHoHs2E4YmNsDtWARckRqtH2TKZD4qnYJaTID2vmGoE4z7MIOTA8PXLWMA5K48aGGbi5CohRIWWz5xzu11Yo0yABNZuDGDXrGjmQI54TVddZ6hzuZRt5Dvm7FiAGRedLg+YY35zv3MauLDvtrcxBjrmSpmuBSRV/GoE/H2yj9/8vP8cAOTzH2MWzjuXz2i9Oe0hbvo4Dv5msBokvEcS/50Zsvhq7mNjVN95IoBymYTiouIkaxOBLOcfcuVsqEMgRSe+RHGJMNGiqIVmriA5HhPd0HCxfa+6fdAE5YsXqmRYpcDrsgzHpII8192kHeYZBKEkVg5lkkvolgByeF+TwbziSg4zUIgdpakvY/jBLc8XgQzN5qQJinCGOVdENcmigX6aDPMbi5h7WcBmqkkiQ5nt8yJb0oQSUOCAlBbtBDqihHDplc2jLfwNrK0AMPstXiYiydBkgFiTUK2occCJHjZeog3lLyeFeEX/GM/e3CXruP8eZA1Qi6lzalJ5kP5GjxiFjD1DibeQow0DYb0KCnBgGZo2qsvAlFYj2xNtucCIHxqRJ0Rhr5OiGQaDOpfDtZxR3DcS4I4f6VFq8PJEj9vOnhJZGjjIs7eNPHOQ+o9Z8tlaeFudEYuxSnMhhQMWeqeRoOccj8INkrxRGmEGZ41TXEGiHtlGPPN85kQOmltGbcjyC2B3H+rp85fdrLvvT+paveX3qBjnIXykm9jUMtG6P8us1QkLpxS1+LIURZgIK4Wsv+SOkGDdhL5/UN8jhl1OUI6TzWiukZmIctct9E0ZJqOvaEyhdpWiTv8+R4wY5sF7O0MX4PuZB10YOGX46C0t+YdTEOY0thN305XntLr2pf4McILRMUQ8PvJazo0gRdYtLPnONWtJW8rHYLukKKXCLHDqcFkWGGtVZ4nDKmqCwStzyq5h9XRayjRhLF7i6EKe+tA+pu3Z/b5EDQiLzjvY1D96KI2rCxEGK6OOlCWSiuGbpvZJz0Id0q0Q/ulZMRXLIGYJZY8xMKcWwvYLkpkrRR1VNLjWMuV4lGAu1jFC7UPmuUFckh1kvox6bmIZU7V09TBI5BTL0UQoW10rst7Y7rT0puX1/TtWK5ABxaUpo0YA9rlrMIn03OfSjr1Iwk8lSdosJuYmapgvRp3MJcic53GxKYqoR8ebU1sFBwqCk0eCa+ZEvlPqWm+t8hr+2OiHyjVXfp2c3SugkB5CcKbkHp6VbwFsB4itCyQcoRBSu2NDJEKGXWpybhWtCwqmP0TdfEflSIe4sOWS2krChDgvjOM7fSu7BSYo/8qExCpGaz/i8zH9rSWeOPH/soxpwlhwg/qZyNNQ4cI0YbBaTeEU9ZIi26MtYQoS5j0mzpSVqF4R27c3b30flLpIDUkkaYz67xOsKFMpzzIoIFxwxJlzk5vMRepB9D+dkbQCmisH4o+9fdOxFjqkldY7VqJoEQQTKQNKRgbz7I2qeU0MdwqLtvnrOmlvsQ4DA+RsFfMJP0oU+6EUOA0GapxLETB7zBpfnMwkUKXfuRPFGUoUIrAYRUuNI/dVmjt4LKQCJc8VgSD6kONmLHEBGp77bYgDdQ+MvxTyDQRWc1I4E0md10KDVUobU3M+9PcMMQ8S+s2wL4FMTpzRO+iXUDkFvcoBYNUU9wtzDrKcinM+QwWAggoGJGgtVcH1tIqTm/ky5W6HI8ptS7Qn8x28lxeC7MTWYQeTAzHjHIW/AUNNgM9SAROLIQhHmJIN7I0OoEEKS2z0kmSVQVz7sGhdKMuYP9w0iB2BoTUmfmwhhnhGJqmUo+aVce1OIFJTAZD2Xc+mv5eyYfg4mB2ChWVdqTG4xKKEMqTqUrq9l7u85nm3mmFnK40LG3s+4ar++RB9L/Wd+r99j+zuKHKBxlwhCss1S2T7ZtpQ1W6MoVZsg4Szt4hQ7oyqie1ppnAOlkBPpH9KXfBDGF/w/pXo7mhxRWu9irsbrSFe2bwafi5N9LZwQzpKRIyBC7DlkBPTBpBIa9O8SKcJcN7UyPZocYABiVZE2zGAhxiX4PIIMVZAghBkkobU03nv+kIJfECLUmZlEff3keuo8FZPIAWQrbzjW9q0PYHef2eD+rvMVIZHPs/s+Z4tAZmYVSEn5gvLpH/Kzki/Omc9IUmv4ZTI5wKzFVgOHKBrXF5eKa0EKDvNuBULsUSEMVpT75V+SegRXm9A//vN1iELk5rP8VGtJXoUcIPHTOB0k80NgT6TUWU7ynodzj6Q2HKsYR3LFYfJptnFyl/m961yfmnaaral5FkkfaiZIep94nomiDQZNCNUvs5uffB1LhNzcxzOGFrrOoRo5gGMNNOcMQRc5GOfKK6J0HjOMY5ExjHO6LL0uNfcpWTxnqKX3SNuXtqXUx6nmvp5fkxhQlRwQm2J9YQ1+KazM5dS7YHxDMeY4cVedHBBhoA/So/LNhhlVohhzEANmIQcgx6XEUQ4xZinb7EHeIpfpOwnHYDZyQCzVShAfySH2lzrfrNsoLWLMvQ0wKzkACSzbZPSx2lDWJodNMYYbv8nr+pwBnYrZyQGkz5IU43WuqcVwM5H4zTJ+qTrPIuQAHVLEaoox3OQXQjDVXRKLkSMgtKhb6HDJEc0eWaiFIt4a2wSLkwMkUnHWsalI2UweKuvo5FJhJMcq5AiQSVk3J5QcdI1msiCG8vvaxxZXJQeQS/skVOSaQw1SmCTqPvZptoDVyREwS+xSirHXtJoJUkg4bV6uFUJK2Aw5AhLW+J8R77KSIIWlva82KucuaI3B5sgRQBJJKweGE0tO3pulSmFfacuHlTZLjoACmnMXYjEl2WPICZXwfbydv2VSBDZPjgBnWt1Y84eaIMpWFUW7kDmSTEk3NdxSTnEJuyFHgHMlryQ5P2+5NlGQFRm0g0JYjiLEEvsgc2B35MhhY4+imJmIEifGQllqq4t7MfdFSM/xPCaRtuJAiD2EjUvYPTlymKXIYgUQZziRxsDGIBrQyF9SAqUDHxYhLD4nRFAF95UwUzBkuIu4c+TIgSySWgrjxJSjA44QUBp1FUb+VWqZQY+fM7ugrkcAn3cfYW2voaI/Dof/AxDdiP7OYNg6AAAAAElFTkSuQmCC;" vertex="1" parent="1">
          <mxGeometry x="950" y="113" width="35" height="35" as="geometry" />
        </mxCell>
        <mxCell id="jjM4XxSEG5LytGMmibBt-10" value="" style="shape=image;verticalLabelPosition=bottom;labelBackgroundColor=default;verticalAlign=top;imageAspect=0;image=data:image/png,iVBORw0KGgoAAAANSUhEUgAAAJ0AAACwCAYAAAAVFGw+AAAAAXNSR0IArs4c6QAAAARnQU1BAACxjwv8YQUAAAAJcEhZcwAADsMAAA7DAcdvqGQAAB2USURBVHhe7Z3N6zXJVccf8X9wNeAsHmQeEiQoOCjZClmIbgYENyqBLLKJm4iCi4AQN/I8488xoEyUIQwKISZk1ASDoiAzQRdRJBPDIAaJghGDAUHxZa7ne6pP96nTp6qruqv69n058OH3u12nXrr62/XWdfs+Ot2twt5VwOTv3WrsLroq80T2f8Pfu5XaXXSV9s//+a+n3337j5i/+/Y3hqN3q7G76BYttG7/9l//cfqVN3/z9OjX3jvx8vedPvKlj7MQJ5Pu9971puwuugJDq/Zdn/iR06NnJLRPvHh69Bs/PED/49iv/9Dp5b/81OAtdhddyu6im9k0Rvurb3319AOv/xS3aBAWhPbdr7xfiY5gEUJ8L5y+57d+9PTG3//ZEPtuKbuLbrRJbOguf/aNnz89evr86dHDD44CQ2uXgwVIcX7i9z9sxnv3Vk/bXXTK/vv0P6dnX/7k6dEr75vERkJiQUnLpsSnj4HQCpLwEJ/GfL/4p7/KY8G7xXajopu3POgW0T0+engyisoTFtDh4qP/yv9IC39f/cpnKAdpSSXv2239bl50X/mXr3N3yF0ptVIimkg8BuujseHc8tGY8Pt/58dPf/wPbw253nZ3e7Pd67f/9zu83MFiQ3dohFWDiC0Fd7vIg/J66XMfPb3znX8aSnGbdpOiw/IGL3VgrQ0tEQljSTg5dMvmpkPjwnHWO4gP4z2MIYNJy3cbTzduSnTo3njcBrHRxd8iNM2i6DyGMmAN8NbsJkSH5Qt0a7LeViqOnI+kUZKOZhbv4TGvBf75P/71UNrrt6sWHZYr0I1h4dYft82XQ0rQwkmRi6c/8/9YnqEbAmuD8SM1sivsca9LdOoCYZmCL+qwbJEiJZAcIp4lcnH0MfzPYz6UlbpdPOOdxnvXZ1fX0qGbwvIEui1vCcSihbGEjqPT0Fi/Jd8RPdkg8V3zI7ULFx1mfaF5wzLET37+58ISyPCctCeeiCxevHLC+h7Ge1hLjO2y1/kuvqXDelsYt4XZoH8Bt+OJSvD8LTW+AvvjnEh8H/zCx+bjvQu1CxTddJdjuYG7JBoHTRc0rLu1RkTj4flranwtYxyIj8Aa46WP9y5EdBDaJDZsOXr/7/1MmJVWdqVaAB4pf3vcotMoiZPz944xOFc65+/97R9zxnuX0+VekOjClqOf/vwvJR9d6YtVypZ4JZTGs36amT+WWJ4+xzfeJW6ZvwjRoTvhreLJ9baAd8GW2BKvhNJ41k/j+TPD+h6eIWNsO5lu9Y7XAh5MdJiJgqmiPv3OF0PFPzyeXQwP7+KkjoOS+BYbx+LFAZ6fPSbYuJqZH9b3SIDzLfPHtIOJbhIblgl43EZ3sqxfLV2MWwP1Ma7tAaorjPfiR2rHe6RxuO4V47YP/+Evh65Udu92mpFuQbc2HqX+1q+GEF89ysN2+aHLnW+ZP44dRnQYt/GWI1QeP7o6ntA0WjgpSnx1mrVk08MuFuIX/uTlw22ZP4Tooi1HqW9dKWYVvJHW6Wkk7aX0a/LXaabiheNo+egGphbwSFuoziC6eNz2gdc/FJZA0DU4lacpqWzg+XnHrL8+dhR0mXNljMNRl6E+wzH6n7rc97z60iG2UJ2lpYu2ig/jtlyFAqlUjecHPD/vmPXXx46CLnOujEvhDHqRh8dn3zK/q+gwbsOWI3mkk+tCBV3hi5VaQIs0lqgpq/juUS60eFznqH/qdrH2eY7x3m6iw7gN03k08/rRlVS2rnTvAsiF0aSOAxvf4vktxZXwJb81pNKrzUv8c+mNn2kMDRFiLXSyeJ20h3US3bQ2hGk7bzmC2IZxm5y4rhxdGVHFKMTf+nroeB7WT8fVxzUlPmvx0luTV3EcuhbsgwaArg3WRPFMe7J+63vdWjp0pdFWcSW4FLpSUsdL0fG9NGy4h42TIxdv6fhSmA63x22Y938Rw/oetsz37nIbiA53hAB7dxq3YQlkmEVtRVdyC7x0vc8euTBBpyH/e1j/JcQ/Fc+GazyfWVyIjyYb8y3z6HJxjbd3vRtFFxcA4zbeKo4NlWrafi5mFXomjlCGKtArUYOBMsfjPdjZRRds/Iqf6kpDJd9FB45QhlKiOoP46JpivDffMr/eVohuUjr6/vHtlBCbcxJ7oSvLQ/uk/HV64mOPaWx8wfMFOT8bVopOYy1eumD0QZdL4pu/dXSdrW7pprdTUuvGk4Tzt2re8Vuiax0MXS5mu1u3zC+Ibt5/j2+nxFf8WGxOAXdmdmfeKD3rQdLm9GmWi2fl01uo6qy4pUOzim8k8aMratV0IXriVYDg+XvU+qZI+dr/rxk5T+7ZSAt4dj5toSqbZCyKDs1o2CpOTSsvgaQrfy0l6dTm1aJcOaQ8Obx4KWw8/bkUm2YtJeno/MZHatTyYbxXur6nRDdfg8F0mR9dqf1tS4VaQ6s0dYXoNO1xQce1LPmsDQOStsbz86jxXcLLeyl9icN+eniFBok+v/b2Zwf1wPyWbxAdAmVxV20VR+uGhCvHbmOhnLCe6ArR+dvjGh3f8/fCt6DT1ni+KdDCCF54CWvzBjpuHJ90Qq0e1mrj8d6kLVjUvaIr5S1HmCTgmZwITj2gF+YZ+viF89G+mjBlH7p3gP8Bjg9lYz+Vhk1P8sih/ZfiWF9hydcLz6HjcnxcD66DFwJSH1QPa9IHUfrqs/XLEfmjjFQ2PFKLv6UWLBIdC46UOkvEIIWqLdgig8g5XYgJZaHCo9XFc1w8XvvM3/4BL9c8e+s1Li8/ARn8WISUTigXpTWkq8sbwky+hhrfXUC9YOxEA3esHGALOuoAdYE6Qd3wigImeeQXlRtxdVoGfa6C57cEWl0dn//SDYFrZ23sXjE75TtGXawUkrhk0IqQHuVPY0hMyVGh3p1iDQNYfOOdX1gNAfIYNE63tsw1vl2BaOicsHKw9EWbcUfPID7EXeqCdb1sOWcvHYCyxLtXVEuHAO5WnQSBl6Dg+dcS0gkVPH/YXG7YEcstNlo+aTWd/HrTpH4gOGq94/GRHZzH4yUYbkBu9Ts/JdLnmDxXug72+xmj6DB54FbCRCpKOIP2T6XBdyMqeFbAsnWfySZ/fBeAv+wz3PE6v0MjZcVfKrttJUoN5+9dzy3o62evYZIWorPhS+g4qXRYdNQMozudrFZwYtOdj9aSu1wMtlV+FwFdi2mHx7q64C1mDYWnr5+9hh7sUyu62kxKsGlyunRHQxyTrRUcDHHjNUce51AeXt6aXBmBPo81eGmCmS91jVjpn2zehZYaL31Rem4+DbHnJOCGXxSdF3EJrxAaL44Grdyb3/zaUJI+xrPcTmMc75yA57sEx6P6WPtc09obX/+LMLE41xBjTfdaQk0F64si8dC99jbMzsexoynTsUD5Xmy2ZRxDjHBd0+dtr0cqLIWNI3DYIUVHTT+WA/aw6BwPKL5Qjy+6a1tbjB9l8iK6f87R9ciEpbBxdLyi7jV3R3SBCoUlkv4WxkWoALxQUJchV3mltEiDoZsQK/ktjce0WEJpfG1T5yzHOexZkejiBASdECfm+NTC6ewmOkwswuSCd83Qudrz0Odnw3oS5bmT6KI8TVn0Z00uTorCli7OSJgl5vjUIoXas6WTv/wa2YfH0TivxzmWEOV5baIra+n26165ULuJLjYMsPl55Tij3e+8s+wkut0oEZ1VqsZNdCVjmmcRXehmxxktBtkbJxa6nlIs+XFanUXn5WvR51VKMo1S0enEejEW7oyig/F5m40Os4ozSHjOZzU7i87m3+KcojS2TCS6cabuVRs/IMcCKspDLR5av1zlywUTPJ/VnFl0zdm6TucVVJ+ADSvi7KILrd6zL39y001n62FVXYDOonPzTLD2HKI6aLk4HCXshBdzdtFNz2lxsbEXT59Ts/MsgPPYSXT6vErQ5fSwPmO8lt2rJGozq+YA3au2eEbb8DwL4DwuWHTWjz8fafYKOM3DiC60dtipzPvwTFeUq4vU8Rw6ThRvJ9FpZmUoRMdLprH3REIKopn5Haylg2HbN18kmlQUnUNLOotul3Mgxnzuois3bC2SGW22/K3ZWXQ9z4nTru1evYSac0jRhUdl/GMqspRSSWk9znw6i07nDZbKt5myli7f75cUUvtqPN+jtnRi/JNRwzNa75wEOR/9v8Xz12H8/04tnYcuSypM+9hjQhSvZfcaJZw4bsMsHH5w0cF4y3enXcczdm7pesLXd0tLZ0kJSx+3YRYOvwDRYRcvz2j3uHBXJDqmx0SiRFxZLkB0MK6fPVq7CxfdTA9lTyTaFkwKMSvMEHYZogtreDyjpTrinSnOuQn6/FKM5z/4juwsOlsujfUVany7fUciR65w/Lm56N7lb/m3tWlXCn+XNLHd3Z6jPS7ocPl/5OCi8/yA58vQ9d1ddIt0EB2+btjq21SehRntk8XdKKvYWXRLWHFptI+OE1GzTucmsILFtDp0rxj0j9+okl3qjU1mtHYpxT3HGg4mus3UiK6mIr04JXD8DqKT14fhexDBpu6xlaElDW8pDd+eD+O8/EW15+/RW3RensArr+D5l7JadMArjOD5l8Dxe4kOW9CfPt88bW0YO/KMFgybP23daLw6sJxLdGBtmXNUr9N5iQBdqCUW/XuJDmnjew806MfO4F7GM1o6B9kcMDs/Q6oex2OdRafz1PmO+ZvwFDaeRod3WacrQRdoLIyE92zpIDpUNE3bcX5tDV126La9GS2YnWsJ1GruPabT1yWHF3eRmxOd5DEIsMVPDKWMf2bUbA6YnWsJO7d0QF+XHF7cRWq711ZkC76H6ABVOo6vfcNn3kKLx+/Co0qO8iWy5285g+i6UiI6XUEaN8EWdBWdqmR0tQ9P+AIEm74bsd1COhA05514XJarz/H4lYhuPJ+1ovMSbcZOohuXNGh81zo/bfzC8GE2G50nkavPMeyKWjo+n5oxXa6CPMTfxllMY0/RycSi24w2rERP7/tdcZHPKDp9DeW62WMaG9+lRnRCSWa5sBzs31N0JDJbrvF/avHGl0h3eGqBisbEIrd259bXAVo6qTON51fEGtH1YjyRHVo6W2ksBOoC8Xea0bYa302G85Ihi85fcI/vKDrknyrbEhJ3Mf5ddAa6EPiea58ZbTAICOeYGuPNPu8kOuQl6DKUUhy/diKBSPazkDqew42z05guCeX/0uc+OsQk46623awWgpZntG7+Cq6XnUTXi5kezrGJc5Ezi467Wjpv/N5WsPYDPJ7ROi2dEF2ozqKbicKA8BK8uC7n2MS5yLlbOvGhGa2tnG0mrWX4y/VLF2Cxm+38GGxJMFpYOby4Fvaj61vcvXqJdOHsohuAGGi2ieWOXobKF+F5s1qu9wvsXkUzHoUTiXTB3EQL/DyfkYOIjkUA4VFL03O7O84V9eyJjjmw6Iqup2Xt7LU6oxqO0tKRLwuBRPeeV1/qut1dXrI95q273M6i63otPdaIbpW6aziM6BRUJlyoXha9ZJsEF9Xv1Ylu40RiqwBtXP58RNEBqotpRtvSQleLllRa1j1buugcCbmmW65rllaz1xaFHNM4qugATSymCmu1djfZWOdnFF13Wj2REMFsEd4liI7LR8Jb+0O/JYYLEu06vosuRgtN/pfPq+kpumG8ZNH5e+EC+6AVojK2n9FOFr1k+4yi8+oghRffZeuSSReO3L0SXMF0wfBd2jCjRTfb/qkFz2ipLs4tOu94iiIBtupem3L07lX+0oA//vXt1vZumNHSwPuSROcdjygRHRIS3EQq0em5aZ5JdLZcQs4HgvjIlz4+5NLe0JKiPnqKzp6jJhcmRPXhhM+oER0i6AwsOuHU8SJ6ii4xpgO6DF64BX68xEF1hNfCTtZ2Vvs33/oGiyRYm7RLRZfD1kcpVd3rLLIqgBeusb45/z1E55VBl02zFM4TC5rRTr+x3358FyYt7cRsRefhnivh+dZw86LT5dDHNLkwMIY/POFX/0/WSiQiYqTXp6XzsOcpeL41VItOZy7HxsRMmCbl58brJTqM5xzRAbcctdDEApsz8WMnwdq3eK1Miw5ll2uzVA/aL+dr/TSFosvPcIRZ4o5PETuLzpZ7C2jtMKOdtru36xJbmhVdTX2U+qWoaumWmCXu+BTRuXvVedkyb4XT7TyjbWFXI7pSxsydMKan6FQlRxWh89/AmB5NLOIZ7bGMX3cB0ZmbcBdadq/N2El0faF8nj6nZrTHsgsQnRPRIdVyeMcsUdzOotN5jXkulEnj+Wrgg/U79qULi3W2o9kouuEm1OfH5TbntIZkenuKzh73wtmn85jO5sd5LpRJY301M1/KD89opxntMUy3dLbMXG7n3IQSH5BMj65vE9GVFmQJTuPg3aucq8X6jJ9pRvuB1z9EpTjOTFa3dF7ZNTqsCWWi85tgzVJ4DefoXnNEFebgxdGwHwkPr/2f7LwCXGrpelLVvXoJCCWVX8qliQ548YAOx1IK9skFO4DoMsONnmwe07mJOn6anA+HnaF7LSn3dijvp893fcl2qdmJRI6lukG4xfMbKRGdl6iHTjh3XH922Ul0uow1RGVV2DAbL4RT/tTiffXf5SXb53lUprtXXWYP7zyA5+sxi1fa0tmIHqmM7HH92aWj6HT+uow1RGVV2HAdB4zLKHSh8f80o92/q90qOs8vxSxuyyUTwWai8fxn9BId0i4Yw+iy5MK9MI1OR/zHz3TB8bNOPV9JlrMtolsKt1j/bt0ryIWlYN+eoisYwwBd9h6Ebva95mej9utqPdF55RR03ZTgpSFUt3ReIoL2y+HF1fQUnZcfKC2bUOOrkXyki8WrJKZzPYPoSPy6bLqs+rjghS+h4zNlomt7N3hxNb3HdB4l5RJKz8Mi8UaklYm+wL2PpUQHdJn1cS9sCR13pMeYbjNUqF6ic/NrxGJlJ0FXq16yzdZ3cqFFhzLospeW38bReP4j1KgUj+ls5Fwm3rFiXnnf6YNf+NhQiu3G36hCq0KkyptC/EviWd8auHwkgukl2327WjwPHlvaivPI+dowQfuwX4novIRAlJATZo+V8yJv+95uobXAmpjcPH5+afQ5LsW3vqVwfAiAbja8kizeddyyxQtCxlINunTkyePKivPI+dowQfuw39budUzICROiDJ1wF6qU+EsuayxU8rO3XuO7qyr/hlTlS+Vs/R3XyYKA+RcaKR/k55VNrlW3+qoRnS5MSaFq/QX2e3iysYsNFTy+fisznrNl1Hj+LUilz8eozvELipO1a+1QH7mudQkpt4fn79JyIuEVROPFScFCiQbXJRUPHxkLBX98V2GplastWwn6vAXPzzL6Ur3H37NYK7w4Hm5kaeX2JKqHvUTn+RdBd2T925GC8F57+7N8gkt39abyJbDnL3i+HuxLrT2eWkznr2+qeuPfn6Ub2cuvN1Ed1IqupuJyjAVwwiKoW0SrV/s+uPDL0viBXwhuXVeyFTlHi+frMQ4LHh6zYMIbouoNEwf8GAsEFyYO+9SHd+5gVUvnJmR8tF8uzMP6cSVRhaHil36JGuLELt0gOJ3GlOZadBlbpWmx6Y6f0WIT6B7xZZ+S7e+oK37PHdbj8EpZpJNo9fV5CZ5fKV4642fSlN3eNYgu/JwQDzp5EdFPcExIhVs/Lwzo+BrPl4WHinv6HL8+C4vH6D4BWjVcDC4rxEZ+4Y720llHeTm3odN180IdoCGgmxD1gPOGsFAHADN1HOOfgUJdUBddMmnQeWk83xK8+OEzlYXKZBuPsaWDjb9TOghPEvMSzKF91yPrSlRwDIYFVCyVD2GA86OKtmVYQvKxx+xnj1yYoNOQ/z2svz02/oWYIEJuBWmsxvXwZLrhBrGNvkMaGpu+PqaP62MaHU/7ecdZQ3Qj4OYINk1yItHBsF7G3wgfxkjjhTcJ55DCWDzfZcrzrsmv1O/ItCp7i3qQRoA/U8OFljk1Np+JTgxjifDrffiRjTrRATkRjefXktr8Sv1qWJvemnityt4kHbSuw3KVnThYS4guNIUY5+F1CdxUollfIT4NCpTDi3MkvDJ7eHGXsPH1Zzl2BNzyQB8kuPms21/ySbZ02pAQL7zi1fPDskZNt1taeSV+JT6WGt8SdBmW0q7J26YreL7nQ2+koOtPmsASTc1jzCLRiSFhfhkzxnvUnEJ4XqVIoVpSkr710Z/1cUsuPBdPk0tD0D4Wz/+ohJWF53n4teb9LVWiE8O6S1heoRmU09p5Bd1KSfrWR3/Wxy258Fw8TS4NQftYPP9z45VLxm3TrBQmM9OyJygrRDeN98bFSCxloPJ4qp7ucrnQFcdvGbnINSylYcOFlJ/8z3+H5Rr8Xtq07jYtg9TYqpZOGwrAD5b5aQYJjoRnC78HkqfG8xNq/UupSUvnrfF8zwYakmcv8O7j7dvPgq0U3bwZxZoMj/cgPm7xnBPoyJqLV+tfQk1aOu+aeLtBwycMo1q/pWBzS2cNazQ8s314PE40SitU+2pSYTau9rNxtG8K7b8Ux/oKS75eeA4d1+KF2/glzOJjrE5Dpl5vF20sutACjuM9tHoYC2TGeUdkdhHOiC5L9/IMj67wxqmebyRoKLp54TDew3ZseZ4bKm0uwFxl1lS2+Hrk/L2wJXTaS3jxS7Hxa9IU32V/uiZ0jebjtvaCgzXvXj0bx3t4UO2M93KVUl5xsa8l52vDStDxl/Dil2Lj16S76DtMErDetufbpXYQ3TTpwNYkroBhrcetCEJXlsXzF1J+3ucW6DS34qUP1vp5RP4Y9lDvg21j0zfS9rFdWjrdTGOswI/U0OoN4z2ptNLK86iJKxVvyYXr+JYa3xbofEry1L7culFXikdXdp/bXraT6MSmVg/fBeBvnov4uNudd72lLFW8Ri6UpibcUuPbAp1PeZ6hK51vOeozbsvZzqKDQXjTieLZHb8GgrdQeZW1DrkYHp6/sBS+hpJ81yDpekS+JDYc+/Q7XxxqXQzXYmoI9rIziM433kKFuxGP1NRkY1aBnUleuAZsSVOXS+P5hh1A9D+WQJ6Fd8XsPW7L2QFEN91p4xYqdLnDEkuqYmuoTWNNviX+a85F4kiZPGwc/lYZjduwXBV/pXP/rtSzg7R0cWXgm2n4Diiv7zlLLLV4FypFrb/F5p3Di+9R4stpQmx0w863HMVDmnPbYbpXz1BxsoVq7DLujLDY6KYMjx3DF5aWtoofwQ4tOjF5KU7YQrW95bsqeL3tMW85OtK4LWcHF900u4rW9zBAjir/FoQYznHsSiG2Yb2t/lUc57WLaOm0jeM9iI8uBC6C3s2iL5Qc0+jwFF48i/XXn/XxNXhpyTnK4u7areJHsIsTndi4ZX5Yg/IuVu4iCkvhtUieLdMd08K4jSYLYcvRcSYGtXaxooNhDIM1KP56JHU38YU23VGCluIASG9bmvFQgdMaulIML0rea3J0u2DRTXf6uIVqeCsBLpae7YoQtohBp2Hx/LeAsnP5sQRC54SXBO2x5Wgvu3DRxetP4xYqPFKjsU8PQezCsLi795ajveyiu9dg87t+2jJPY6AGi8sg1arJ8TUC13FDfCorloVodo5xW7wEctmtm7YrEJ1vGPvweA/jIV7f8y98KbE45sdsWAlRvGG9Dd+sO9eWo73sCkVHLcL0OJfXsPgtVFhiQbflXPzzQq0blQ3LQFgOiu16WjdtV9vSBZsu2riFaljfGy/4TATr0C1d1IIZv0j41P3D5xrHbTm7ctHNjV+IjScaZgvVVrTI5H/5HIE8kTeJH9+Yu5RHVy3tpkQnFxhbqMa3j88eqcWkBOQKKnOcQV5Pn4/HbWoocCt2cy2dtnHLPJZYVLeXFY4iJUZBHl3xTPrl8HbKN7/5tSH327WbFp3YON4jYegu1wpqCS04jou0hnHbJWw52svuolPGW+bHJZbpRUAsIEdklsh/GDfO3k45bZy5WbuLzpjdQiVdZCQoIzbuPgfRcetG47ZL3HK0l91Fl7BoCxUJSYtNC3AUGpZfaGyIR1f4aYS7pe0uugXDGhqEpNf3RICj6IYnHvO3U4Ib70sdu4uuwLDUwuM9jNMw5uNHVsNa37MwbruGLUd72V10izY91cDaGl6jhTEciN8qfp2PrHrYXXSLNhcTWj7/ScJdeMt2Ov0/MPYlQnJH2DQAAAAASUVORK5CYII=;" vertex="1" parent="1">
          <mxGeometry x="950" y="251" width="35" height="35" as="geometry" />
        </mxCell>
        <mxCell id="jjM4XxSEG5LytGMmibBt-11" value="" style="shape=image;verticalLabelPosition=bottom;labelBackgroundColor=default;verticalAlign=top;aspect=fixed;imageAspect=0;image=data:image/png,iVBORw0KGgoAAAANSUhEUgAAAQcAAABYCAYAAAD4BDIxAAAAAXNSR0IArs4c6QAAAARnQU1BAACxjwv8YQUAAAAJcEhZcwAADsMAAA7DAcdvqGQAABJnSURBVHhe7Z3PqixJEcbvm/gybnwBn8ClOx/AnQ+gK3duLiIqiCsVXAyCoCA4IIqIC0UUBr3q/HPGmTtt/OJmhFF5MrOy+nRVd58THwTVXZUVmRkZ8WVkVp0+L06Ji+OjTz87/f7VJ6ef/Onj0zd/8+HpKz9/X+Xdjz8rJRKJ20eSwyMAAbz1l/8TwOd/9O/Ti+/+8/Ti269OL75ThO/Iy1env3/4utyZSNw+khwGIAP46/uvlQC+9dv/KAF84cdCAN/vEADneyLlkxwS94RnTw4QwJ/f/fT063c+OX3vDx+dvvrLigCMBGYIYCRJDok7w7MhB8sAfvjHj05f+9UHpy/+9N03QUvgxywAqQP7EpLkkLgzPClyeOeD16df/O2/SgBff/vD05feeu/0uR/8a5kBmDwmCzhHkhwSd4a7JAeCjCUAG4Ff/tl7bzYCX1YE8NhlwKUlySFxZ7hJciCI2AOwJQCfIyAGJYNbI4CRJDkk7gxXIwf2AFgC8BSATUAygOYSQD5DEhFKDlxrBeGtSpJD4s6wGznwFOB3/1i+CNR9CmDHOqAQuZbkkNgD+ChZKe+rJB7iUeQQ03/bADz7PYCeJDkkdoJnqrJEZQJLLDEkB3sJKKb/PALUDUCMeikCGEmSQxM8lrXXshmbLWA8z70Xn7B72Q+qQZDpfpAIS8VbhvoxYyN+u9UOzwFDcnAS2JsARpLk0ASB6WMigbgFOmPaWMq9BPwsCKLoEzWUGKzPG3UfjSSHMdbJwQb6WpLk0ATLObeBHOsnOj3wx18a3NYuuZd9oVmwdDRiIXuosdC9kbSORpLDGEkOR8mFyQG4DcS5v/H23JqZ5cjCdp0g78Ezgw6pMDZkJgifbxlJDmMkORwlO5CDz+Kin2CcAftGdk+UGfD0ye0u/bnlJcMMkhzGSHI4SnYgh4UdJoNV9xsabeOPz9agm42FWPCNe0eSwxhJDkfJDuSw2D8Qe6ztHcTyZB0+vnLvTHD4H6tJMD2FR39JDmMkORwlO5ADiA7OkmEEyEPtVoKbgOAzQuCPQFbiRCTH3otD1MG7LujrbZKSpXCdcixVDPzhHH3QPpXxhcS2bJgaaB97Kf5kRnTxaDW26Rxy4H7aqO/zFFtaO9Ex+rUv+ke/kZnHvPTBbDnTPvaTrDwx0gI63ca0XfrAPTz9qsc0yeEo2Ykc/JGm1LG270CwmEPg5IjbUY4j8G5EtHkPuqdBOZHeJqmSFEQjYmPLS3R6jntLwKnwWc7j8LPQvRh0RT1Bl23AbiEHxk7Lm96W0Ha53nr/A0AOuqFLWSmHTUfQ8TJ7yHEN2j7Ki7T643YJOv0zIm1jHAxJDkeJDMoe5FBvEvLSWg+xLQa/V44jZ9XgLU40erqh5FDK9ZYensGIMNsxi+p37pO2QXI64+PInKN9cpwhCPXZcE9Tn9SFrllyYEbVeymLFJ3YAfGgtHqL/ha8TimDrUbw+kr5mGXVqDO72g+UGGhj0YXN6TPi10Riu5McjhIZsD3IAbhTiE166aTOWqUc42rAGdSpReKsUSM69SjN30QOok+DlvLSNpw02ogU3dtXbNhbqgAc3f1CjuiLm7To89mYMiaiv0cOGnRWXsrR3jr9Bg90y7Flz7ipi/RAcPu4lrpH+zy1TSMW5CZl8IUa9JOxi8Sf5HCUyODsRQ468+JwIr21rNuscrJoy9qpDHEjc+2tx63kYDp7pAaUQCgnOkezrdZbyvVmbqAkUgVejxx0VjW9IqO+gwVBSB31HsQi6OXYe0rU8vFI6jW0XtopUi/n+G7X1rKViCSHo0QcYS9ywD5uD3GAFtx5pFycfWtnbTl/fHGKzasRNpODHOvxrRHHuxcgC53Sj9HyCiyyDGlrixwWpChl1/YIgGYa4Z6WXr1WrvdIsSYlFdFbk40h6qyzK9+XEunth7SQ5HCUyMDuRQ7odYeUY2s28naI3WrEawRZDXeuQcAbtpLDGtmAxcap9K+FuDE7oxO4f3fIYUG6IrOImVwrg9H9m2LPXoZj9XLdbSrnWuNT74nUWBChyKwfJjkcJTuSA4ipdx2UMTtoOWMM6Fba6X0Qm482xcAmcpAyo/TfsJjBO+QAIVj/R3snEWvkEPvSW661EP2ztVSrya7O1jTYi31oV7RX3BMwaPCXdrauq/3stfciZINrSHI4SnYmhzhz1gGH/aKz1YgzOWUiFlmJlFnDHuRQZ0YtaJ2lja3ZtYU1coiEs5YxRcxkOrG9daD6HoFcgyjq5U0N74dc6y19NGYiQZT2UVd3qVKOTSQ5XFBkcPckh5FDepor11sz/2KdLMe4Xo/E0pqValyNHOy66J2ZFcEaOaxd72GGHOIGYm1XJSWuiQ6DE5Wci2M4k1UZsItmmNa20je+1092QJLDUSIDtyc5gBggcQZRByht6KEXCB7sonMm6JIcHr570gJt9DIiETrDS50ErAFbcg6JyybXU5UfAfsr2WAzdJY+ogdiMyQ5HCUyEHuTg+9wBwdic9KcYBSI0fliOT1H+8XerScZNW5hWYF/zGAt+OOygn7NwrMt7hXpwctIn+zdCUhdz1f9iJuOtNvgGYiUn11OGex19dhWPts4JzkcJTKwe5NDdEpzID8nDtQLVtCa7eJGZnTIEa5FDjHtnn1ct0YO3hcpg/5Z+NOIlfvoe20r3zuSftYvK1lbuGb7BD5mkm309g7WsFgGydFskeRwlMiA7k0O8S1IC6I4s9js1EN0EMjC7Sz3z6bV1yKHuCE7S2SqD+n0L5It9c4G35peQ9RvbdaYw35yrkadJfhTDSk7Y8cR3H6i37KkJIejRJxrb3IA/khT7KMpqtUv39fgyxIpS2C7M0rb14jFcC1yWKzhpUxcO7cQg5BjK4gXm31Spt44bGELodT9ikvAVl1xf4HrtFn70Gn/Frgu0Z/kcLTIoB9BDjGl9fGTQZ8Jwnomc6IRmcW1yAFovaW9tL21R0KwLogBkc+94FKCNF+TI77Xg/bL2ik6LchGiDGGLaye1qZqJCv650spOTd6IxS9o3aDOKnQD5DkcJTIAB5BDov1o4l8X3MOsAhCE3HymRnTcE1yUL+o2s85lkhkUZo6c532Sf0ejPK9Rw4akNGe8pm4ML0I/VFdVjf65TgDbGTlXURPL+NwQghCe0bQ9otAALSbDAXipA5IaEGWUs6Q5HCUyIAfQQ7ggW2k7rW/NTDEbEFFdNlMMoNrkgPQmd7KlvYvhLbJkaD2TEnOjdJyTfft3pHech4b9oK7hi8lTK/IKNg1/ac+Ky/1rr0RqnFs91h7qROx87RfvmMXQ5LDUSKGP4ocfBYLjjALnV15zm73yueZR5gGD065r+e0GpTUIeVmngIoOVib5LgGDyAEp0fKveyrWOBqOfSK9IjMgA0882jp5ryM85qeFlxHaSP19KBkQptD+Zn9ICXtQduJ9QdPR8qxiSSHC4oMwFHkAEijSRmRLcENWJrYvbMzoMFS1bV6rcysTaxNsxujABsQrAg+1PodA2vHFtAWfDDqjjPuVmAnawdtXgMEYeW32APUbSeL641xksNRcjA5JBKPxTo5EISWgjxG0HOOSNoEGUQoOcTUyoS06VZF2tuauRKJW8WQHGL68VhhfYc+hEyAdMZSozWpN9P4btdIw0iVSOtIt7j2WGGGJ9Xamo4nEk8JQ3JIJBLPF0kOiUSiiSE5kFabJBKJ54UhOegLMWz82aYam35sLpYdeK7vLdRTP61gj4FfsGntbdyq8Mx/62PBROKaGJLDTT/KhKzqJyK3LEKy+SgzcU+4X3Igi2mVv1URMktySNwTkhyOkiSHxJ0hyeEoSXJI3BmSHI6Sg8iBTU82bHnJDOFzboQmzkGSw1GyMznwtqiOl9Sjtony8s1f3dV2TCRGSHI4SnYkhwe/YcDTESMGPoc2bPnPTYnnjSSHo2QncvAfBqWOcuQdEFtW8NkzikIUicQMkhyOkh3IgT8S05fU0C+BP/qnJvzdP+PJi2WJxAySHI6SHchBf8nIlg2ifwa5OZmYRZLDUbIDOfhPyYv+md9iTCS2IMnhKNmBHPS3InckB9rLUxAyFIRx2PKzZCx7+L0Nfmcjgser9vseUZ+VR7b8sR/67Xc91kAddZ/q9o1gdaEngnOtPt0zkhyOkh3IQZ9ShGXFpf56lgDQn0AXnWrnKHKOfQs2O9dgf7Rn+xwsaR78+K2UYTyB/qEd10RG+ycRBKLWU3T1lk38GJD6c6zbpLQR0liD9cl+GJcxfaBXyszY59aR5HCUiPNcmhxwQLeDkMQlsgdmPw2AonPh9HwOZLT2/yysbfiRfjedUaQMdQKt2/oj+mfITv+JT2mT1VNDy4z6FOoc/fIz0PKiw8hL77W+IEVvksMRIoZOcuhjUYc4J2N27m9VKtng/OiSYOIxaEyfaT/nvIyMAd97sDFilvUlkJzjM2OouuScjS+zvgdxY9xb0Gyj9N1IJkIJJ/SJ73EcsJX/5Dxl5GiZTAtWDnLQ+KBPco7v3KdEJN9ZZtw7khyOEnGYPciBdbY5bKyLl53qdfEIzNKuZ8W5GQ+3v5TtpfIPxkjKtgI4wklEZC0T0iVFaHPdDuwdr4/2AhZZixx7cH0m8v0pZAktJDkcJeJEe5ADIJB1xiWorL4yo0ESM5mEzp4lKNeWC8B9Q8r3sofFGMnn3j+5iaiJZ7S0sMyDsq1/juN7MpN1exYi5XvZw4Ic5PMoy7h3JDkcJTuSA1hs9pWAUeGzEAckMQq02M6Z3XudaQeBCeIY9cq04AHYGPsI090r53rk2MtuInRJQJulX70NUdc5KPNUkORwlIhT7UkOBnblcVp14kgS2EukFfici04/A13O2Bh07vHrnXp7gMi07SK9pUW9pKixaJ/IDHhaYffYE5Yasc4ZwrlnJDkcJeJMR5CDgaXEgz/IKu2onboOCrKCNfF/mFt0tuBjJNe37H/oMinc28p4dJYvBNKawfGZrX1aPBqWe1twezbs+NSQ5HCUiDMdSQ4GZmxdSwenr/8y84E9+TwjVl6WLS14Gen7lswBxPbW4w/i/kBr85Qf9XUdpdyqxPLS5haSHAqSHC4oVyIHQ92WiKY9CZQZkft6G5iuU+rbSg4xM8EPIxZLCqmjhQfkgMR2j0R09t538HrlmOQQjXsNkYFKcng8Fi9MyTG+ahzt2VtrnwOv7wxyYO8kBmK0nS8pRD8k0kIkh7VHolsQ25TkgCGuKeIASQ6PB2t+d2yxXUzFF2t8CahLwXVKvVvJAbjtRA97AgZfUoje3r++X5ChyKXgNpRjkkMx7tVEBjjJ4fHQVNxsJscYVLQrOv2l2un1ic5zyMEzBNFhS4vFkkKkh/ppxsyr2DOIOpMcyiBcTZIcLoLFGlzaUsNnYylD2UvgseSwyHZKMPovX0200/sr5fGZS6Buz1PGOjmYga8lSQ5N6ONH0dvaqa/BY01vh4xn/bQCkLa7TeW45dFjD65P+n4OOYBIWjru1o8Jnf7WZ7nnEsGc5FAAM/MMWUmCgcYwHBGMfgRxSF1JDg/hNhC9jA9k0Uqdsd1inF6+6r5OvWiv3DP6mwHSdn2iIPp6v6PgYyRtPJccemNty4wRsEd97+jPsllq6bsO0qdeezUG0CXHZ00ONTAGjoDD2Usjnl1gNAYCuSRxiL4kh4fQTURxYtePPaQOZlrGRMeF69FOcr0XyKBez9tYMkFABIi+os15Eynfy168bilzLjngc4t+lnbhAzPQNyVrO8kx9olXu70/+K2U7210un3kmOQwCQyFczHbQBzuSMWQbvw4CDZgI5GySQ5tYBe1o9m0VS/npW5Ig/FZA1mFpvI2ZuiPYnUVva23Ew0elFLuXHIAGrzUbX0SfVsCk7q39Kn33gbwPskxyeECIL1jgEjpcGjWghCHD5gNWhw4cwQ5l+QwBnbFphpEZk8RvnN+lC30wD0tnWQkBA9jshYclON+xvoxTwvwHXSgi/rjY80tIMNh0tKsquoT55nY1voEGVqfnjoOIYc1MFsxcDgcj6/YMNMBhACEoesUMskhkdgfN0EOIxBQNZvrTr2lg7A/R5OYddySJDkk7gw3Tw4jkKoScKTAZBOkwaR9U8uVoyXJIXFnuGtyWIMRhy1XrkocSQ6JO8OTJocRWKrwuIpNqAVxQBJ7EEeSQ+LO8GzJYQQjjuYG6bnEkeSQuDMkOWwExGHvc/AGKcShj/sKAXSJI8khcWdIcrgg2CCNxOEvgkESL/uvLScSt4gkh4Ow9nJNInFrSHJIJBJNJDkkEokmkhwSiUQDp9P/AEo1zXqufpkiAAAAAElFTkSuQmCC;" vertex="1" parent="1">
          <mxGeometry x="922" y="45" width="119.55" height="40" as="geometry" />
        </mxCell>
        <mxCell id="jjM4XxSEG5LytGMmibBt-14" value="DH Hompage (:9191)" style="text;html=1;strokeColor=none;fillColor=none;align=left;verticalAlign=middle;whiteSpace=wrap;rounded=0;" vertex="1" parent="1">
          <mxGeometry x="990" y="116" width="173" height="30" as="geometry" />
        </mxCell>
        <mxCell id="jjM4XxSEG5LytGMmibBt-16" value="" style="shape=image;verticalLabelPosition=bottom;labelBackgroundColor=default;verticalAlign=top;imageAspect=0;image=data:image/png,iVBORw0KGgoAAAANSUhEUgAAAIcAAACECAYAAAC6czikAAAAAXNSR0IArs4c6QAAAARnQU1BAACxjwv8YQUAAAAJcEhZcwAADsMAAA7DAcdvqGQAABDbSURBVHhe7d3Li21HFQZw/xPHjpwIIggOnTkUB4IIPhEnigMdmIlIcCQS0IGIxJFcUeMjEgghGLgKajA4MKAOggQfEB8EAop65HfuXedWV9c+Zz9qv/rUB4vu273P3lWrvvrWqlW1+77pcMfxxr9fP7z8118d7r/y48OPfvuNwzd/+fjhyRe/ePjK/U8dHn/+o0d77Nn3HT7/7HtP9oXnPnD63RP3P3P8zL2Xnjj85OVvHX7+yjOHP/3zlcN///efh0+4u7hT5PjjP353+PWrLxxJYPA/+cN3HT743bccPvS9tx7tI99/2+FjT7398PGn3nHDPvGDd96y/Bqf83n3cU+GSF//xWNH4v3htd8cXnvjzw9bcjewa3KEKnz7pS8fZ/lnn3nPaRBj0BFkLgsSIYx/Iwulee73945E2bu67I4cCPHiq88fCfHpp999nMGhBnOT4ZKlZGHCE6JQlT1iF+QwA4UMhKAOIfNrk+GSaR8V8/0Donzn8Lc3/vKwV9vH5skhAfzqzz53yhm2Togu0+4IP5Jb4XDr2CQ5Xv/X349yLGxE/pA7e6+GJJEXSZqFnK3mJpsiByeRXkvLPatEX0N6/bTimTMvGZscb4IcGi7J5DDSe9dJkRslkVhb6citaoJvKdSY+65ODgUljd/CamNtQxKhVJ3GqqwG+Bfx3HMoViOHzkvM7lpOMdUicbUqU9CbCtXdWFYPJdwq5JCpayxilBzU7FHNxPJdgj4GQgklci9fh4aWRckh/tmfwOSmFv3MBKIiYxJWqiFUxX0k+0OwGDlkzHKLphbDLfKxIXkDlZBr+LzPMqvAIViEHMKIfYdgcbPhZnBNLMvePrmDwmH4Gyl8HlmGVGhnJ4diFua3MFLHEMRgn8sfVJURw7XURpkg/m08+mJWcsgvNAhrSx1tNs5MNHlIiSDyOsmna3yVzLrO5xCEovTFLOTQQAdqYi+hWX2LPIRKpOB3ExIRnDMJONLgZ12kKqE6OcTDRoxlLPIQYQPURfwMCZQKTNKAlYoxSa+/hKrkQAwMbcRYzpCBihj8CCd+nquDRNTvEMeqsQ+qkQMxZNKYmXeg2fxm0ENJSvUM4xPbFCZvH1QjR5RpSw1vtowhhs27LlipuMY49TlPUoUc9176WlOMlY0iCOnnSu1CjeuMlTG7hMnkIGGNGOuacEIN+px+l5dE3nGpmDaJHLJeDWOlRjeb3/h+yKaajTyT2ecufWY0ObBUoxox1jO+VxIfsrUv16AyLK2DlDCKHLFkJU+lRjeb32JSDj2obEmr/G7svvTTDz/8aRmjyOGQTiPGeoYYQsOYw0AKY0oOMX5poSzHYHJgamwFN1verDaE8ykHkqNaiiDnCDaIHCRJWbblGeuYwby0I9sH8kUTnPrYHO3CIHLEpk6p4c3mNTPd8nPskcEciMbs0nYtaXuTo4WTdYxKG0Qz/Fx+MBRp3tF1AKgXOWJ1It7ljW82n4VK991FHQL3pEYmfNeKpxc51OTdKG98s3ks1OKc5E+FvEVii4AKYyVcJIfGaWxLQpcxg8Uc4qkZRnLIXaJWZZFRwkVyOIPYktD5Tcg2UFPeUxmKKKVTkFLecZYcPuDUeFON+SxCiGrl0n/kJeod2lCqd5wlB9VoucY8ZkD4Vt1iTKWzBuI9WupROiDUSQ7S1jbW6pvwwZBCXjFXwtkXVIupYeU5Tic52jmNehahg1JIAi0d50w2h0A40zbpQ07UIjlchNlNNaZZJJl86Ril5eNWSBF4+uUnjyIgvORJaZEcmN1yjWFmIiEDR/MdU6dQbOqqQG4B8p1oc15sK5LDIVUdLTmh2SNLySA/EzIcZ+DwrSlEF6yQohim7SlukcOOnbeiriWk6GduBj1CAqelFqrg9+J1kEHIWKo+URNUTdjT1/x9llvkcHSME0qO3IvlAx2DHAMrvjK/M2uYCaFSyDhJSJDBO6VtSS9BDxLsRRX6Qn8jN0qT0hvk0GkXclrJ6Vs1JDD4Ouh7PzPgMdAqgQbY0tEAW9+HUUpmBpn5jIP44q6RoAuSZf7L36O9QQ5OMaNy52/NQhGogE6FvFM9ybTBbuiP+GtL/GryBG6Qw8xyUWlAtmARIjA8XQnk6/OGYUCImGjpW/s3yOEAyNZCCjYjhMYLEQjRlKEu+DPK6MJv4EQOsXZr50MjDkoM5QcN5zE2R/I5viYMJmDc50SOWO9ugRyhFBLJRop+iCR6DHzOJEQOZfRb5NhCvhGJpnyikWIY0kRyKJAhVqnsFjlItxlbGrQlLJahSDp2BlwrqMalVxsvIcZf7hEJ/okcax7qEe+oxR4rjFsA1eg6JNwX8Wc0RI84dHQixxr1DWSMDLktR8fDKnNqGKY8iMFiA+5IDjdemhyIIQGeKofXDrOc6k6FcB7KEafCjuTAlCWT0Ug8p0rhtSMSyXyrfQyEJmOCILE7eyRH/K2o0kDWtshrpmTXDQ/AhxS/RgLfSQ71hKVWKh7eFGM6EMIiwqZZDRgT44MHEaaO5Ej/64U5DTEcS2uYjnitoNZEizfgbpAj4hZJKQ1oLUMMCtUwHRYQiGHcaqFIDkvIuV+Sdm8HSVodow4M3vvvvfnGDupUnCXH3AWw9BBJw3jES+3pHkgNFMlhu3bO1xBaOKkH4SRWFLXrQ53kmKt07p4e2MLJdFB4RyoQw3jVrigvrhweVHoHs2E4YmNsDtWARckRqtH2TKZD4qnYJaTID2vmGoE4z7MIOTA8PXLWMA5K48aGGbi5CohRIWWz5xzu11Yo0yABNZuDGDXrGjmQI54TVddZ6hzuZRt5Dvm7FiAGRedLg+YY35zv3MauLDvtrcxBjrmSpmuBSRV/GoE/H2yj9/8vP8cAOTzH2MWzjuXz2i9Oe0hbvo4Dv5msBokvEcS/50Zsvhq7mNjVN95IoBymYTiouIkaxOBLOcfcuVsqEMgRSe+RHGJMNGiqIVmriA5HhPd0HCxfa+6fdAE5YsXqmRYpcDrsgzHpII8192kHeYZBKEkVg5lkkvolgByeF+TwbziSg4zUIgdpakvY/jBLc8XgQzN5qQJinCGOVdENcmigX6aDPMbi5h7WcBmqkkiQ5nt8yJb0oQSUOCAlBbtBDqihHDplc2jLfwNrK0AMPstXiYiydBkgFiTUK2occCJHjZeog3lLyeFeEX/GM/e3CXruP8eZA1Qi6lzalJ5kP5GjxiFjD1DibeQow0DYb0KCnBgGZo2qsvAlFYj2xNtucCIHxqRJ0Rhr5OiGQaDOpfDtZxR3DcS4I4f6VFq8PJEj9vOnhJZGjjIs7eNPHOQ+o9Z8tlaeFudEYuxSnMhhQMWeqeRoOccj8INkrxRGmEGZ41TXEGiHtlGPPN85kQOmltGbcjyC2B3H+rp85fdrLvvT+paveX3qBjnIXykm9jUMtG6P8us1QkLpxS1+LIURZgIK4Wsv+SOkGDdhL5/UN8jhl1OUI6TzWiukZmIctct9E0ZJqOvaEyhdpWiTv8+R4wY5sF7O0MX4PuZB10YOGX46C0t+YdTEOY0thN305XntLr2pf4McILRMUQ8PvJazo0gRdYtLPnONWtJW8rHYLukKKXCLHDqcFkWGGtVZ4nDKmqCwStzyq5h9XRayjRhLF7i6EKe+tA+pu3Z/b5EDQiLzjvY1D96KI2rCxEGK6OOlCWSiuGbpvZJz0Id0q0Q/ulZMRXLIGYJZY8xMKcWwvYLkpkrRR1VNLjWMuV4lGAu1jFC7UPmuUFckh1kvox6bmIZU7V09TBI5BTL0UQoW10rst7Y7rT0puX1/TtWK5ABxaUpo0YA9rlrMIn03OfSjr1Iwk8lSdosJuYmapgvRp3MJcic53GxKYqoR8ebU1sFBwqCk0eCa+ZEvlPqWm+t8hr+2OiHyjVXfp2c3SugkB5CcKbkHp6VbwFsB4itCyQcoRBSu2NDJEKGXWpybhWtCwqmP0TdfEflSIe4sOWS2krChDgvjOM7fSu7BSYo/8qExCpGaz/i8zH9rSWeOPH/soxpwlhwg/qZyNNQ4cI0YbBaTeEU9ZIi26MtYQoS5j0mzpSVqF4R27c3b30flLpIDUkkaYz67xOsKFMpzzIoIFxwxJlzk5vMRepB9D+dkbQCmisH4o+9fdOxFjqkldY7VqJoEQQTKQNKRgbz7I2qeU0MdwqLtvnrOmlvsQ4DA+RsFfMJP0oU+6EUOA0GapxLETB7zBpfnMwkUKXfuRPFGUoUIrAYRUuNI/dVmjt4LKQCJc8VgSD6kONmLHEBGp77bYgDdQ+MvxTyDQRWc1I4E0md10KDVUobU3M+9PcMMQ8S+s2wL4FMTpzRO+iXUDkFvcoBYNUU9wtzDrKcinM+QwWAggoGJGgtVcH1tIqTm/ky5W6HI8ptS7Qn8x28lxeC7MTWYQeTAzHjHIW/AUNNgM9SAROLIQhHmJIN7I0OoEEKS2z0kmSVQVz7sGhdKMuYP9w0iB2BoTUmfmwhhnhGJqmUo+aVce1OIFJTAZD2Xc+mv5eyYfg4mB2ChWVdqTG4xKKEMqTqUrq9l7u85nm3mmFnK40LG3s+4ar++RB9L/Wd+r99j+zuKHKBxlwhCss1S2T7ZtpQ1W6MoVZsg4Szt4hQ7oyqie1ppnAOlkBPpH9KXfBDGF/w/pXo7mhxRWu9irsbrSFe2bwafi5N9LZwQzpKRIyBC7DlkBPTBpBIa9O8SKcJcN7UyPZocYABiVZE2zGAhxiX4PIIMVZAghBkkobU03nv+kIJfECLUmZlEff3keuo8FZPIAWQrbzjW9q0PYHef2eD+rvMVIZHPs/s+Z4tAZmYVSEn5gvLpH/Kzki/Omc9IUmv4ZTI5wKzFVgOHKBrXF5eKa0EKDvNuBULsUSEMVpT75V+SegRXm9A//vN1iELk5rP8VGtJXoUcIPHTOB0k80NgT6TUWU7ynodzj6Q2HKsYR3LFYfJptnFyl/m961yfmnaaral5FkkfaiZIep94nomiDQZNCNUvs5uffB1LhNzcxzOGFrrOoRo5gGMNNOcMQRc5GOfKK6J0HjOMY5ExjHO6LL0uNfcpWTxnqKX3SNuXtqXUx6nmvp5fkxhQlRwQm2J9YQ1+KazM5dS7YHxDMeY4cVedHBBhoA/So/LNhhlVohhzEANmIQcgx6XEUQ4xZinb7EHeIpfpOwnHYDZyQCzVShAfySH2lzrfrNsoLWLMvQ0wKzkACSzbZPSx2lDWJodNMYYbv8nr+pwBnYrZyQGkz5IU43WuqcVwM5H4zTJ+qTrPIuQAHVLEaoox3OQXQjDVXRKLkSMgtKhb6HDJEc0eWaiFIt4a2wSLkwMkUnHWsalI2UweKuvo5FJhJMcq5AiQSVk3J5QcdI1msiCG8vvaxxZXJQeQS/skVOSaQw1SmCTqPvZptoDVyREwS+xSirHXtJoJUkg4bV6uFUJK2Aw5AhLW+J8R77KSIIWlva82KucuaI3B5sgRQBJJKweGE0tO3pulSmFfacuHlTZLjoACmnMXYjEl2WPICZXwfbydv2VSBDZPjgBnWt1Y84eaIMpWFUW7kDmSTEk3NdxSTnEJuyFHgHMlryQ5P2+5NlGQFRm0g0JYjiLEEvsgc2B35MhhY4+imJmIEifGQllqq4t7MfdFSM/xPCaRtuJAiD2EjUvYPTlymKXIYgUQZziRxsDGIBrQyF9SAqUDHxYhLD4nRFAF95UwUzBkuIu4c+TIgSySWgrjxJSjA44QUBp1FUb+VWqZQY+fM7ugrkcAn3cfYW2voaI/Dof/AxDdiP7OYNg6AAAAAElFTkSuQmCC;" vertex="1" parent="1">
          <mxGeometry x="950" y="155" width="35" height="35" as="geometry" />
        </mxCell>
        <mxCell id="jjM4XxSEG5LytGMmibBt-17" value="(구)전자영수증 관리자 (:8989)" style="text;html=1;strokeColor=none;fillColor=none;align=left;verticalAlign=middle;whiteSpace=wrap;rounded=0;" vertex="1" parent="1">
          <mxGeometry x="990" y="158" width="173" height="30" as="geometry" />
        </mxCell>
        <mxCell id="jjM4XxSEG5LytGMmibBt-18" value="" style="shape=image;verticalLabelPosition=bottom;labelBackgroundColor=default;verticalAlign=top;imageAspect=0;image=data:image/png,iVBORw0KGgoAAAANSUhEUgAAAIcAAACECAYAAAC6czikAAAAAXNSR0IArs4c6QAAAARnQU1BAACxjwv8YQUAAAAJcEhZcwAADsMAAA7DAcdvqGQAABDbSURBVHhe7d3Li21HFQZw/xPHjpwIIggOnTkUB4IIPhEnigMdmIlIcCQS0IGIxJFcUeMjEgghGLgKajA4MKAOggQfEB8EAop65HfuXedWV9c+Zz9qv/rUB4vu273P3lWrvvrWqlW1+77pcMfxxr9fP7z8118d7r/y48OPfvuNwzd/+fjhyRe/ePjK/U8dHn/+o0d77Nn3HT7/7HtP9oXnPnD63RP3P3P8zL2Xnjj85OVvHX7+yjOHP/3zlcN///efh0+4u7hT5PjjP353+PWrLxxJYPA/+cN3HT743bccPvS9tx7tI99/2+FjT7398PGn3nHDPvGDd96y/Bqf83n3cU+GSF//xWNH4v3htd8cXnvjzw9bcjewa3KEKnz7pS8fZ/lnn3nPaRBj0BFkLgsSIYx/Iwulee73945E2bu67I4cCPHiq88fCfHpp999nMGhBnOT4ZKlZGHCE6JQlT1iF+QwA4UMhKAOIfNrk+GSaR8V8/0Donzn8Lc3/vKwV9vH5skhAfzqzz53yhm2Togu0+4IP5Jb4XDr2CQ5Xv/X349yLGxE/pA7e6+GJJEXSZqFnK3mJpsiByeRXkvLPatEX0N6/bTimTMvGZscb4IcGi7J5DDSe9dJkRslkVhb6citaoJvKdSY+65ODgUljd/CamNtQxKhVJ3GqqwG+Bfx3HMoViOHzkvM7lpOMdUicbUqU9CbCtXdWFYPJdwq5JCpayxilBzU7FHNxPJdgj4GQgklci9fh4aWRckh/tmfwOSmFv3MBKIiYxJWqiFUxX0k+0OwGDlkzHKLphbDLfKxIXkDlZBr+LzPMqvAIViEHMKIfYdgcbPhZnBNLMvePrmDwmH4Gyl8HlmGVGhnJ4diFua3MFLHEMRgn8sfVJURw7XURpkg/m08+mJWcsgvNAhrSx1tNs5MNHlIiSDyOsmna3yVzLrO5xCEovTFLOTQQAdqYi+hWX2LPIRKpOB3ExIRnDMJONLgZ12kKqE6OcTDRoxlLPIQYQPURfwMCZQKTNKAlYoxSa+/hKrkQAwMbcRYzpCBihj8CCd+nquDRNTvEMeqsQ+qkQMxZNKYmXeg2fxm0ENJSvUM4xPbFCZvH1QjR5RpSw1vtowhhs27LlipuMY49TlPUoUc9176WlOMlY0iCOnnSu1CjeuMlTG7hMnkIGGNGOuacEIN+px+l5dE3nGpmDaJHLJeDWOlRjeb3/h+yKaajTyT2ecufWY0ObBUoxox1jO+VxIfsrUv16AyLK2DlDCKHLFkJU+lRjeb32JSDj2obEmr/G7svvTTDz/8aRmjyOGQTiPGeoYYQsOYw0AKY0oOMX5poSzHYHJgamwFN1verDaE8ykHkqNaiiDnCDaIHCRJWbblGeuYwby0I9sH8kUTnPrYHO3CIHLEpk6p4c3mNTPd8nPskcEciMbs0nYtaXuTo4WTdYxKG0Qz/Fx+MBRp3tF1AKgXOWJ1It7ljW82n4VK991FHQL3pEYmfNeKpxc51OTdKG98s3ks1OKc5E+FvEVii4AKYyVcJIfGaWxLQpcxg8Uc4qkZRnLIXaJWZZFRwkVyOIPYktD5Tcg2UFPeUxmKKKVTkFLecZYcPuDUeFON+SxCiGrl0n/kJeod2lCqd5wlB9VoucY8ZkD4Vt1iTKWzBuI9WupROiDUSQ7S1jbW6pvwwZBCXjFXwtkXVIupYeU5Tic52jmNehahg1JIAi0d50w2h0A40zbpQ07UIjlchNlNNaZZJJl86Ril5eNWSBF4+uUnjyIgvORJaZEcmN1yjWFmIiEDR/MdU6dQbOqqQG4B8p1oc15sK5LDIVUdLTmh2SNLySA/EzIcZ+DwrSlEF6yQohim7SlukcOOnbeiriWk6GduBj1CAqelFqrg9+J1kEHIWKo+URNUTdjT1/x9llvkcHSME0qO3IvlAx2DHAMrvjK/M2uYCaFSyDhJSJDBO6VtSS9BDxLsRRX6Qn8jN0qT0hvk0GkXclrJ6Vs1JDD4Ouh7PzPgMdAqgQbY0tEAW9+HUUpmBpn5jIP44q6RoAuSZf7L36O9QQ5OMaNy52/NQhGogE6FvFM9ybTBbuiP+GtL/GryBG6Qw8xyUWlAtmARIjA8XQnk6/OGYUCImGjpW/s3yOEAyNZCCjYjhMYLEQjRlKEu+DPK6MJv4EQOsXZr50MjDkoM5QcN5zE2R/I5viYMJmDc50SOWO9ugRyhFBLJRop+iCR6DHzOJEQOZfRb5NhCvhGJpnyikWIY0kRyKJAhVqnsFjlItxlbGrQlLJahSDp2BlwrqMalVxsvIcZf7hEJ/okcax7qEe+oxR4rjFsA1eg6JNwX8Wc0RI84dHQixxr1DWSMDLktR8fDKnNqGKY8iMFiA+5IDjdemhyIIQGeKofXDrOc6k6FcB7KEafCjuTAlCWT0Ug8p0rhtSMSyXyrfQyEJmOCILE7eyRH/K2o0kDWtshrpmTXDQ/AhxS/RgLfSQ71hKVWKh7eFGM6EMIiwqZZDRgT44MHEaaO5Ej/64U5DTEcS2uYjnitoNZEizfgbpAj4hZJKQ1oLUMMCtUwHRYQiGHcaqFIDkvIuV+Sdm8HSVodow4M3vvvvfnGDupUnCXH3AWw9BBJw3jES+3pHkgNFMlhu3bO1xBaOKkH4SRWFLXrQ53kmKt07p4e2MLJdFB4RyoQw3jVrigvrhweVHoHs2E4YmNsDtWARckRqtH2TKZD4qnYJaTID2vmGoE4z7MIOTA8PXLWMA5K48aGGbi5CohRIWWz5xzu11Yo0yABNZuDGDXrGjmQI54TVddZ6hzuZRt5Dvm7FiAGRedLg+YY35zv3MauLDvtrcxBjrmSpmuBSRV/GoE/H2yj9/8vP8cAOTzH2MWzjuXz2i9Oe0hbvo4Dv5msBokvEcS/50Zsvhq7mNjVN95IoBymYTiouIkaxOBLOcfcuVsqEMgRSe+RHGJMNGiqIVmriA5HhPd0HCxfa+6fdAE5YsXqmRYpcDrsgzHpII8192kHeYZBKEkVg5lkkvolgByeF+TwbziSg4zUIgdpakvY/jBLc8XgQzN5qQJinCGOVdENcmigX6aDPMbi5h7WcBmqkkiQ5nt8yJb0oQSUOCAlBbtBDqihHDplc2jLfwNrK0AMPstXiYiydBkgFiTUK2occCJHjZeog3lLyeFeEX/GM/e3CXruP8eZA1Qi6lzalJ5kP5GjxiFjD1DibeQow0DYb0KCnBgGZo2qsvAlFYj2xNtucCIHxqRJ0Rhr5OiGQaDOpfDtZxR3DcS4I4f6VFq8PJEj9vOnhJZGjjIs7eNPHOQ+o9Z8tlaeFudEYuxSnMhhQMWeqeRoOccj8INkrxRGmEGZ41TXEGiHtlGPPN85kQOmltGbcjyC2B3H+rp85fdrLvvT+paveX3qBjnIXykm9jUMtG6P8us1QkLpxS1+LIURZgIK4Wsv+SOkGDdhL5/UN8jhl1OUI6TzWiukZmIctct9E0ZJqOvaEyhdpWiTv8+R4wY5sF7O0MX4PuZB10YOGX46C0t+YdTEOY0thN305XntLr2pf4McILRMUQ8PvJazo0gRdYtLPnONWtJW8rHYLukKKXCLHDqcFkWGGtVZ4nDKmqCwStzyq5h9XRayjRhLF7i6EKe+tA+pu3Z/b5EDQiLzjvY1D96KI2rCxEGK6OOlCWSiuGbpvZJz0Id0q0Q/ulZMRXLIGYJZY8xMKcWwvYLkpkrRR1VNLjWMuV4lGAu1jFC7UPmuUFckh1kvox6bmIZU7V09TBI5BTL0UQoW10rst7Y7rT0puX1/TtWK5ABxaUpo0YA9rlrMIn03OfSjr1Iwk8lSdosJuYmapgvRp3MJcic53GxKYqoR8ebU1sFBwqCk0eCa+ZEvlPqWm+t8hr+2OiHyjVXfp2c3SugkB5CcKbkHp6VbwFsB4itCyQcoRBSu2NDJEKGXWpybhWtCwqmP0TdfEflSIe4sOWS2krChDgvjOM7fSu7BSYo/8qExCpGaz/i8zH9rSWeOPH/soxpwlhwg/qZyNNQ4cI0YbBaTeEU9ZIi26MtYQoS5j0mzpSVqF4R27c3b30flLpIDUkkaYz67xOsKFMpzzIoIFxwxJlzk5vMRepB9D+dkbQCmisH4o+9fdOxFjqkldY7VqJoEQQTKQNKRgbz7I2qeU0MdwqLtvnrOmlvsQ4DA+RsFfMJP0oU+6EUOA0GapxLETB7zBpfnMwkUKXfuRPFGUoUIrAYRUuNI/dVmjt4LKQCJc8VgSD6kONmLHEBGp77bYgDdQ+MvxTyDQRWc1I4E0md10KDVUobU3M+9PcMMQ8S+s2wL4FMTpzRO+iXUDkFvcoBYNUU9wtzDrKcinM+QwWAggoGJGgtVcH1tIqTm/ky5W6HI8ptS7Qn8x28lxeC7MTWYQeTAzHjHIW/AUNNgM9SAROLIQhHmJIN7I0OoEEKS2z0kmSVQVz7sGhdKMuYP9w0iB2BoTUmfmwhhnhGJqmUo+aVce1OIFJTAZD2Xc+mv5eyYfg4mB2ChWVdqTG4xKKEMqTqUrq9l7u85nm3mmFnK40LG3s+4ar++RB9L/Wd+r99j+zuKHKBxlwhCss1S2T7ZtpQ1W6MoVZsg4Szt4hQ7oyqie1ppnAOlkBPpH9KXfBDGF/w/pXo7mhxRWu9irsbrSFe2bwafi5N9LZwQzpKRIyBC7DlkBPTBpBIa9O8SKcJcN7UyPZocYABiVZE2zGAhxiX4PIIMVZAghBkkobU03nv+kIJfECLUmZlEff3keuo8FZPIAWQrbzjW9q0PYHef2eD+rvMVIZHPs/s+Z4tAZmYVSEn5gvLpH/Kzki/Omc9IUmv4ZTI5wKzFVgOHKBrXF5eKa0EKDvNuBULsUSEMVpT75V+SegRXm9A//vN1iELk5rP8VGtJXoUcIPHTOB0k80NgT6TUWU7ynodzj6Q2HKsYR3LFYfJptnFyl/m961yfmnaaral5FkkfaiZIep94nomiDQZNCNUvs5uffB1LhNzcxzOGFrrOoRo5gGMNNOcMQRc5GOfKK6J0HjOMY5ExjHO6LL0uNfcpWTxnqKX3SNuXtqXUx6nmvp5fkxhQlRwQm2J9YQ1+KazM5dS7YHxDMeY4cVedHBBhoA/So/LNhhlVohhzEANmIQcgx6XEUQ4xZinb7EHeIpfpOwnHYDZyQCzVShAfySH2lzrfrNsoLWLMvQ0wKzkACSzbZPSx2lDWJodNMYYbv8nr+pwBnYrZyQGkz5IU43WuqcVwM5H4zTJ+qTrPIuQAHVLEaoox3OQXQjDVXRKLkSMgtKhb6HDJEc0eWaiFIt4a2wSLkwMkUnHWsalI2UweKuvo5FJhJMcq5AiQSVk3J5QcdI1msiCG8vvaxxZXJQeQS/skVOSaQw1SmCTqPvZptoDVyREwS+xSirHXtJoJUkg4bV6uFUJK2Aw5AhLW+J8R77KSIIWlva82KucuaI3B5sgRQBJJKweGE0tO3pulSmFfacuHlTZLjoACmnMXYjEl2WPICZXwfbydv2VSBDZPjgBnWt1Y84eaIMpWFUW7kDmSTEk3NdxSTnEJuyFHgHMlryQ5P2+5NlGQFRm0g0JYjiLEEvsgc2B35MhhY4+imJmIEifGQllqq4t7MfdFSM/xPCaRtuJAiD2EjUvYPTlymKXIYgUQZziRxsDGIBrQyF9SAqUDHxYhLD4nRFAF95UwUzBkuIu4c+TIgSySWgrjxJSjA44QUBp1FUb+VWqZQY+fM7ugrkcAn3cfYW2voaI/Dof/AxDdiP7OYNg6AAAAAElFTkSuQmCC;" vertex="1" parent="1">
          <mxGeometry x="950" y="197" width="35" height="35" as="geometry" />
        </mxCell>
        <mxCell id="jjM4XxSEG5LytGMmibBt-19" value="원터치페이 관리자&amp;nbsp;(:8585)" style="text;html=1;strokeColor=none;fillColor=none;align=left;verticalAlign=middle;whiteSpace=wrap;rounded=0;" vertex="1" parent="1">
          <mxGeometry x="990" y="200" width="173" height="30" as="geometry" />
        </mxCell>
        <mxCell id="jjM4XxSEG5LytGMmibBt-20" value="Web Server (:80)" style="text;html=1;strokeColor=none;fillColor=none;align=left;verticalAlign=middle;whiteSpace=wrap;rounded=0;" vertex="1" parent="1">
          <mxGeometry x="990" y="253.5" width="173" height="30" as="geometry" />
        </mxCell>
        <mxCell id="jjM4XxSEG5LytGMmibBt-21" value="" style="whiteSpace=wrap;html=1;aspect=fixed;" vertex="1" parent="1">
          <mxGeometry x="80" y="39.5" width="260" height="260" as="geometry" />
        </mxCell>
        <mxCell id="jjM4XxSEG5LytGMmibBt-23" value="" style="shape=image;verticalLabelPosition=bottom;labelBackgroundColor=default;verticalAlign=top;imageAspect=0;image=data:image/png,iVBORw0KGgoAAAANSUhEUgAAAJ0AAACwCAYAAAAVFGw+AAAAAXNSR0IArs4c6QAAAARnQU1BAACxjwv8YQUAAAAJcEhZcwAADsMAAA7DAcdvqGQAAB2USURBVHhe7Z3N6zXJVccf8X9wNeAsHmQeEiQoOCjZClmIbgYENyqBLLKJm4iCi4AQN/I8488xoEyUIQwKISZk1ASDoiAzQRdRJBPDIAaJghGDAUHxZa7ne6pP96nTp6qruqv69n058OH3u12nXrr62/XWdfs+Ot2twt5VwOTv3WrsLroq80T2f8Pfu5XaXXSV9s//+a+n3337j5i/+/Y3hqN3q7G76BYttG7/9l//cfqVN3/z9OjX3jvx8vedPvKlj7MQJ5Pu9971puwuugJDq/Zdn/iR06NnJLRPvHh69Bs/PED/49iv/9Dp5b/81OAtdhddyu6im9k0Rvurb3319AOv/xS3aBAWhPbdr7xfiY5gEUJ8L5y+57d+9PTG3//ZEPtuKbuLbrRJbOguf/aNnz89evr86dHDD44CQ2uXgwVIcX7i9z9sxnv3Vk/bXXTK/vv0P6dnX/7k6dEr75vERkJiQUnLpsSnj4HQCpLwEJ/GfL/4p7/KY8G7xXajopu3POgW0T0+engyisoTFtDh4qP/yv9IC39f/cpnKAdpSSXv2239bl50X/mXr3N3yF0ptVIimkg8BuujseHc8tGY8Pt/58dPf/wPbw253nZ3e7Pd67f/9zu83MFiQ3dohFWDiC0Fd7vIg/J66XMfPb3znX8aSnGbdpOiw/IGL3VgrQ0tEQljSTg5dMvmpkPjwnHWO4gP4z2MIYNJy3cbTzduSnTo3njcBrHRxd8iNM2i6DyGMmAN8NbsJkSH5Qt0a7LeViqOnI+kUZKOZhbv4TGvBf75P/71UNrrt6sWHZYr0I1h4dYft82XQ0rQwkmRi6c/8/9YnqEbAmuD8SM1sivsca9LdOoCYZmCL+qwbJEiJZAcIp4lcnH0MfzPYz6UlbpdPOOdxnvXZ1fX0qGbwvIEui1vCcSihbGEjqPT0Fi/Jd8RPdkg8V3zI7ULFx1mfaF5wzLET37+58ISyPCctCeeiCxevHLC+h7Ge1hLjO2y1/kuvqXDelsYt4XZoH8Bt+OJSvD8LTW+AvvjnEh8H/zCx+bjvQu1CxTddJdjuYG7JBoHTRc0rLu1RkTj4flranwtYxyIj8Aa46WP9y5EdBDaJDZsOXr/7/1MmJVWdqVaAB4pf3vcotMoiZPz944xOFc65+/97R9zxnuX0+VekOjClqOf/vwvJR9d6YtVypZ4JZTGs36amT+WWJ4+xzfeJW6ZvwjRoTvhreLJ9baAd8GW2BKvhNJ41k/j+TPD+h6eIWNsO5lu9Y7XAh5MdJiJgqmiPv3OF0PFPzyeXQwP7+KkjoOS+BYbx+LFAZ6fPSbYuJqZH9b3SIDzLfPHtIOJbhIblgl43EZ3sqxfLV2MWwP1Ma7tAaorjPfiR2rHe6RxuO4V47YP/+Evh65Udu92mpFuQbc2HqX+1q+GEF89ysN2+aHLnW+ZP44dRnQYt/GWI1QeP7o6ntA0WjgpSnx1mrVk08MuFuIX/uTlw22ZP4Tooi1HqW9dKWYVvJHW6Wkk7aX0a/LXaabiheNo+egGphbwSFuoziC6eNz2gdc/FJZA0DU4lacpqWzg+XnHrL8+dhR0mXNljMNRl6E+wzH6n7rc97z60iG2UJ2lpYu2ig/jtlyFAqlUjecHPD/vmPXXx46CLnOujEvhDHqRh8dn3zK/q+gwbsOWI3mkk+tCBV3hi5VaQIs0lqgpq/juUS60eFznqH/qdrH2eY7x3m6iw7gN03k08/rRlVS2rnTvAsiF0aSOAxvf4vktxZXwJb81pNKrzUv8c+mNn2kMDRFiLXSyeJ20h3US3bQ2hGk7bzmC2IZxm5y4rhxdGVHFKMTf+nroeB7WT8fVxzUlPmvx0luTV3EcuhbsgwaArg3WRPFMe7J+63vdWjp0pdFWcSW4FLpSUsdL0fG9NGy4h42TIxdv6fhSmA63x22Y938Rw/oetsz37nIbiA53hAB7dxq3YQlkmEVtRVdyC7x0vc8euTBBpyH/e1j/JcQ/Fc+GazyfWVyIjyYb8y3z6HJxjbd3vRtFFxcA4zbeKo4NlWrafi5mFXomjlCGKtArUYOBMsfjPdjZRRds/Iqf6kpDJd9FB45QhlKiOoP46JpivDffMr/eVohuUjr6/vHtlBCbcxJ7oSvLQ/uk/HV64mOPaWx8wfMFOT8bVopOYy1eumD0QZdL4pu/dXSdrW7pprdTUuvGk4Tzt2re8Vuiax0MXS5mu1u3zC+Ibt5/j2+nxFf8WGxOAXdmdmfeKD3rQdLm9GmWi2fl01uo6qy4pUOzim8k8aMratV0IXriVYDg+XvU+qZI+dr/rxk5T+7ZSAt4dj5toSqbZCyKDs1o2CpOTSsvgaQrfy0l6dTm1aJcOaQ8Obx4KWw8/bkUm2YtJeno/MZHatTyYbxXur6nRDdfg8F0mR9dqf1tS4VaQ6s0dYXoNO1xQce1LPmsDQOStsbz86jxXcLLeyl9icN+eniFBok+v/b2Zwf1wPyWbxAdAmVxV20VR+uGhCvHbmOhnLCe6ArR+dvjGh3f8/fCt6DT1ni+KdDCCF54CWvzBjpuHJ90Qq0e1mrj8d6kLVjUvaIr5S1HmCTgmZwITj2gF+YZ+viF89G+mjBlH7p3gP8Bjg9lYz+Vhk1P8sih/ZfiWF9hydcLz6HjcnxcD66DFwJSH1QPa9IHUfrqs/XLEfmjjFQ2PFKLv6UWLBIdC46UOkvEIIWqLdgig8g5XYgJZaHCo9XFc1w8XvvM3/4BL9c8e+s1Li8/ARn8WISUTigXpTWkq8sbwky+hhrfXUC9YOxEA3esHGALOuoAdYE6Qd3wigImeeQXlRtxdVoGfa6C57cEWl0dn//SDYFrZ23sXjE75TtGXawUkrhk0IqQHuVPY0hMyVGh3p1iDQNYfOOdX1gNAfIYNE63tsw1vl2BaOicsHKw9EWbcUfPID7EXeqCdb1sOWcvHYCyxLtXVEuHAO5WnQSBl6Dg+dcS0gkVPH/YXG7YEcstNlo+aTWd/HrTpH4gOGq94/GRHZzH4yUYbkBu9Ts/JdLnmDxXug72+xmj6DB54FbCRCpKOIP2T6XBdyMqeFbAsnWfySZ/fBeAv+wz3PE6v0MjZcVfKrttJUoN5+9dzy3o62evYZIWorPhS+g4qXRYdNQMozudrFZwYtOdj9aSu1wMtlV+FwFdi2mHx7q64C1mDYWnr5+9hh7sUyu62kxKsGlyunRHQxyTrRUcDHHjNUce51AeXt6aXBmBPo81eGmCmS91jVjpn2zehZYaL31Rem4+DbHnJOCGXxSdF3EJrxAaL44Grdyb3/zaUJI+xrPcTmMc75yA57sEx6P6WPtc09obX/+LMLE41xBjTfdaQk0F64si8dC99jbMzsexoynTsUD5Xmy2ZRxDjHBd0+dtr0cqLIWNI3DYIUVHTT+WA/aw6BwPKL5Qjy+6a1tbjB9l8iK6f87R9ciEpbBxdLyi7jV3R3SBCoUlkv4WxkWoALxQUJchV3mltEiDoZsQK/ktjce0WEJpfG1T5yzHOexZkejiBASdECfm+NTC6ewmOkwswuSCd83Qudrz0Odnw3oS5bmT6KI8TVn0Z00uTorCli7OSJgl5vjUIoXas6WTv/wa2YfH0TivxzmWEOV5baIra+n26165ULuJLjYMsPl55Tij3e+8s+wkut0oEZ1VqsZNdCVjmmcRXehmxxktBtkbJxa6nlIs+XFanUXn5WvR51VKMo1S0enEejEW7oyig/F5m40Os4ozSHjOZzU7i87m3+KcojS2TCS6cabuVRs/IMcCKspDLR5av1zlywUTPJ/VnFl0zdm6TucVVJ+ADSvi7KILrd6zL39y001n62FVXYDOonPzTLD2HKI6aLk4HCXshBdzdtFNz2lxsbEXT59Ts/MsgPPYSXT6vErQ5fSwPmO8lt2rJGozq+YA3au2eEbb8DwL4DwuWHTWjz8fafYKOM3DiC60dtipzPvwTFeUq4vU8Rw6ThRvJ9FpZmUoRMdLprH3REIKopn5Haylg2HbN18kmlQUnUNLOotul3Mgxnzuois3bC2SGW22/K3ZWXQ9z4nTru1evYSac0jRhUdl/GMqspRSSWk9znw6i07nDZbKt5myli7f75cUUvtqPN+jtnRi/JNRwzNa75wEOR/9v8Xz12H8/04tnYcuSypM+9hjQhSvZfcaJZw4bsMsHH5w0cF4y3enXcczdm7pesLXd0tLZ0kJSx+3YRYOvwDRYRcvz2j3uHBXJDqmx0SiRFxZLkB0MK6fPVq7CxfdTA9lTyTaFkwKMSvMEHYZogtreDyjpTrinSnOuQn6/FKM5z/4juwsOlsujfUVany7fUciR65w/Lm56N7lb/m3tWlXCn+XNLHd3Z6jPS7ocPl/5OCi8/yA58vQ9d1ddIt0EB2+btjq21SehRntk8XdKKvYWXRLWHFptI+OE1GzTucmsILFtDp0rxj0j9+okl3qjU1mtHYpxT3HGg4mus3UiK6mIr04JXD8DqKT14fhexDBpu6xlaElDW8pDd+eD+O8/EW15+/RW3RensArr+D5l7JadMArjOD5l8Dxe4kOW9CfPt88bW0YO/KMFgybP23daLw6sJxLdGBtmXNUr9N5iQBdqCUW/XuJDmnjew806MfO4F7GM1o6B9kcMDs/Q6oex2OdRafz1PmO+ZvwFDaeRod3WacrQRdoLIyE92zpIDpUNE3bcX5tDV126La9GS2YnWsJ1GruPabT1yWHF3eRmxOd5DEIsMVPDKWMf2bUbA6YnWsJO7d0QF+XHF7cRWq711ZkC76H6ABVOo6vfcNn3kKLx+/Co0qO8iWy5285g+i6UiI6XUEaN8EWdBWdqmR0tQ9P+AIEm74bsd1COhA05514XJarz/H4lYhuPJ+1ovMSbcZOohuXNGh81zo/bfzC8GE2G50nkavPMeyKWjo+n5oxXa6CPMTfxllMY0/RycSi24w2rERP7/tdcZHPKDp9DeW62WMaG9+lRnRCSWa5sBzs31N0JDJbrvF/avHGl0h3eGqBisbEIrd259bXAVo6qTON51fEGtH1YjyRHVo6W2ksBOoC8Xea0bYa302G85Ihi85fcI/vKDrknyrbEhJ3Mf5ddAa6EPiea58ZbTAICOeYGuPNPu8kOuQl6DKUUhy/diKBSPazkDqew42z05guCeX/0uc+OsQk46623awWgpZntG7+Cq6XnUTXi5kezrGJc5Ezi467Wjpv/N5WsPYDPJ7ROi2dEF2ozqKbicKA8BK8uC7n2MS5yLlbOvGhGa2tnG0mrWX4y/VLF2Cxm+38GGxJMFpYOby4Fvaj61vcvXqJdOHsohuAGGi2ieWOXobKF+F5s1qu9wvsXkUzHoUTiXTB3EQL/DyfkYOIjkUA4VFL03O7O84V9eyJjjmw6Iqup2Xt7LU6oxqO0tKRLwuBRPeeV1/qut1dXrI95q273M6i63otPdaIbpW6aziM6BRUJlyoXha9ZJsEF9Xv1Ylu40RiqwBtXP58RNEBqotpRtvSQleLllRa1j1buugcCbmmW65rllaz1xaFHNM4qugATSymCmu1djfZWOdnFF13Wj2REMFsEd4liI7LR8Jb+0O/JYYLEu06vosuRgtN/pfPq+kpumG8ZNH5e+EC+6AVojK2n9FOFr1k+4yi8+oghRffZeuSSReO3L0SXMF0wfBd2jCjRTfb/qkFz2ipLs4tOu94iiIBtupem3L07lX+0oA//vXt1vZumNHSwPuSROcdjygRHRIS3EQq0em5aZ5JdLZcQs4HgvjIlz4+5NLe0JKiPnqKzp6jJhcmRPXhhM+oER0i6AwsOuHU8SJ6ii4xpgO6DF64BX68xEF1hNfCTtZ2Vvs33/oGiyRYm7RLRZfD1kcpVd3rLLIqgBeusb45/z1E55VBl02zFM4TC5rRTr+x3358FyYt7cRsRefhnivh+dZw86LT5dDHNLkwMIY/POFX/0/WSiQiYqTXp6XzsOcpeL41VItOZy7HxsRMmCbl58brJTqM5xzRAbcctdDEApsz8WMnwdq3eK1Miw5ll2uzVA/aL+dr/TSFosvPcIRZ4o5PETuLzpZ7C2jtMKOdtru36xJbmhVdTX2U+qWoaumWmCXu+BTRuXvVedkyb4XT7TyjbWFXI7pSxsydMKan6FQlRxWh89/AmB5NLOIZ7bGMX3cB0ZmbcBdadq/N2El0faF8nj6nZrTHsgsQnRPRIdVyeMcsUdzOotN5jXkulEnj+Wrgg/U79qULi3W2o9kouuEm1OfH5TbntIZkenuKzh73wtmn85jO5sd5LpRJY301M1/KD89opxntMUy3dLbMXG7n3IQSH5BMj65vE9GVFmQJTuPg3aucq8X6jJ9pRvuB1z9EpTjOTFa3dF7ZNTqsCWWi85tgzVJ4DefoXnNEFebgxdGwHwkPr/2f7LwCXGrpelLVvXoJCCWVX8qliQ548YAOx1IK9skFO4DoMsONnmwe07mJOn6anA+HnaF7LSn3dijvp893fcl2qdmJRI6lukG4xfMbKRGdl6iHTjh3XH922Ul0uow1RGVV2DAbL4RT/tTiffXf5SXb53lUprtXXWYP7zyA5+sxi1fa0tmIHqmM7HH92aWj6HT+uow1RGVV2HAdB4zLKHSh8f80o92/q90qOs8vxSxuyyUTwWai8fxn9BId0i4Yw+iy5MK9MI1OR/zHz3TB8bNOPV9JlrMtolsKt1j/bt0ryIWlYN+eoisYwwBd9h6Ebva95mej9utqPdF55RR03ZTgpSFUt3ReIoL2y+HF1fQUnZcfKC2bUOOrkXyki8WrJKZzPYPoSPy6bLqs+rjghS+h4zNlomt7N3hxNb3HdB4l5RJKz8Mi8UaklYm+wL2PpUQHdJn1cS9sCR13pMeYbjNUqF6ic/NrxGJlJ0FXq16yzdZ3cqFFhzLospeW38bReP4j1KgUj+ls5Fwm3rFiXnnf6YNf+NhQiu3G36hCq0KkyptC/EviWd8auHwkgukl2327WjwPHlvaivPI+dowQfuwX4novIRAlJATZo+V8yJv+95uobXAmpjcPH5+afQ5LsW3vqVwfAiAbja8kizeddyyxQtCxlINunTkyePKivPI+dowQfuw39budUzICROiDJ1wF6qU+EsuayxU8rO3XuO7qyr/hlTlS+Vs/R3XyYKA+RcaKR/k55VNrlW3+qoRnS5MSaFq/QX2e3iysYsNFTy+fisznrNl1Hj+LUilz8eozvELipO1a+1QH7mudQkpt4fn79JyIuEVROPFScFCiQbXJRUPHxkLBX98V2GplastWwn6vAXPzzL6Ur3H37NYK7w4Hm5kaeX2JKqHvUTn+RdBd2T925GC8F57+7N8gkt39abyJbDnL3i+HuxLrT2eWkznr2+qeuPfn6Ub2cuvN1Ed1IqupuJyjAVwwiKoW0SrV/s+uPDL0viBXwhuXVeyFTlHi+frMQ4LHh6zYMIbouoNEwf8GAsEFyYO+9SHd+5gVUvnJmR8tF8uzMP6cSVRhaHil36JGuLELt0gOJ3GlOZadBlbpWmx6Y6f0WIT6B7xZZ+S7e+oK37PHdbj8EpZpJNo9fV5CZ5fKV4642fSlN3eNYgu/JwQDzp5EdFPcExIhVs/Lwzo+BrPl4WHinv6HL8+C4vH6D4BWjVcDC4rxEZ+4Y720llHeTm3odN180IdoCGgmxD1gPOGsFAHADN1HOOfgUJdUBddMmnQeWk83xK8+OEzlYXKZBuPsaWDjb9TOghPEvMSzKF91yPrSlRwDIYFVCyVD2GA86OKtmVYQvKxx+xnj1yYoNOQ/z2svz02/oWYIEJuBWmsxvXwZLrhBrGNvkMaGpu+PqaP62MaHU/7ecdZQ3Qj4OYINk1yItHBsF7G3wgfxkjjhTcJ55DCWDzfZcrzrsmv1O/ItCp7i3qQRoA/U8OFljk1Np+JTgxjifDrffiRjTrRATkRjefXktr8Sv1qWJvemnityt4kHbSuw3KVnThYS4guNIUY5+F1CdxUollfIT4NCpTDi3MkvDJ7eHGXsPH1Zzl2BNzyQB8kuPms21/ySbZ02pAQL7zi1fPDskZNt1taeSV+JT6WGt8SdBmW0q7J26YreL7nQ2+koOtPmsASTc1jzCLRiSFhfhkzxnvUnEJ4XqVIoVpSkr710Z/1cUsuPBdPk0tD0D4Wz/+ohJWF53n4teb9LVWiE8O6S1heoRmU09p5Bd1KSfrWR3/Wxy258Fw8TS4NQftYPP9z45VLxm3TrBQmM9OyJygrRDeN98bFSCxloPJ4qp7ucrnQFcdvGbnINSylYcOFlJ/8z3+H5Rr8Xtq07jYtg9TYqpZOGwrAD5b5aQYJjoRnC78HkqfG8xNq/UupSUvnrfF8zwYakmcv8O7j7dvPgq0U3bwZxZoMj/cgPm7xnBPoyJqLV+tfQk1aOu+aeLtBwycMo1q/pWBzS2cNazQ8s314PE40SitU+2pSYTau9rNxtG8K7b8Ux/oKS75eeA4d1+KF2/glzOJjrE5Dpl5vF20sutACjuM9tHoYC2TGeUdkdhHOiC5L9/IMj67wxqmebyRoKLp54TDew3ZseZ4bKm0uwFxl1lS2+Hrk/L2wJXTaS3jxS7Hxa9IU32V/uiZ0jebjtvaCgzXvXj0bx3t4UO2M93KVUl5xsa8l52vDStDxl/Dil2Lj16S76DtMErDetufbpXYQ3TTpwNYkroBhrcetCEJXlsXzF1J+3ucW6DS34qUP1vp5RP4Y9lDvg21j0zfS9rFdWjrdTGOswI/U0OoN4z2ptNLK86iJKxVvyYXr+JYa3xbofEry1L7culFXikdXdp/bXraT6MSmVg/fBeBvnov4uNudd72lLFW8Ri6UpibcUuPbAp1PeZ6hK51vOeozbsvZzqKDQXjTieLZHb8GgrdQeZW1DrkYHp6/sBS+hpJ81yDpekS+JDYc+/Q7XxxqXQzXYmoI9rIziM433kKFuxGP1NRkY1aBnUleuAZsSVOXS+P5hh1A9D+WQJ6Fd8XsPW7L2QFEN91p4xYqdLnDEkuqYmuoTWNNviX+a85F4kiZPGwc/lYZjduwXBV/pXP/rtSzg7R0cWXgm2n4Diiv7zlLLLV4FypFrb/F5p3Di+9R4stpQmx0w863HMVDmnPbYbpXz1BxsoVq7DLujLDY6KYMjx3DF5aWtoofwQ4tOjF5KU7YQrW95bsqeL3tMW85OtK4LWcHF900u4rW9zBAjir/FoQYznHsSiG2Yb2t/lUc57WLaOm0jeM9iI8uBC6C3s2iL5Qc0+jwFF48i/XXn/XxNXhpyTnK4u7areJHsIsTndi4ZX5Yg/IuVu4iCkvhtUieLdMd08K4jSYLYcvRcSYGtXaxooNhDIM1KP56JHU38YU23VGCluIASG9bmvFQgdMaulIML0rea3J0u2DRTXf6uIVqeCsBLpae7YoQtohBp2Hx/LeAsnP5sQRC54SXBO2x5Wgvu3DRxetP4xYqPFKjsU8PQezCsLi795ajveyiu9dg87t+2jJPY6AGi8sg1arJ8TUC13FDfCorloVodo5xW7wEctmtm7YrEJ1vGPvweA/jIV7f8y98KbE45sdsWAlRvGG9Dd+sO9eWo73sCkVHLcL0OJfXsPgtVFhiQbflXPzzQq0blQ3LQFgOiu16WjdtV9vSBZsu2riFaljfGy/4TATr0C1d1IIZv0j41P3D5xrHbTm7ctHNjV+IjScaZgvVVrTI5H/5HIE8kTeJH9+Yu5RHVy3tpkQnFxhbqMa3j88eqcWkBOQKKnOcQV5Pn4/HbWoocCt2cy2dtnHLPJZYVLeXFY4iJUZBHl3xTPrl8HbKN7/5tSH327WbFp3YON4jYegu1wpqCS04jou0hnHbJWw52svuolPGW+bHJZbpRUAsIEdklsh/GDfO3k45bZy5WbuLzpjdQiVdZCQoIzbuPgfRcetG47ZL3HK0l91Fl7BoCxUJSYtNC3AUGpZfaGyIR1f4aYS7pe0uugXDGhqEpNf3RICj6IYnHvO3U4Ib70sdu4uuwLDUwuM9jNMw5uNHVsNa37MwbruGLUd72V10izY91cDaGl6jhTEciN8qfp2PrHrYXXSLNhcTWj7/ScJdeMt2Ov0/MPYlQnJH2DQAAAAASUVORK5CYII=;" vertex="1" parent="1">
          <mxGeometry x="110" y="247.5" width="35" height="35" as="geometry" />
        </mxCell>
        <mxCell id="jjM4XxSEG5LytGMmibBt-25" value="통합 관리자(프론트)" style="text;html=1;strokeColor=#82b366;fillColor=#d5e8d4;align=left;verticalAlign=middle;whiteSpace=wrap;rounded=0;" vertex="1" parent="1">
          <mxGeometry x="150" y="112.5" width="173" height="30" as="geometry" />
        </mxCell>
        <mxCell id="jjM4XxSEG5LytGMmibBt-26" value="&lt;strong style=&quot;box-sizing: border-box; color: rgb(23, 43, 77); font-family: -apple-system, BlinkMacSystemFont, &amp;quot;Segoe UI&amp;quot;, Roboto, Oxygen, Ubuntu, &amp;quot;Fira Sans&amp;quot;, &amp;quot;Droid Sans&amp;quot;, &amp;quot;Helvetica Neue&amp;quot;, sans-serif; font-size: 16px; letter-spacing: -0.08px; background-color: rgb(255, 255, 255);&quot; data-renderer-mark=&quot;true&quot;&gt;211.240.6.10&lt;/strong&gt;&lt;br&gt;&lt;strong style=&quot;box-sizing: border-box; color: rgb(23, 43, 77); font-family: -apple-system, BlinkMacSystemFont, &amp;quot;Segoe UI&amp;quot;, Roboto, Oxygen, Ubuntu, &amp;quot;Fira Sans&amp;quot;, &amp;quot;Droid Sans&amp;quot;, &amp;quot;Helvetica Neue&amp;quot;, sans-serif; font-size: 16px; letter-spacing: -0.08px; background-color: rgb(255, 255, 255);&quot; data-renderer-mark=&quot;true&quot;&gt;192.168.10.74&lt;/strong&gt;" style="text;html=1;strokeColor=none;fillColor=none;align=left;verticalAlign=middle;whiteSpace=wrap;rounded=0;" vertex="1" parent="1">
          <mxGeometry x="230" y="41.5" width="110" height="48" as="geometry" />
        </mxCell>
        <mxCell id="jjM4XxSEG5LytGMmibBt-31" value="Web Server (:80)" style="text;html=1;strokeColor=none;fillColor=none;align=left;verticalAlign=middle;whiteSpace=wrap;rounded=0;" vertex="1" parent="1">
          <mxGeometry x="150" y="250" width="173" height="30" as="geometry" />
        </mxCell>
        <mxCell id="jjM4XxSEG5LytGMmibBt-32" value="" style="shape=image;verticalLabelPosition=bottom;labelBackgroundColor=default;verticalAlign=top;aspect=fixed;imageAspect=0;image=data:image/png,iVBORw0KGgoAAAANSUhEUgAAAa8AAABVCAYAAAD+FWvKAAAAAXNSR0IArs4c6QAAAARnQU1BAACxjwv8YQUAAAAJcEhZcwAADsMAAA7DAcdvqGQAABIjSURBVHhe7Z2/q2bFGcf3TwhWVlaWNgGxEnuL7RZLwcJOCBbBWGwRLAKSxkIILAGxsMiCFpGEGDAYyK5BCCzEQpCIgkHQYsXCSIo3+3m982beuc/MPHPOmfPrfj/wZe/ee86c884783zn15lz7SCEEEJsDJmXEEKIzbEq8/r4/peHP//7n4fffvrXw68+/sPhZ//43eHZv79xEv9/+d7bx7/f/vyjw92vPz189f23F2cLIYS4KixmXt/99z9Ho8KMfvqXXx+u/f7nP+qPN9t0cc6NO7eOpoYBCiGE2DezmheGRY/p+t9+c2ZUP/nTL0crNTNMUUYmhBD7ZBbz+td3Xx+H/KY2rJKCkfHzW5/dvbgTIYQQe6CredHziXtZqcHMpWCYDCsKIYTYPl3Mi0UULLBY2rRSBRNj6FIIIcR2mdy86N2szbRScW8sEmE4UwghxPaYzLzobR1XDa7YtGIde2EPTJYl+UIIIbbFJObFkve197Zy4p6f+uC140pIIYQQ22C0edFzwbgsY9iKjr2wB9IwohBCbINR5nVclLHB3lZOmDC7dgghhFg3g83ruAR+R8YVhIExDCqEEGK9DDKvvRpXkAxMCCHWTbN57W2oMCcMTNtLCSHEOmkyr+PijCtgXEF8Vu1aL4QQ68NtXmE5vBXk96pg1EIIIdaFy7zofVw14wrCwNhUWIix3L9//+InIcRYXOa1pZ0zekgLOEQrGNWHH354eP311w/PPPPM4dq1a4dbt25d/FUIMZaqeR33KrzCxhVEHiy1CwdB8J133plU77777jHdL7744uIqYizk54svvnh45JFHjmaV6s0337w4UuT44YcfDrdv3z6VU35euox+88036jWvkKJ5XeXhwlRLDh++9NJLZjCcUvQOMDQxnJs3b5p5GyTzqoNRpPmGiS0BRvr000+f7uO55567+ItYA0XzuirL4r1aavl8LShOLQ1vDeOVV14x8zNI5lXHMq+lGlVhuDcW37FYB1nzIkir13UujJwHtOdmbvNCjz76qIYUG5F5jWdN5pXeB2JIWCwPveKsee19F42hWqL3tYR5Bd27d+/iLkQNmdd41m5eDCOKdWCaF7urq9dlC0O/cWfeYbUlzQupB+ZD5jWeNZnXe++9d+le1JhbD6Z5sTBBva68MPY5X5+ytHk9/PDDF3ciSsi8xrMm8wJWkL7wwgvHRVOffPLJxW/FGrhkXiwHl3GVRf7M+Qbmpc0LaRFHHZnXeNZmXmK9XDKv259/tHnzmuP+ucZceMwLmMT0iGdWGArkGZrcM0mWRBmZ13hkXsLLpYi09YUaDOnxYPXx546fg+vM9eJKr3kNxfsc2fvvv39xhrCQeY1H5iW8nEW945DhhhdqcO9vfXb3/5/lgXn1MjDSnWvosLd5AQ9gWunG4j7GQGBiwhsTREvv8EEvlHkM7iPcE/fHfQ5B5jUemZfwchb1jjvHb7TXhXEx5BnT28DQHMxhXlbQSDVkmTArtp5//nkzvVhPPPHEcR/A3maGWb366qvH59is+4jFRH1Lb7OHeZEnjz322OHxxx83xWIa5iPJtyeffPJw/fr1rEhrDJSR0jUoH2MN+iqZF40nvjc0tMF0lTmLelt9X5dlXAEM7HhMh8/Fded439cc5gWe+S8vBFTrfI8IhFOv7KJHFW/10yrPgpWpzQuTtdKJxTUDGJl1TKwxeO5nbBBek3lhKgypU/8QP2M4OShj6fEpYf/Lhx566NLnRDRIyOch+UidIW2ui/h5LDTe4s8Ul7cA+cTIDdeLNRbqHA3IkB7XiOPCWWne4u7xJeMK9DIw0ptjt3kKjVXQY02BtR1OqhpUTuu8IbIq/xCoAFb6Q1TqiU1pXrW0EEEuhvSt42K19CRTrPRiUX7GsibzwozSeylt0Gs9FxYgLU9vP1Zr+bfqXslsPaSN0NxjM1Z5JW4NhXKappca4lk0wgisIL1WeYwr0MPASGuOea+5zIuhOyvtoNrWOJ6Weau45tAdvQmEnt5Iq3JBZSrz8nzf1hAg+WQdG2uowWAgVnqxCJ5j2aN5jakX9NC85X8O88KAc1gjG+RJK1Y5Zug85RT1trarRotxBaY2MNJh8+LezGFeFHIr3VilwEdAt86ZSq3DKFYQnFIMbaZMYV6efCwNYXoW3gwJaMx1WWkFlYJaC3syL4wn931Sl6jXlBnmhGuNLI+BLW1euRjSWnetRrSVxinqsex7yl5JTw0xrsDUBsZQa2/mMC9P6zA34d+jx2XJWxE9RjyF0go11rwYFrHOi1UyLvAM2/J8XwvMM1jpxGpNM8eezCsVhkWaOcIcm3UuAb3G0uYFVllpadhYsS7Xoz9FPZaYb8G8xhhXYEoDI43e9DYv3pdkpZmKypXiCZaxaMETpPlMVGbrmJw414On9xErtIIJHN5FHVZLcIx5eeblvMOO1rmxPIEwxmOqU7FX82qZa8zVqVoDYQ3mBZTT+BxE3aphzXOl87oxp1K3hZWGUxhXYCoD455Iqye9zItWkmcZO8otk7eOtUQlyFUkgoTXNIZUYEtUwlyLDgiYuaEcy8RhqHl5voOWno2nJ5z7DCmeXiyfeyr2aF7xCjkvVjlmGLLEWswLrAZkaf7L+t5rjdVT1Hv53turNq8pjSswhYFxX72Xy3vMiy/aK5bjWmmUZFVAhhGtY2NR2D3j9eBJD5XgetY5sdJVSyVSQyoFoiHm5ekltr5JGGOy0onlfeYrDV6WrF7oUPZmXmPeAm3V+1L5W5N5gfU4QK6ssCAjPbZ276dIsOad5HsYV2CsgXFvvXeY95hXT+W67taxsei5tFYeT7DM9UI8vS6G51oJw6ql+QpoNS/PsOnQwF3rydZa8QErAMXiM0zJ3sxrDFZeUD9yrM28rEaUdb41z1era7B68+ppXIExBrZ388oFp9L4fpB3aCqlFtTpOVrUht+8AdvC07toMS9WK1rHxCoNs9Qg4FtpxqoFCE9jwBNkWpB5nZOOkpRGDdZmXmCVw/gzWHlWMuiYVZvXHMYVGGpgezYvhrRy1BYYcM9DsQJYKstMrONijTEDD17z8szvjXmYOGClG6s2iV5rRLQGMg8yr3PSXkmpTq7RvMDqWfGdkpfp71t68qfc/cXK5rzmNK7AEAPjPtcw5zW1cosLAtY5sYb2ugK1wJkGNOYCrONi9cZjXrXPhaYwLvCUmxyeBsRUy+NjZF7npPPA1vOFgbWaF1jz7NbzXC2cjl7TasMljCvQamDcK+f0ZE7zIgCXKihQIaxzY42FwGilG5TOw1mBI1ZLi24oNfPyiAA0FR5Dz/VGPSsWeyDzOmcv5mX1slK1NnhPucs7sNZgXksaV6DFwLjf3sxpXp7CXmuVT2EUVkWMlY7906uxjgsqPS8yFWPNqxSYhmKt4oqV+66sY2P1yk+Z1zl7MS8o1ekhvfhT7q7hdShrMK5Ai4H1xmNeFFIqVk783bMU3fMwYa1FP2RFX0rtGunYf1rJUnmXho9hip4Xi06mpGbqiPIRg1lYx8XCZHog8zpnT+YFVo9+aKPtlLsf3//yaB5WcJ5DazKuQM3A+D1vnu7NmLmLFOvcVLXuu7UENlZpUtmLFThipQZZC9JbMS/E9z0VBC/rGrHS+c3ac4BTfL85ZF7n7Mm8SmWRvG7llLsE6qXMa43GFSgZGL/b2q7ynpZ4LThRga3zgsa2zqDW+scoYmrHT9EbrFEzL/Leu5PIlGZbe4QgfvTAM082JNB4kXmdsyfz4t7jtFK13utZ7qbBeQ71MK4bd25Nunw9Z2D8fw7TndK8wDo/FUGshHVOrFIl92Atr42VjpHXemqoNx7zAs9LP1HaIxpKaa4hKPS2a49ATNEwKSHzOmcv5uVZAJTbgi7HWe7O/awXxjX1yxwZxuMzoN4Gxv33fsYLpjav2ko+VCtItVYUhX4MVpqxUnMtDUkE9ewxgNe8PPcaRECcAivtWAQXz331WB4fI/M6Zw/mZd0Xn8saLWlZCHSWu/Qi5jKvHj2uYFyna3Q2MP6dg6nNC6w0UlHocqSF2tLQiuOZO7Jg30br2CD+3hOveYEVpHMqfQ9e0iCYiq28uD/rb7F6I/M6Z6x5jR0BGWteXD8+H8UNY2tI21vez3KXh20xlRD8e6lnj+vStToaGD3VOehhXp7XoFhvLw14gm+pouWwKmAqTMLC06McssSbz+pZBdhiXlBb+BKrNoxbo8UscxqSd63IvM5pMS9rvnJsuRlrXtaDyGmj1to/02O6l3KXlytaJjCV5jSuoB4GRppTf44cPcwLapuuolLgYGGHdU6slpVpHuNCBLgc1vGpCAhe4gBWM7BW8wIr4OTU+hBnSm2ot6ZSvk+FzOucFvOyejljh+/T3niLeVlxizxNsRpxpYZz4FLu9nxYeQnjCprawOilYmJz0Mu8rDFnSzm8PQcKvFVoA7TEPEOFqPY6E89wJiIIlFqlfDaulZ5Xuv4Q8wKvaSNPizSHFVy9mmOHEpB5ndNiXpA2SMdsRg3pdmZe87LyomSk1qhJ7ZnTS7nba+hwSeMKmtrA5qKXeUHuhYuxckEX0spVEgWfAE9BZdiSwuzpvcXyzKN5V/MhWnjcE/eC+Ln2nFOuUg01L/AaC8FozCS8laZHpcbHlMi8zmk1L2tVX8tIQ4zVEPSYl/Udeho/1vxX6bs3c7fVFGpag3EFbdHAepqXN2iWAqb32aWx8gbQlrmkoeI7SRljXpAO0eTkGVLJUbtHS2Ou14rM65xW87LyD7XmoWVcyGNeHJOe58VqTOeGy81U73796WS9rzUZV9DWDKyneYFV2FLVJutbejtD1Fr52JndSmcqWY8SjDUv8PZkh66cHGLsvZfHx1jBl3zDNPhbL1ls0bwgVw75fQ3yIh0qjFUzL+s5wZZFI1b5JLZYZHOXhRtW4G/RGo0raEsG1tu8vIG+VHHpmdWWqg/V0FeEtMwltSi3W8cU5gWe7xsNnYeqDYummhOCp3UPvWWNLGzVvKD0HTNvy7A99YPPSP2ibJJ2emyaTsm8rHkrb5mPsdKxFn5lcxfTGdP7WrNxBW3FwHqbFzA0ZKUby7NprzXmPlRUlNyQgRfO9/QsvSr1QqYyL6jtdBE0ZNsrz2MSQXMsj4+ReZ0z1Lz4PJ46XRJDh6mR5MzL6jG1rDROsea/0vpTzN2hy+a3YFxBWzCwOczL20vxmAnHWK24Fg1psZUgPes6XmESpcAFU5oXlIZvYnmGg2IIbFY6lnJDar2QeZ0z1LwC3kZQKuIBpHNfOfOKj0FjVzmC9ShPPARZzN0hO81vybiC1m5gc5gXWA8UpmoZqqKgeYfAEPNI9Ap6QvreBSZUVIKHN4CHXieTzqn4/RBDJlhRia00g0ibINOC9RhAqjEt56EE8+IzzyWutxXzsuZaa1APPat66amlZdRjXiHtOD/HjphA6M3F3xUK31U1d1v2O9yicQVtoQe2ZSiIVG4qB0Ge3gIVk2EJgoQVPHrC9bguZsZ9cE/hfmh1zt3jmBtrXiEV+SP2RSjz1MMwLMic1xbLu6tp4DGPLRtXkAxMXBVqq0PnXB4vxBBc5lVbOr8H4wqSgYm941mw0Xv4VoixuAdleemiZSZ7Mq4gGZjYK2EeoSYh1k5TKU1NZY/GFcRnY8GKEHvBu6J0yMISIeamuYkVls/3MK6nPnhtFcaF+HxsUizE1ggT8exKgvh/ywPkQmyB5pLa63Uga+lxIYyLYVIhtojnkYechu5mIsTcrKKZtbYel4xLbJmh23QN2a1DiKVY3Lw0VCjEtAwxLy2NF1tjUfNam3Hd/vyjizsTYru0mhfGNfdD4kKMZTHzWotxcQ9IKwvFXmgxr9qbqYVYK4uY12qM60Fvi4Uic73OX4g58LzyhF27W96zJMTamN281mBcx96WhgnFTmHFIPs0sikyizAQe0ny/FbYLVyIrTOreS1tXMG0nv37G+ptCSHEhpnNvJY0rmBaDBFqbksIIbbPLObFA81HE3lgIHMaWNzTkmkJIcR+mHXYkN3pj+8HuzCxqY0spEn6bGPFM1tfff/txdWFEELshdkXbATojb187+0fTScys1ipOQVdOpbzH4hhQQxLO8ILIcS+Wcy8Ylg8Qa8M48HQbty5dew5WUbF75g/owfHNk6YoMxKCCGuFqswLyGEEKIFmZcQQojNIfMSQgixOWReQgghNsbh8D95BhWSUVMN1QAAAABJRU5ErkJggg==;" vertex="1" parent="1">
          <mxGeometry x="83" y="43" width="136.89" height="27" as="geometry" />
        </mxCell>
        <mxCell id="jjM4XxSEG5LytGMmibBt-33" value="&lt;strong style=&quot;box-sizing: border-box; color: rgb(23, 43, 77); font-family: -apple-system, BlinkMacSystemFont, &amp;quot;Segoe UI&amp;quot;, Roboto, Oxygen, Ubuntu, &amp;quot;Fira Sans&amp;quot;, &amp;quot;Droid Sans&amp;quot;, &amp;quot;Helvetica Neue&amp;quot;, sans-serif; font-size: 16px; letter-spacing: -0.08px; background-color: rgb(255, 255, 255);&quot; data-renderer-mark=&quot;true&quot;&gt;211.240.6.4&lt;/strong&gt;&lt;br&gt;&lt;strong style=&quot;box-sizing: border-box; color: rgb(23, 43, 77); font-family: -apple-system, BlinkMacSystemFont, &amp;quot;Segoe UI&amp;quot;, Roboto, Oxygen, Ubuntu, &amp;quot;Fira Sans&amp;quot;, &amp;quot;Droid Sans&amp;quot;, &amp;quot;Helvetica Neue&amp;quot;, sans-serif; font-size: 16px; letter-spacing: -0.08px; background-color: rgb(255, 255, 255);&quot; data-renderer-mark=&quot;true&quot;&gt;192.168.10.5&lt;/strong&gt;" style="text;html=1;strokeColor=none;fillColor=none;align=left;verticalAlign=middle;whiteSpace=wrap;rounded=0;" vertex="1" parent="1">
          <mxGeometry x="1071" y="44.5" width="109" height="48" as="geometry" />
        </mxCell>
        <mxCell id="jjM4XxSEG5LytGMmibBt-34" value="" style="shape=image;verticalLabelPosition=bottom;labelBackgroundColor=default;verticalAlign=top;imageAspect=0;image=data:image/png,iVBORw0KGgoAAAANSUhEUgAAAOEAAADhCAMAAAAJbSJIAAAAxlBMVEX///9BuIM1SV48t4Fow5gwRVtgbXxBu4Q1RF01Rl01R100QlxBvIQ2tX41tX0wtHv0+/im28Lq9/FAqn9BsYGw38k2TWDU7uLL6ts+lnih2b86cGs3VWM4XGUnPlU6dW1QvYw2UGFddX6T1LZ3yqQ/pX1Wv5CH0K44Zmi+5dPe8uk7gHE9kHY8inQ+nHp+jpa4xsdMZHGTpKnh6ehrg4oXNE7Q3NururxDXmzr8PAZQlQQM0zd5eWbrK88hHI5aml2lZc0N1r5XN90AAAJP0lEQVR4nO2daXvaOhSEMU6ujcEsJglZachSErJ2Sbqlae///1M3t0QpAtmesSVb5vH7uWArgjOHmSO30aipqampqampqampqakBmG4QnPwDcpfhTu7QNz9hbnnaGHVdGG/P38R4uKcXeP8Avre/5+G33B01GmddB8a7aDUhNj/0yQX2P2xib9268PAb7p69vHWE/3vHG+4E2H2MP5Ir/DjG3jjYGRIrdKL/33vAbOJVG72RT9QCP6F/uvYVs4WD+efjvYu/ZusQvJPNz9QKP4Of0eBwC79Z9/3rd+Wyh7/IuwY3sfnwSCzw8QF81/Y1sYW9S/H+G8QmekdosTkhVniClpkjYoHuxtv7z5hv4rkP/rnHX+AFfgHLTNM/Z76Fs79XmDJLPEA38es3cIHfvqJbeMAscLpwiegYf6GjXzFgpZgwSnEcLV5jQBSbzjOqGM0naIFPTVQpnjv4bfYG8lWYYrN1hCoGVmzQMhMcMUqxsXSVXUYx9lDFGCPt6T1aZtp7jFLsLl/nLMRf7cDt6VdghXCZuSDuMDxbuU7EbOIQlv10xfgCiz1TZnrR6pVOiU3svANFMZikKca3Cfil9t8RZSY8VVyqf8wUmwn4OR2n/Ra+A7+FrQlTZo6VP94umU28QTubzeT29BH8Ejb9G2ILu5fqqzGK4WhqT/GGlLi3FaUQjJhic6tFMXCluGXKzCjuelPic+odoMXme8IKv6Nl5gC/Myecxl4vCvHPqTf087encEPqE0rhhgqlEAyYTbyCi02cofEJLjOMdREOYi73B0oxdvIqBqwUO5RSJC2wcUn8UOxco9/EsVoxHsfot/Bag1IIzLSnH5TXwh1S4p4UDanMjHgz77aFFhtVe4paF0GLUQpnpriUxCljaKDtaXOy2kX1J+Br/XeMdaFqSJcuTPy5nC14E1cVA1aK1pC5JSBNoNzTG7Sz+bFsaDz9AF/ZvsnkkCbBWOAe+ttnxQKHTe4J45C+RxbY2GVWuAeW0+X2FG5IW4x14a5YF2oYxciYt5nJ0lKVQjBziPb0HLUCxz8XLvETLTNNwuR205VCsM90NlnyNiJLY7qZfXSBbN6Gtqd/iw1aZlqZsjQEM4rxlrfhWZp+pRBQigGHpsLQgE3uQ/1KIZgxmwjnba8TGvfoFlJZWg8uM3OYvK3zi8rb8CztF1Nm4q0LNUzeRk5o4FMXzBYeJ1gXaqi8DTU0gp2nxhP65/AZpVjO0gDMTGi8KMZndAuNKYXATN62+Rt1n3JmaQhGDI0mukC91oUaTjHQTURpU0pBl5k5jAXeQS1wEP+AydJYpRBweRtaIiECziHNUGbmbBvJ2xCoLC3czrrARp+b0ECLTTrk1EXmLTSlGOkUoBQCptg4aHuaSusXcdXMZWZOxPjDw7aeYhNQUxfdjEoh2DeStyXDZWm4daGmBMUoSikEVN4GGxpJtHVMXTCcmZjQSICbusjWkMqMGMsGztti4bI0N3bqgoEZB3PgvC0ObuoiPUtDiFxmQiPIt4lBwExdODmVQrDNdDboAHEM7Wemm8nekC7BKIaXSzGCHeZLeKxrgY1dRvbhvE0FlaWFuRpSGSN5m2qBRrI0BGpC4zyzYuieumDYZ9zTzIpBjQH38jakMuQAcbZNDDSMAWfHTN4mYzBLQ2AscAe1wOUtPCSuQGZpCGYGiKUt1DMGnB0jedsCZrM0BOpE9Dnd2ZjO0hC4CQ1WMagsjZi6YDAzofGKuakLBsY97cAnoue0mTHgfA5pEpShQbWnVJamxbpQYy5v47I0rQ2pjCnFKF8pBNQA8RCd6Xv5d7rHgLOzzWziM6oYPnOCuavNulBC5m3YJhaXpSHsMlENmLdRWVrXmFII9E9oFDF1waD/RHTuE8y6ofI2wNCgDozkztIQuCMnqb8xqCzNsFII9E5oFDV1QaHzRLSeE8y6GTHfxNvkTaQc0tCAdaGGmtBIHAfTdYJZN1zelmCBBy0mS3MLUAoBY4EnTWhQUxeaTe4UiHNDjhf7GyNoMlmaU+QCqWdoeLEnon3m4WuhdpM7GSpvi1EM6uFrBTSkMiP83uImNMgsrTClEDAnotV5G5WlASeYddNnHvGmak+5hlR3loZATWgo8jYuSyuoIZXJl7eVnaUh5BsgLnAMODuMYnSWDI3WBfOjqWilEHATGlKx4bI0vVMXDFTeJikGpxSFNqQSXN62MKHBTV2YytIQmAmNxbyNy9IKbkhlshkadloXaqi87W1Cg5u6KK3MzKHOt73mbVSWVqB1oSZifgvPB4iDgMjStI0BZ4c/EW36BLNu6LzNriwNgcrbXhSDem68+SwNgZvQ8C2ZumCg8rbzf4s4wawb6sjJHvFvNR0YyQ+VtzE/KYrJ0hCYCQ0Cw1MXFFR7ilJyQyozMrGJ3cId0iSYcTB0gWU3pDKR/o9pkVkaAmNoQJRoXcSgexPdshe0AnMiGkDHCWbdaFUMq5RCwJyITl+hVUohoCY0kindulBDtacpWNOQyjB5WyLlZGkIVN4WT0lZGgJjaCRgh3WhZkNHsQltVAoB8wTiOIinAZcBM6ERQwlTFwwRcyJavYVmjhbqI7di2KsUgpztqZUNqQxzIlq1hVY2pDLUkZNlSpu6YKDytiUsyNIQmAHiJYodA84MNaEhb2GZUxcMzISGvIUWWhdqqLxtYQurUGbmMBMai1todUMqk6k9tbwhlclmaFSkzMzJkLfZlKUh0IphsXWhhjY0bLYu1JDuqaUOaRIRucJKNKQyVN5mX5aGwGxiWPbNZoI431b0uTRdwIZGBawLNXDeZmeWhgBOaFg2dcGAGRoVsS7UDJBN7JY/BpwDwALX+DTgMgAmNGycumBIVYzKKoUg/XxbhawLNSmGRqWsCzUp/wmf7VkaQmLeZn+WhpBgaFTOulCTkLdVIUtDiM3bKpGlIcRNaFg+dcFwqv6c9qqvFAJ13laZLA1B2Z5WvSGVUeRtFcrSEBSKsS5KIVgxNCpocifTX/6YumtUZuYsGRrVti6UyIqxVkohkCY0qjN1wbDQnq5NQyozW1jh2jSkMm+GxhpYF2r64bzYuOEalpk5r08gLuppwGXwxz2tvEOaxO6fFVZu6oJhGq5fQyoTudadYNbNwIJH6hhmPRzSJNZWCmtqampqampqampqaqrNf0nu73u6pXLjAAAAAElFTkSuQmCC;" vertex="1" parent="1">
          <mxGeometry x="110" y="113" width="35" height="35" as="geometry" />
        </mxCell>
        <mxCell id="jjM4XxSEG5LytGMmibBt-37" value="" style="edgeStyle=elbowEdgeStyle;elbow=horizontal;endArrow=classic;html=1;curved=0;rounded=0;endSize=8;startSize=8;fillColor=#fad7ac;strokeColor=#b46504;exitX=0;exitY=0.5;exitDx=0;exitDy=0;entryX=0;entryY=0.5;entryDx=0;entryDy=0;" edge="1" parent="1" source="jjM4XxSEG5LytGMmibBt-10" target="jjM4XxSEG5LytGMmibBt-8">
          <mxGeometry width="50" height="50" relative="1" as="geometry">
            <mxPoint x="810" y="240" as="sourcePoint" />
            <mxPoint x="860" y="130" as="targetPoint" />
            <Array as="points">
              <mxPoint x="930" y="200" />
            </Array>
          </mxGeometry>
        </mxCell>
        <mxCell id="jjM4XxSEG5LytGMmibBt-38" value="" style="edgeStyle=elbowEdgeStyle;elbow=horizontal;endArrow=classic;html=1;curved=0;rounded=0;endSize=8;startSize=8;exitX=0;exitY=0.5;exitDx=0;exitDy=0;entryX=0;entryY=0.5;entryDx=0;entryDy=0;fillColor=#f8cecc;strokeColor=#b85450;" edge="1" parent="1" source="jjM4XxSEG5LytGMmibBt-23" target="jjM4XxSEG5LytGMmibBt-34">
          <mxGeometry width="50" height="50" relative="1" as="geometry">
            <mxPoint x="590" y="155" as="sourcePoint" />
            <mxPoint x="590" y="293" as="targetPoint" />
            <Array as="points">
              <mxPoint x="90" y="190" />
            </Array>
          </mxGeometry>
        </mxCell>
        <mxCell id="jjM4XxSEG5LytGMmibBt-39" value="" style="whiteSpace=wrap;html=1;aspect=fixed;" vertex="1" parent="1">
          <mxGeometry x="83" y="400" width="307" height="307" as="geometry" />
        </mxCell>
        <mxCell id="jjM4XxSEG5LytGMmibBt-42" value="&lt;strong style=&quot;box-sizing: border-box; color: rgb(23, 43, 77); font-family: -apple-system, BlinkMacSystemFont, &amp;quot;Segoe UI&amp;quot;, Roboto, Oxygen, Ubuntu, &amp;quot;Fira Sans&amp;quot;, &amp;quot;Droid Sans&amp;quot;, &amp;quot;Helvetica Neue&amp;quot;, sans-serif; font-size: 16px; letter-spacing: -0.08px; background-color: rgb(255, 255, 255);&quot; data-renderer-mark=&quot;true&quot;&gt;211.240.6.3&lt;/strong&gt;&lt;br&gt;&lt;strong style=&quot;box-sizing: border-box; color: rgb(23, 43, 77); font-family: -apple-system, BlinkMacSystemFont, &amp;quot;Segoe UI&amp;quot;, Roboto, Oxygen, Ubuntu, &amp;quot;Fira Sans&amp;quot;, &amp;quot;Droid Sans&amp;quot;, &amp;quot;Helvetica Neue&amp;quot;, sans-serif; font-size: 16px; letter-spacing: -0.08px; background-color: rgb(255, 255, 255);&quot; data-renderer-mark=&quot;true&quot;&gt;192.168.10.71&lt;/strong&gt;" style="text;html=1;strokeColor=none;fillColor=none;align=left;verticalAlign=middle;whiteSpace=wrap;rounded=0;" vertex="1" parent="1">
          <mxGeometry x="233" y="402" width="110" height="48" as="geometry" />
        </mxCell>
        <mxCell id="jjM4XxSEG5LytGMmibBt-44" value="" style="shape=image;verticalLabelPosition=bottom;labelBackgroundColor=default;verticalAlign=top;aspect=fixed;imageAspect=0;image=data:image/png,iVBORw0KGgoAAAANSUhEUgAAAa8AAABVCAYAAAD+FWvKAAAAAXNSR0IArs4c6QAAAARnQU1BAACxjwv8YQUAAAAJcEhZcwAADsMAAA7DAcdvqGQAABIjSURBVHhe7Z2/q2bFGcf3TwhWVlaWNgGxEnuL7RZLwcJOCBbBWGwRLAKSxkIILAGxsMiCFpGEGDAYyK5BCCzEQpCIgkHQYsXCSIo3+3m982beuc/MPHPOmfPrfj/wZe/ee86c884783zn15lz7SCEEEJsDJmXEEKIzbEq8/r4/peHP//7n4fffvrXw68+/sPhZ//43eHZv79xEv9/+d7bx7/f/vyjw92vPz189f23F2cLIYS4KixmXt/99z9Ho8KMfvqXXx+u/f7nP+qPN9t0cc6NO7eOpoYBCiGE2DezmheGRY/p+t9+c2ZUP/nTL0crNTNMUUYmhBD7ZBbz+td3Xx+H/KY2rJKCkfHzW5/dvbgTIYQQe6CredHziXtZqcHMpWCYDCsKIYTYPl3Mi0UULLBY2rRSBRNj6FIIIcR2mdy86N2szbRScW8sEmE4UwghxPaYzLzobR1XDa7YtGIde2EPTJYl+UIIIbbFJObFkve197Zy4p6f+uC140pIIYQQ22C0edFzwbgsY9iKjr2wB9IwohBCbINR5nVclLHB3lZOmDC7dgghhFg3g83ruAR+R8YVhIExDCqEEGK9DDKvvRpXkAxMCCHWTbN57W2oMCcMTNtLCSHEOmkyr+PijCtgXEF8Vu1aL4QQ68NtXmE5vBXk96pg1EIIIdaFy7zofVw14wrCwNhUWIix3L9//+InIcRYXOa1pZ0zekgLOEQrGNWHH354eP311w/PPPPM4dq1a4dbt25d/FUIMZaqeR33KrzCxhVEHiy1CwdB8J133plU77777jHdL7744uIqYizk54svvnh45JFHjmaV6s0337w4UuT44YcfDrdv3z6VU35euox+88036jWvkKJ5XeXhwlRLDh++9NJLZjCcUvQOMDQxnJs3b5p5GyTzqoNRpPmGiS0BRvr000+f7uO55567+ItYA0XzuirL4r1aavl8LShOLQ1vDeOVV14x8zNI5lXHMq+lGlVhuDcW37FYB1nzIkir13UujJwHtOdmbvNCjz76qIYUG5F5jWdN5pXeB2JIWCwPveKsee19F42hWqL3tYR5Bd27d+/iLkQNmdd41m5eDCOKdWCaF7urq9dlC0O/cWfeYbUlzQupB+ZD5jWeNZnXe++9d+le1JhbD6Z5sTBBva68MPY5X5+ytHk9/PDDF3ciSsi8xrMm8wJWkL7wwgvHRVOffPLJxW/FGrhkXiwHl3GVRf7M+Qbmpc0LaRFHHZnXeNZmXmK9XDKv259/tHnzmuP+ucZceMwLmMT0iGdWGArkGZrcM0mWRBmZ13hkXsLLpYi09YUaDOnxYPXx546fg+vM9eJKr3kNxfsc2fvvv39xhrCQeY1H5iW8nEW945DhhhdqcO9vfXb3/5/lgXn1MjDSnWvosLd5AQ9gWunG4j7GQGBiwhsTREvv8EEvlHkM7iPcE/fHfQ5B5jUemZfwchb1jjvHb7TXhXEx5BnT28DQHMxhXlbQSDVkmTArtp5//nkzvVhPPPHEcR/A3maGWb366qvH59is+4jFRH1Lb7OHeZEnjz322OHxxx83xWIa5iPJtyeffPJw/fr1rEhrDJSR0jUoH2MN+iqZF40nvjc0tMF0lTmLelt9X5dlXAEM7HhMh8/Fded439cc5gWe+S8vBFTrfI8IhFOv7KJHFW/10yrPgpWpzQuTtdKJxTUDGJl1TKwxeO5nbBBek3lhKgypU/8QP2M4OShj6fEpYf/Lhx566NLnRDRIyOch+UidIW2ui/h5LDTe4s8Ul7cA+cTIDdeLNRbqHA3IkB7XiOPCWWne4u7xJeMK9DIw0ptjt3kKjVXQY02BtR1OqhpUTuu8IbIq/xCoAFb6Q1TqiU1pXrW0EEEuhvSt42K19CRTrPRiUX7GsibzwozSeylt0Gs9FxYgLU9vP1Zr+bfqXslsPaSN0NxjM1Z5JW4NhXKappca4lk0wgisIL1WeYwr0MPASGuOea+5zIuhOyvtoNrWOJ6Weau45tAdvQmEnt5Iq3JBZSrz8nzf1hAg+WQdG2uowWAgVnqxCJ5j2aN5jakX9NC85X8O88KAc1gjG+RJK1Y5Zug85RT1trarRotxBaY2MNJh8+LezGFeFHIr3VilwEdAt86ZSq3DKFYQnFIMbaZMYV6efCwNYXoW3gwJaMx1WWkFlYJaC3syL4wn931Sl6jXlBnmhGuNLI+BLW1euRjSWnetRrSVxinqsex7yl5JTw0xrsDUBsZQa2/mMC9P6zA34d+jx2XJWxE9RjyF0go11rwYFrHOi1UyLvAM2/J8XwvMM1jpxGpNM8eezCsVhkWaOcIcm3UuAb3G0uYFVllpadhYsS7Xoz9FPZaYb8G8xhhXYEoDI43e9DYv3pdkpZmKypXiCZaxaMETpPlMVGbrmJw414On9xErtIIJHN5FHVZLcIx5eeblvMOO1rmxPIEwxmOqU7FX82qZa8zVqVoDYQ3mBZTT+BxE3aphzXOl87oxp1K3hZWGUxhXYCoD455Iqye9zItWkmcZO8otk7eOtUQlyFUkgoTXNIZUYEtUwlyLDgiYuaEcy8RhqHl5voOWno2nJ5z7DCmeXiyfeyr2aF7xCjkvVjlmGLLEWswLrAZkaf7L+t5rjdVT1Hv53turNq8pjSswhYFxX72Xy3vMiy/aK5bjWmmUZFVAhhGtY2NR2D3j9eBJD5XgetY5sdJVSyVSQyoFoiHm5ekltr5JGGOy0onlfeYrDV6WrF7oUPZmXmPeAm3V+1L5W5N5gfU4QK6ssCAjPbZ276dIsOad5HsYV2CsgXFvvXeY95hXT+W67taxsei5tFYeT7DM9UI8vS6G51oJw6ql+QpoNS/PsOnQwF3rydZa8QErAMXiM0zJ3sxrDFZeUD9yrM28rEaUdb41z1era7B68+ppXIExBrZ388oFp9L4fpB3aCqlFtTpOVrUht+8AdvC07toMS9WK1rHxCoNs9Qg4FtpxqoFCE9jwBNkWpB5nZOOkpRGDdZmXmCVw/gzWHlWMuiYVZvXHMYVGGpgezYvhrRy1BYYcM9DsQJYKstMrONijTEDD17z8szvjXmYOGClG6s2iV5rRLQGMg8yr3PSXkmpTq7RvMDqWfGdkpfp71t68qfc/cXK5rzmNK7AEAPjPtcw5zW1cosLAtY5sYb2ugK1wJkGNOYCrONi9cZjXrXPhaYwLvCUmxyeBsRUy+NjZF7npPPA1vOFgbWaF1jz7NbzXC2cjl7TasMljCvQamDcK+f0ZE7zIgCXKihQIaxzY42FwGilG5TOw1mBI1ZLi24oNfPyiAA0FR5Dz/VGPSsWeyDzOmcv5mX1slK1NnhPucs7sNZgXksaV6DFwLjf3sxpXp7CXmuVT2EUVkWMlY7906uxjgsqPS8yFWPNqxSYhmKt4oqV+66sY2P1yk+Z1zl7MS8o1ekhvfhT7q7hdShrMK5Ai4H1xmNeFFIqVk783bMU3fMwYa1FP2RFX0rtGunYf1rJUnmXho9hip4Xi06mpGbqiPIRg1lYx8XCZHog8zpnT+YFVo9+aKPtlLsf3//yaB5WcJ5DazKuQM3A+D1vnu7NmLmLFOvcVLXuu7UENlZpUtmLFThipQZZC9JbMS/E9z0VBC/rGrHS+c3ac4BTfL85ZF7n7Mm8SmWRvG7llLsE6qXMa43GFSgZGL/b2q7ynpZ4LThRga3zgsa2zqDW+scoYmrHT9EbrFEzL/Leu5PIlGZbe4QgfvTAM082JNB4kXmdsyfz4t7jtFK13utZ7qbBeQ71MK4bd25Nunw9Z2D8fw7TndK8wDo/FUGshHVOrFIl92Atr42VjpHXemqoNx7zAs9LP1HaIxpKaa4hKPS2a49ATNEwKSHzOmcv5uVZAJTbgi7HWe7O/awXxjX1yxwZxuMzoN4Gxv33fsYLpjav2ko+VCtItVYUhX4MVpqxUnMtDUkE9ewxgNe8PPcaRECcAivtWAQXz331WB4fI/M6Zw/mZd0Xn8saLWlZCHSWu/Qi5jKvHj2uYFyna3Q2MP6dg6nNC6w0UlHocqSF2tLQiuOZO7Jg30br2CD+3hOveYEVpHMqfQ9e0iCYiq28uD/rb7F6I/M6Z6x5jR0BGWteXD8+H8UNY2tI21vez3KXh20xlRD8e6lnj+vStToaGD3VOehhXp7XoFhvLw14gm+pouWwKmAqTMLC06McssSbz+pZBdhiXlBb+BKrNoxbo8UscxqSd63IvM5pMS9rvnJsuRlrXtaDyGmj1to/02O6l3KXlytaJjCV5jSuoB4GRppTf44cPcwLapuuolLgYGGHdU6slpVpHuNCBLgc1vGpCAhe4gBWM7BW8wIr4OTU+hBnSm2ot6ZSvk+FzOucFvOyejljh+/T3niLeVlxizxNsRpxpYZz4FLu9nxYeQnjCprawOilYmJz0Mu8rDFnSzm8PQcKvFVoA7TEPEOFqPY6E89wJiIIlFqlfDaulZ5Xuv4Q8wKvaSNPizSHFVy9mmOHEpB5ndNiXpA2SMdsRg3pdmZe87LyomSk1qhJ7ZnTS7nba+hwSeMKmtrA5qKXeUHuhYuxckEX0spVEgWfAE9BZdiSwuzpvcXyzKN5V/MhWnjcE/eC+Ln2nFOuUg01L/AaC8FozCS8laZHpcbHlMi8zmk1L2tVX8tIQ4zVEPSYl/Udeho/1vxX6bs3c7fVFGpag3EFbdHAepqXN2iWAqb32aWx8gbQlrmkoeI7SRljXpAO0eTkGVLJUbtHS2Ou14rM65xW87LyD7XmoWVcyGNeHJOe58VqTOeGy81U73796WS9rzUZV9DWDKyneYFV2FLVJutbejtD1Fr52JndSmcqWY8SjDUv8PZkh66cHGLsvZfHx1jBl3zDNPhbL1ls0bwgVw75fQ3yIh0qjFUzL+s5wZZFI1b5JLZYZHOXhRtW4G/RGo0raEsG1tu8vIG+VHHpmdWWqg/V0FeEtMwltSi3W8cU5gWe7xsNnYeqDYummhOCp3UPvWWNLGzVvKD0HTNvy7A99YPPSP2ibJJ2emyaTsm8rHkrb5mPsdKxFn5lcxfTGdP7WrNxBW3FwHqbFzA0ZKUby7NprzXmPlRUlNyQgRfO9/QsvSr1QqYyL6jtdBE0ZNsrz2MSQXMsj4+ReZ0z1Lz4PJ46XRJDh6mR5MzL6jG1rDROsea/0vpTzN2hy+a3YFxBWzCwOczL20vxmAnHWK24Fg1psZUgPes6XmESpcAFU5oXlIZvYnmGg2IIbFY6lnJDar2QeZ0z1LwC3kZQKuIBpHNfOfOKj0FjVzmC9ShPPARZzN0hO81vybiC1m5gc5gXWA8UpmoZqqKgeYfAEPNI9Ap6QvreBSZUVIKHN4CHXieTzqn4/RBDJlhRia00g0ibINOC9RhAqjEt56EE8+IzzyWutxXzsuZaa1APPat66amlZdRjXiHtOD/HjphA6M3F3xUK31U1d1v2O9yicQVtoQe2ZSiIVG4qB0Ge3gIVk2EJgoQVPHrC9bguZsZ9cE/hfmh1zt3jmBtrXiEV+SP2RSjz1MMwLMic1xbLu6tp4DGPLRtXkAxMXBVqq0PnXB4vxBBc5lVbOr8H4wqSgYm941mw0Xv4VoixuAdleemiZSZ7Mq4gGZjYK2EeoSYh1k5TKU1NZY/GFcRnY8GKEHvBu6J0yMISIeamuYkVls/3MK6nPnhtFcaF+HxsUizE1ggT8exKgvh/ywPkQmyB5pLa63Uga+lxIYyLYVIhtojnkYechu5mIsTcrKKZtbYel4xLbJmh23QN2a1DiKVY3Lw0VCjEtAwxLy2NF1tjUfNam3Hd/vyjizsTYru0mhfGNfdD4kKMZTHzWotxcQ9IKwvFXmgxr9qbqYVYK4uY12qM60Fvi4Uic73OX4g58LzyhF27W96zJMTamN281mBcx96WhgnFTmHFIPs0sikyizAQe0ny/FbYLVyIrTOreS1tXMG0nv37G+ptCSHEhpnNvJY0rmBaDBFqbksIIbbPLObFA81HE3lgIHMaWNzTkmkJIcR+mHXYkN3pj+8HuzCxqY0spEn6bGPFM1tfff/txdWFEELshdkXbATojb187+0fTScys1ipOQVdOpbzH4hhQQxLO8ILIcS+Wcy8Ylg8Qa8M48HQbty5dew5WUbF75g/owfHNk6YoMxKCCGuFqswLyGEEKIFmZcQQojNIfMSQgixOWReQgghNsbh8D95BhWSUVMN1QAAAABJRU5ErkJggg==;" vertex="1" parent="1">
          <mxGeometry x="86" y="403.5" width="136.89" height="27" as="geometry" />
        </mxCell>
        <mxCell id="jjM4XxSEG5LytGMmibBt-47" value="" style="whiteSpace=wrap;html=1;aspect=fixed;" vertex="1" parent="1">
          <mxGeometry x="480" y="41.5" width="260" height="260" as="geometry" />
        </mxCell>
        <mxCell id="jjM4XxSEG5LytGMmibBt-48" value="" style="shape=image;verticalLabelPosition=bottom;labelBackgroundColor=default;verticalAlign=top;imageAspect=0;image=data:image/png,iVBORw0KGgoAAAANSUhEUgAAAJ0AAACwCAYAAAAVFGw+AAAAAXNSR0IArs4c6QAAAARnQU1BAACxjwv8YQUAAAAJcEhZcwAADsMAAA7DAcdvqGQAAB2USURBVHhe7Z3N6zXJVccf8X9wNeAsHmQeEiQoOCjZClmIbgYENyqBLLKJm4iCi4AQN/I8488xoEyUIQwKISZk1ASDoiAzQRdRJBPDIAaJghGDAUHxZa7ne6pP96nTp6qruqv69n058OH3u12nXrr62/XWdfs+Ot2twt5VwOTv3WrsLroq80T2f8Pfu5XaXXSV9s//+a+n3337j5i/+/Y3hqN3q7G76BYttG7/9l//cfqVN3/z9OjX3jvx8vedPvKlj7MQJ5Pu9971puwuugJDq/Zdn/iR06NnJLRPvHh69Bs/PED/49iv/9Dp5b/81OAtdhddyu6im9k0Rvurb3319AOv/xS3aBAWhPbdr7xfiY5gEUJ8L5y+57d+9PTG3//ZEPtuKbuLbrRJbOguf/aNnz89evr86dHDD44CQ2uXgwVIcX7i9z9sxnv3Vk/bXXTK/vv0P6dnX/7k6dEr75vERkJiQUnLpsSnj4HQCpLwEJ/GfL/4p7/KY8G7xXajopu3POgW0T0+engyisoTFtDh4qP/yv9IC39f/cpnKAdpSSXv2239bl50X/mXr3N3yF0ptVIimkg8BuujseHc8tGY8Pt/58dPf/wPbw253nZ3e7Pd67f/9zu83MFiQ3dohFWDiC0Fd7vIg/J66XMfPb3znX8aSnGbdpOiw/IGL3VgrQ0tEQljSTg5dMvmpkPjwnHWO4gP4z2MIYNJy3cbTzduSnTo3njcBrHRxd8iNM2i6DyGMmAN8NbsJkSH5Qt0a7LeViqOnI+kUZKOZhbv4TGvBf75P/71UNrrt6sWHZYr0I1h4dYft82XQ0rQwkmRi6c/8/9YnqEbAmuD8SM1sivsca9LdOoCYZmCL+qwbJEiJZAcIp4lcnH0MfzPYz6UlbpdPOOdxnvXZ1fX0qGbwvIEui1vCcSihbGEjqPT0Fi/Jd8RPdkg8V3zI7ULFx1mfaF5wzLET37+58ISyPCctCeeiCxevHLC+h7Ge1hLjO2y1/kuvqXDelsYt4XZoH8Bt+OJSvD8LTW+AvvjnEh8H/zCx+bjvQu1CxTddJdjuYG7JBoHTRc0rLu1RkTj4flranwtYxyIj8Aa46WP9y5EdBDaJDZsOXr/7/1MmJVWdqVaAB4pf3vcotMoiZPz944xOFc65+/97R9zxnuX0+VekOjClqOf/vwvJR9d6YtVypZ4JZTGs36amT+WWJ4+xzfeJW6ZvwjRoTvhreLJ9baAd8GW2BKvhNJ41k/j+TPD+h6eIWNsO5lu9Y7XAh5MdJiJgqmiPv3OF0PFPzyeXQwP7+KkjoOS+BYbx+LFAZ6fPSbYuJqZH9b3SIDzLfPHtIOJbhIblgl43EZ3sqxfLV2MWwP1Ma7tAaorjPfiR2rHe6RxuO4V47YP/+Evh65Udu92mpFuQbc2HqX+1q+GEF89ysN2+aHLnW+ZP44dRnQYt/GWI1QeP7o6ntA0WjgpSnx1mrVk08MuFuIX/uTlw22ZP4Tooi1HqW9dKWYVvJHW6Wkk7aX0a/LXaabiheNo+egGphbwSFuoziC6eNz2gdc/FJZA0DU4lacpqWzg+XnHrL8+dhR0mXNljMNRl6E+wzH6n7rc97z60iG2UJ2lpYu2ig/jtlyFAqlUjecHPD/vmPXXx46CLnOujEvhDHqRh8dn3zK/q+gwbsOWI3mkk+tCBV3hi5VaQIs0lqgpq/juUS60eFznqH/qdrH2eY7x3m6iw7gN03k08/rRlVS2rnTvAsiF0aSOAxvf4vktxZXwJb81pNKrzUv8c+mNn2kMDRFiLXSyeJ20h3US3bQ2hGk7bzmC2IZxm5y4rhxdGVHFKMTf+nroeB7WT8fVxzUlPmvx0luTV3EcuhbsgwaArg3WRPFMe7J+63vdWjp0pdFWcSW4FLpSUsdL0fG9NGy4h42TIxdv6fhSmA63x22Y938Rw/oetsz37nIbiA53hAB7dxq3YQlkmEVtRVdyC7x0vc8euTBBpyH/e1j/JcQ/Fc+GazyfWVyIjyYb8y3z6HJxjbd3vRtFFxcA4zbeKo4NlWrafi5mFXomjlCGKtArUYOBMsfjPdjZRRds/Iqf6kpDJd9FB45QhlKiOoP46JpivDffMr/eVohuUjr6/vHtlBCbcxJ7oSvLQ/uk/HV64mOPaWx8wfMFOT8bVopOYy1eumD0QZdL4pu/dXSdrW7pprdTUuvGk4Tzt2re8Vuiax0MXS5mu1u3zC+Ibt5/j2+nxFf8WGxOAXdmdmfeKD3rQdLm9GmWi2fl01uo6qy4pUOzim8k8aMratV0IXriVYDg+XvU+qZI+dr/rxk5T+7ZSAt4dj5toSqbZCyKDs1o2CpOTSsvgaQrfy0l6dTm1aJcOaQ8Obx4KWw8/bkUm2YtJeno/MZHatTyYbxXur6nRDdfg8F0mR9dqf1tS4VaQ6s0dYXoNO1xQce1LPmsDQOStsbz86jxXcLLeyl9icN+eniFBok+v/b2Zwf1wPyWbxAdAmVxV20VR+uGhCvHbmOhnLCe6ArR+dvjGh3f8/fCt6DT1ni+KdDCCF54CWvzBjpuHJ90Qq0e1mrj8d6kLVjUvaIr5S1HmCTgmZwITj2gF+YZ+viF89G+mjBlH7p3gP8Bjg9lYz+Vhk1P8sih/ZfiWF9hydcLz6HjcnxcD66DFwJSH1QPa9IHUfrqs/XLEfmjjFQ2PFKLv6UWLBIdC46UOkvEIIWqLdgig8g5XYgJZaHCo9XFc1w8XvvM3/4BL9c8e+s1Li8/ARn8WISUTigXpTWkq8sbwky+hhrfXUC9YOxEA3esHGALOuoAdYE6Qd3wigImeeQXlRtxdVoGfa6C57cEWl0dn//SDYFrZ23sXjE75TtGXawUkrhk0IqQHuVPY0hMyVGh3p1iDQNYfOOdX1gNAfIYNE63tsw1vl2BaOicsHKw9EWbcUfPID7EXeqCdb1sOWcvHYCyxLtXVEuHAO5WnQSBl6Dg+dcS0gkVPH/YXG7YEcstNlo+aTWd/HrTpH4gOGq94/GRHZzH4yUYbkBu9Ts/JdLnmDxXug72+xmj6DB54FbCRCpKOIP2T6XBdyMqeFbAsnWfySZ/fBeAv+wz3PE6v0MjZcVfKrttJUoN5+9dzy3o62evYZIWorPhS+g4qXRYdNQMozudrFZwYtOdj9aSu1wMtlV+FwFdi2mHx7q64C1mDYWnr5+9hh7sUyu62kxKsGlyunRHQxyTrRUcDHHjNUce51AeXt6aXBmBPo81eGmCmS91jVjpn2zehZYaL31Rem4+DbHnJOCGXxSdF3EJrxAaL44Grdyb3/zaUJI+xrPcTmMc75yA57sEx6P6WPtc09obX/+LMLE41xBjTfdaQk0F64si8dC99jbMzsexoynTsUD5Xmy2ZRxDjHBd0+dtr0cqLIWNI3DYIUVHTT+WA/aw6BwPKL5Qjy+6a1tbjB9l8iK6f87R9ciEpbBxdLyi7jV3R3SBCoUlkv4WxkWoALxQUJchV3mltEiDoZsQK/ktjce0WEJpfG1T5yzHOexZkejiBASdECfm+NTC6ewmOkwswuSCd83Qudrz0Odnw3oS5bmT6KI8TVn0Z00uTorCli7OSJgl5vjUIoXas6WTv/wa2YfH0TivxzmWEOV5baIra+n26165ULuJLjYMsPl55Tij3e+8s+wkut0oEZ1VqsZNdCVjmmcRXehmxxktBtkbJxa6nlIs+XFanUXn5WvR51VKMo1S0enEejEW7oyig/F5m40Os4ozSHjOZzU7i87m3+KcojS2TCS6cabuVRs/IMcCKspDLR5av1zlywUTPJ/VnFl0zdm6TucVVJ+ADSvi7KILrd6zL39y001n62FVXYDOonPzTLD2HKI6aLk4HCXshBdzdtFNz2lxsbEXT59Ts/MsgPPYSXT6vErQ5fSwPmO8lt2rJGozq+YA3au2eEbb8DwL4DwuWHTWjz8fafYKOM3DiC60dtipzPvwTFeUq4vU8Rw6ThRvJ9FpZmUoRMdLprH3REIKopn5Haylg2HbN18kmlQUnUNLOotul3Mgxnzuois3bC2SGW22/K3ZWXQ9z4nTru1evYSac0jRhUdl/GMqspRSSWk9znw6i07nDZbKt5myli7f75cUUvtqPN+jtnRi/JNRwzNa75wEOR/9v8Xz12H8/04tnYcuSypM+9hjQhSvZfcaJZw4bsMsHH5w0cF4y3enXcczdm7pesLXd0tLZ0kJSx+3YRYOvwDRYRcvz2j3uHBXJDqmx0SiRFxZLkB0MK6fPVq7CxfdTA9lTyTaFkwKMSvMEHYZogtreDyjpTrinSnOuQn6/FKM5z/4juwsOlsujfUVany7fUciR65w/Lm56N7lb/m3tWlXCn+XNLHd3Z6jPS7ocPl/5OCi8/yA58vQ9d1ddIt0EB2+btjq21SehRntk8XdKKvYWXRLWHFptI+OE1GzTucmsILFtDp0rxj0j9+okl3qjU1mtHYpxT3HGg4mus3UiK6mIr04JXD8DqKT14fhexDBpu6xlaElDW8pDd+eD+O8/EW15+/RW3RensArr+D5l7JadMArjOD5l8Dxe4kOW9CfPt88bW0YO/KMFgybP23daLw6sJxLdGBtmXNUr9N5iQBdqCUW/XuJDmnjew806MfO4F7GM1o6B9kcMDs/Q6oex2OdRafz1PmO+ZvwFDaeRod3WacrQRdoLIyE92zpIDpUNE3bcX5tDV126La9GS2YnWsJ1GruPabT1yWHF3eRmxOd5DEIsMVPDKWMf2bUbA6YnWsJO7d0QF+XHF7cRWq711ZkC76H6ABVOo6vfcNn3kKLx+/Co0qO8iWy5285g+i6UiI6XUEaN8EWdBWdqmR0tQ9P+AIEm74bsd1COhA05514XJarz/H4lYhuPJ+1ovMSbcZOohuXNGh81zo/bfzC8GE2G50nkavPMeyKWjo+n5oxXa6CPMTfxllMY0/RycSi24w2rERP7/tdcZHPKDp9DeW62WMaG9+lRnRCSWa5sBzs31N0JDJbrvF/avHGl0h3eGqBisbEIrd259bXAVo6qTON51fEGtH1YjyRHVo6W2ksBOoC8Xea0bYa302G85Ihi85fcI/vKDrknyrbEhJ3Mf5ddAa6EPiea58ZbTAICOeYGuPNPu8kOuQl6DKUUhy/diKBSPazkDqew42z05guCeX/0uc+OsQk46623awWgpZntG7+Cq6XnUTXi5kezrGJc5Ezi467Wjpv/N5WsPYDPJ7ROi2dEF2ozqKbicKA8BK8uC7n2MS5yLlbOvGhGa2tnG0mrWX4y/VLF2Cxm+38GGxJMFpYOby4Fvaj61vcvXqJdOHsohuAGGi2ieWOXobKF+F5s1qu9wvsXkUzHoUTiXTB3EQL/DyfkYOIjkUA4VFL03O7O84V9eyJjjmw6Iqup2Xt7LU6oxqO0tKRLwuBRPeeV1/qut1dXrI95q273M6i63otPdaIbpW6aziM6BRUJlyoXha9ZJsEF9Xv1Ylu40RiqwBtXP58RNEBqotpRtvSQleLllRa1j1buugcCbmmW65rllaz1xaFHNM4qugATSymCmu1djfZWOdnFF13Wj2REMFsEd4liI7LR8Jb+0O/JYYLEu06vosuRgtN/pfPq+kpumG8ZNH5e+EC+6AVojK2n9FOFr1k+4yi8+oghRffZeuSSReO3L0SXMF0wfBd2jCjRTfb/qkFz2ipLs4tOu94iiIBtupem3L07lX+0oA//vXt1vZumNHSwPuSROcdjygRHRIS3EQq0em5aZ5JdLZcQs4HgvjIlz4+5NLe0JKiPnqKzp6jJhcmRPXhhM+oER0i6AwsOuHU8SJ6ii4xpgO6DF64BX68xEF1hNfCTtZ2Vvs33/oGiyRYm7RLRZfD1kcpVd3rLLIqgBeusb45/z1E55VBl02zFM4TC5rRTr+x3358FyYt7cRsRefhnivh+dZw86LT5dDHNLkwMIY/POFX/0/WSiQiYqTXp6XzsOcpeL41VItOZy7HxsRMmCbl58brJTqM5xzRAbcctdDEApsz8WMnwdq3eK1Miw5ll2uzVA/aL+dr/TSFosvPcIRZ4o5PETuLzpZ7C2jtMKOdtru36xJbmhVdTX2U+qWoaumWmCXu+BTRuXvVedkyb4XT7TyjbWFXI7pSxsydMKan6FQlRxWh89/AmB5NLOIZ7bGMX3cB0ZmbcBdadq/N2El0faF8nj6nZrTHsgsQnRPRIdVyeMcsUdzOotN5jXkulEnj+Wrgg/U79qULi3W2o9kouuEm1OfH5TbntIZkenuKzh73wtmn85jO5sd5LpRJY301M1/KD89opxntMUy3dLbMXG7n3IQSH5BMj65vE9GVFmQJTuPg3aucq8X6jJ9pRvuB1z9EpTjOTFa3dF7ZNTqsCWWi85tgzVJ4DefoXnNEFebgxdGwHwkPr/2f7LwCXGrpelLVvXoJCCWVX8qliQ548YAOx1IK9skFO4DoMsONnmwe07mJOn6anA+HnaF7LSn3dijvp893fcl2qdmJRI6lukG4xfMbKRGdl6iHTjh3XH922Ul0uow1RGVV2DAbL4RT/tTiffXf5SXb53lUprtXXWYP7zyA5+sxi1fa0tmIHqmM7HH92aWj6HT+uow1RGVV2HAdB4zLKHSh8f80o92/q90qOs8vxSxuyyUTwWai8fxn9BId0i4Yw+iy5MK9MI1OR/zHz3TB8bNOPV9JlrMtolsKt1j/bt0ryIWlYN+eoisYwwBd9h6Ebva95mej9utqPdF55RR03ZTgpSFUt3ReIoL2y+HF1fQUnZcfKC2bUOOrkXyki8WrJKZzPYPoSPy6bLqs+rjghS+h4zNlomt7N3hxNb3HdB4l5RJKz8Mi8UaklYm+wL2PpUQHdJn1cS9sCR13pMeYbjNUqF6ic/NrxGJlJ0FXq16yzdZ3cqFFhzLospeW38bReP4j1KgUj+ls5Fwm3rFiXnnf6YNf+NhQiu3G36hCq0KkyptC/EviWd8auHwkgukl2327WjwPHlvaivPI+dowQfuwX4novIRAlJATZo+V8yJv+95uobXAmpjcPH5+afQ5LsW3vqVwfAiAbja8kizeddyyxQtCxlINunTkyePKivPI+dowQfuw39budUzICROiDJ1wF6qU+EsuayxU8rO3XuO7qyr/hlTlS+Vs/R3XyYKA+RcaKR/k55VNrlW3+qoRnS5MSaFq/QX2e3iysYsNFTy+fisznrNl1Hj+LUilz8eozvELipO1a+1QH7mudQkpt4fn79JyIuEVROPFScFCiQbXJRUPHxkLBX98V2GplastWwn6vAXPzzL6Ur3H37NYK7w4Hm5kaeX2JKqHvUTn+RdBd2T925GC8F57+7N8gkt39abyJbDnL3i+HuxLrT2eWkznr2+qeuPfn6Ub2cuvN1Ed1IqupuJyjAVwwiKoW0SrV/s+uPDL0viBXwhuXVeyFTlHi+frMQ4LHh6zYMIbouoNEwf8GAsEFyYO+9SHd+5gVUvnJmR8tF8uzMP6cSVRhaHil36JGuLELt0gOJ3GlOZadBlbpWmx6Y6f0WIT6B7xZZ+S7e+oK37PHdbj8EpZpJNo9fV5CZ5fKV4642fSlN3eNYgu/JwQDzp5EdFPcExIhVs/Lwzo+BrPl4WHinv6HL8+C4vH6D4BWjVcDC4rxEZ+4Y720llHeTm3odN180IdoCGgmxD1gPOGsFAHADN1HOOfgUJdUBddMmnQeWk83xK8+OEzlYXKZBuPsaWDjb9TOghPEvMSzKF91yPrSlRwDIYFVCyVD2GA86OKtmVYQvKxx+xnj1yYoNOQ/z2svz02/oWYIEJuBWmsxvXwZLrhBrGNvkMaGpu+PqaP62MaHU/7ecdZQ3Qj4OYINk1yItHBsF7G3wgfxkjjhTcJ55DCWDzfZcrzrsmv1O/ItCp7i3qQRoA/U8OFljk1Np+JTgxjifDrffiRjTrRATkRjefXktr8Sv1qWJvemnityt4kHbSuw3KVnThYS4guNIUY5+F1CdxUollfIT4NCpTDi3MkvDJ7eHGXsPH1Zzl2BNzyQB8kuPms21/ySbZ02pAQL7zi1fPDskZNt1taeSV+JT6WGt8SdBmW0q7J26YreL7nQ2+koOtPmsASTc1jzCLRiSFhfhkzxnvUnEJ4XqVIoVpSkr710Z/1cUsuPBdPk0tD0D4Wz/+ohJWF53n4teb9LVWiE8O6S1heoRmU09p5Bd1KSfrWR3/Wxy258Fw8TS4NQftYPP9z45VLxm3TrBQmM9OyJygrRDeN98bFSCxloPJ4qp7ucrnQFcdvGbnINSylYcOFlJ/8z3+H5Rr8Xtq07jYtg9TYqpZOGwrAD5b5aQYJjoRnC78HkqfG8xNq/UupSUvnrfF8zwYakmcv8O7j7dvPgq0U3bwZxZoMj/cgPm7xnBPoyJqLV+tfQk1aOu+aeLtBwycMo1q/pWBzS2cNazQ8s314PE40SitU+2pSYTau9rNxtG8K7b8Ux/oKS75eeA4d1+KF2/glzOJjrE5Dpl5vF20sutACjuM9tHoYC2TGeUdkdhHOiC5L9/IMj67wxqmebyRoKLp54TDew3ZseZ4bKm0uwFxl1lS2+Hrk/L2wJXTaS3jxS7Hxa9IU32V/uiZ0jebjtvaCgzXvXj0bx3t4UO2M93KVUl5xsa8l52vDStDxl/Dil2Lj16S76DtMErDetufbpXYQ3TTpwNYkroBhrcetCEJXlsXzF1J+3ucW6DS34qUP1vp5RP4Y9lDvg21j0zfS9rFdWjrdTGOswI/U0OoN4z2ptNLK86iJKxVvyYXr+JYa3xbofEry1L7culFXikdXdp/bXraT6MSmVg/fBeBvnov4uNudd72lLFW8Ri6UpibcUuPbAp1PeZ6hK51vOeozbsvZzqKDQXjTieLZHb8GgrdQeZW1DrkYHp6/sBS+hpJ81yDpekS+JDYc+/Q7XxxqXQzXYmoI9rIziM433kKFuxGP1NRkY1aBnUleuAZsSVOXS+P5hh1A9D+WQJ6Fd8XsPW7L2QFEN91p4xYqdLnDEkuqYmuoTWNNviX+a85F4kiZPGwc/lYZjduwXBV/pXP/rtSzg7R0cWXgm2n4Diiv7zlLLLV4FypFrb/F5p3Di+9R4stpQmx0w863HMVDmnPbYbpXz1BxsoVq7DLujLDY6KYMjx3DF5aWtoofwQ4tOjF5KU7YQrW95bsqeL3tMW85OtK4LWcHF900u4rW9zBAjir/FoQYznHsSiG2Yb2t/lUc57WLaOm0jeM9iI8uBC6C3s2iL5Qc0+jwFF48i/XXn/XxNXhpyTnK4u7areJHsIsTndi4ZX5Yg/IuVu4iCkvhtUieLdMd08K4jSYLYcvRcSYGtXaxooNhDIM1KP56JHU38YU23VGCluIASG9bmvFQgdMaulIML0rea3J0u2DRTXf6uIVqeCsBLpae7YoQtohBp2Hx/LeAsnP5sQRC54SXBO2x5Wgvu3DRxetP4xYqPFKjsU8PQezCsLi795ajveyiu9dg87t+2jJPY6AGi8sg1arJ8TUC13FDfCorloVodo5xW7wEctmtm7YrEJ1vGPvweA/jIV7f8y98KbE45sdsWAlRvGG9Dd+sO9eWo73sCkVHLcL0OJfXsPgtVFhiQbflXPzzQq0blQ3LQFgOiu16WjdtV9vSBZsu2riFaljfGy/4TATr0C1d1IIZv0j41P3D5xrHbTm7ctHNjV+IjScaZgvVVrTI5H/5HIE8kTeJH9+Yu5RHVy3tpkQnFxhbqMa3j88eqcWkBOQKKnOcQV5Pn4/HbWoocCt2cy2dtnHLPJZYVLeXFY4iJUZBHl3xTPrl8HbKN7/5tSH327WbFp3YON4jYegu1wpqCS04jou0hnHbJWw52svuolPGW+bHJZbpRUAsIEdklsh/GDfO3k45bZy5WbuLzpjdQiVdZCQoIzbuPgfRcetG47ZL3HK0l91Fl7BoCxUJSYtNC3AUGpZfaGyIR1f4aYS7pe0uugXDGhqEpNf3RICj6IYnHvO3U4Ib70sdu4uuwLDUwuM9jNMw5uNHVsNa37MwbruGLUd72V10izY91cDaGl6jhTEciN8qfp2PrHrYXXSLNhcTWj7/ScJdeMt2Ov0/MPYlQnJH2DQAAAAASUVORK5CYII=;" vertex="1" parent="1">
          <mxGeometry x="510" y="249.5" width="35" height="35" as="geometry" />
        </mxCell>
        <mxCell id="jjM4XxSEG5LytGMmibBt-50" value="&lt;strong style=&quot;box-sizing: border-box; color: rgb(23, 43, 77); font-family: -apple-system, BlinkMacSystemFont, &amp;quot;Segoe UI&amp;quot;, Roboto, Oxygen, Ubuntu, &amp;quot;Fira Sans&amp;quot;, &amp;quot;Droid Sans&amp;quot;, &amp;quot;Helvetica Neue&amp;quot;, sans-serif; font-size: 16px; letter-spacing: -0.08px; background-color: rgb(255, 255, 255);&quot; data-renderer-mark=&quot;true&quot;&gt;211.240.6.11&lt;/strong&gt;&lt;br&gt;&lt;strong style=&quot;box-sizing: border-box; color: rgb(23, 43, 77); font-family: -apple-system, BlinkMacSystemFont, &amp;quot;Segoe UI&amp;quot;, Roboto, Oxygen, Ubuntu, &amp;quot;Fira Sans&amp;quot;, &amp;quot;Droid Sans&amp;quot;, &amp;quot;Helvetica Neue&amp;quot;, sans-serif; font-size: 16px; letter-spacing: -0.08px; background-color: rgb(255, 255, 255);&quot; data-renderer-mark=&quot;true&quot;&gt;192.168.10.75&lt;/strong&gt;" style="text;html=1;strokeColor=none;fillColor=none;align=left;verticalAlign=middle;whiteSpace=wrap;rounded=0;" vertex="1" parent="1">
          <mxGeometry x="630" y="43.5" width="110" height="48" as="geometry" />
        </mxCell>
        <mxCell id="jjM4XxSEG5LytGMmibBt-51" value="Web Server (:80)" style="text;html=1;strokeColor=none;fillColor=none;align=left;verticalAlign=middle;whiteSpace=wrap;rounded=0;" vertex="1" parent="1">
          <mxGeometry x="550" y="252" width="173" height="30" as="geometry" />
        </mxCell>
        <mxCell id="jjM4XxSEG5LytGMmibBt-52" value="" style="shape=image;verticalLabelPosition=bottom;labelBackgroundColor=default;verticalAlign=top;aspect=fixed;imageAspect=0;image=data:image/png,iVBORw0KGgoAAAANSUhEUgAAAa8AAABVCAYAAAD+FWvKAAAAAXNSR0IArs4c6QAAAARnQU1BAACxjwv8YQUAAAAJcEhZcwAADsMAAA7DAcdvqGQAABIjSURBVHhe7Z2/q2bFGcf3TwhWVlaWNgGxEnuL7RZLwcJOCBbBWGwRLAKSxkIILAGxsMiCFpGEGDAYyK5BCCzEQpCIgkHQYsXCSIo3+3m982beuc/MPHPOmfPrfj/wZe/ee86c884783zn15lz7SCEEEJsDJmXEEKIzbEq8/r4/peHP//7n4fffvrXw68+/sPhZ//43eHZv79xEv9/+d7bx7/f/vyjw92vPz189f23F2cLIYS4KixmXt/99z9Ho8KMfvqXXx+u/f7nP+qPN9t0cc6NO7eOpoYBCiGE2DezmheGRY/p+t9+c2ZUP/nTL0crNTNMUUYmhBD7ZBbz+td3Xx+H/KY2rJKCkfHzW5/dvbgTIYQQe6CredHziXtZqcHMpWCYDCsKIYTYPl3Mi0UULLBY2rRSBRNj6FIIIcR2mdy86N2szbRScW8sEmE4UwghxPaYzLzobR1XDa7YtGIde2EPTJYl+UIIIbbFJObFkve197Zy4p6f+uC140pIIYQQ22C0edFzwbgsY9iKjr2wB9IwohBCbINR5nVclLHB3lZOmDC7dgghhFg3g83ruAR+R8YVhIExDCqEEGK9DDKvvRpXkAxMCCHWTbN57W2oMCcMTNtLCSHEOmkyr+PijCtgXEF8Vu1aL4QQ68NtXmE5vBXk96pg1EIIIdaFy7zofVw14wrCwNhUWIix3L9//+InIcRYXOa1pZ0zekgLOEQrGNWHH354eP311w/PPPPM4dq1a4dbt25d/FUIMZaqeR33KrzCxhVEHiy1CwdB8J133plU77777jHdL7744uIqYizk54svvnh45JFHjmaV6s0337w4UuT44YcfDrdv3z6VU35euox+88036jWvkKJ5XeXhwlRLDh++9NJLZjCcUvQOMDQxnJs3b5p5GyTzqoNRpPmGiS0BRvr000+f7uO55567+ItYA0XzuirL4r1aavl8LShOLQ1vDeOVV14x8zNI5lXHMq+lGlVhuDcW37FYB1nzIkir13UujJwHtOdmbvNCjz76qIYUG5F5jWdN5pXeB2JIWCwPveKsee19F42hWqL3tYR5Bd27d+/iLkQNmdd41m5eDCOKdWCaF7urq9dlC0O/cWfeYbUlzQupB+ZD5jWeNZnXe++9d+le1JhbD6Z5sTBBva68MPY5X5+ytHk9/PDDF3ciSsi8xrMm8wJWkL7wwgvHRVOffPLJxW/FGrhkXiwHl3GVRf7M+Qbmpc0LaRFHHZnXeNZmXmK9XDKv259/tHnzmuP+ucZceMwLmMT0iGdWGArkGZrcM0mWRBmZ13hkXsLLpYi09YUaDOnxYPXx546fg+vM9eJKr3kNxfsc2fvvv39xhrCQeY1H5iW8nEW945DhhhdqcO9vfXb3/5/lgXn1MjDSnWvosLd5AQ9gWunG4j7GQGBiwhsTREvv8EEvlHkM7iPcE/fHfQ5B5jUemZfwchb1jjvHb7TXhXEx5BnT28DQHMxhXlbQSDVkmTArtp5//nkzvVhPPPHEcR/A3maGWb366qvH59is+4jFRH1Lb7OHeZEnjz322OHxxx83xWIa5iPJtyeffPJw/fr1rEhrDJSR0jUoH2MN+iqZF40nvjc0tMF0lTmLelt9X5dlXAEM7HhMh8/Fded439cc5gWe+S8vBFTrfI8IhFOv7KJHFW/10yrPgpWpzQuTtdKJxTUDGJl1TKwxeO5nbBBek3lhKgypU/8QP2M4OShj6fEpYf/Lhx566NLnRDRIyOch+UidIW2ui/h5LDTe4s8Ul7cA+cTIDdeLNRbqHA3IkB7XiOPCWWne4u7xJeMK9DIw0ptjt3kKjVXQY02BtR1OqhpUTuu8IbIq/xCoAFb6Q1TqiU1pXrW0EEEuhvSt42K19CRTrPRiUX7GsibzwozSeylt0Gs9FxYgLU9vP1Zr+bfqXslsPaSN0NxjM1Z5JW4NhXKappca4lk0wgisIL1WeYwr0MPASGuOea+5zIuhOyvtoNrWOJ6Weau45tAdvQmEnt5Iq3JBZSrz8nzf1hAg+WQdG2uowWAgVnqxCJ5j2aN5jakX9NC85X8O88KAc1gjG+RJK1Y5Zug85RT1trarRotxBaY2MNJh8+LezGFeFHIr3VilwEdAt86ZSq3DKFYQnFIMbaZMYV6efCwNYXoW3gwJaMx1WWkFlYJaC3syL4wn931Sl6jXlBnmhGuNLI+BLW1euRjSWnetRrSVxinqsex7yl5JTw0xrsDUBsZQa2/mMC9P6zA34d+jx2XJWxE9RjyF0go11rwYFrHOi1UyLvAM2/J8XwvMM1jpxGpNM8eezCsVhkWaOcIcm3UuAb3G0uYFVllpadhYsS7Xoz9FPZaYb8G8xhhXYEoDI43e9DYv3pdkpZmKypXiCZaxaMETpPlMVGbrmJw414On9xErtIIJHN5FHVZLcIx5eeblvMOO1rmxPIEwxmOqU7FX82qZa8zVqVoDYQ3mBZTT+BxE3aphzXOl87oxp1K3hZWGUxhXYCoD455Iqye9zItWkmcZO8otk7eOtUQlyFUkgoTXNIZUYEtUwlyLDgiYuaEcy8RhqHl5voOWno2nJ5z7DCmeXiyfeyr2aF7xCjkvVjlmGLLEWswLrAZkaf7L+t5rjdVT1Hv53turNq8pjSswhYFxX72Xy3vMiy/aK5bjWmmUZFVAhhGtY2NR2D3j9eBJD5XgetY5sdJVSyVSQyoFoiHm5ekltr5JGGOy0onlfeYrDV6WrF7oUPZmXmPeAm3V+1L5W5N5gfU4QK6ssCAjPbZ276dIsOad5HsYV2CsgXFvvXeY95hXT+W67taxsei5tFYeT7DM9UI8vS6G51oJw6ql+QpoNS/PsOnQwF3rydZa8QErAMXiM0zJ3sxrDFZeUD9yrM28rEaUdb41z1era7B68+ppXIExBrZ388oFp9L4fpB3aCqlFtTpOVrUht+8AdvC07toMS9WK1rHxCoNs9Qg4FtpxqoFCE9jwBNkWpB5nZOOkpRGDdZmXmCVw/gzWHlWMuiYVZvXHMYVGGpgezYvhrRy1BYYcM9DsQJYKstMrONijTEDD17z8szvjXmYOGClG6s2iV5rRLQGMg8yr3PSXkmpTq7RvMDqWfGdkpfp71t68qfc/cXK5rzmNK7AEAPjPtcw5zW1cosLAtY5sYb2ugK1wJkGNOYCrONi9cZjXrXPhaYwLvCUmxyeBsRUy+NjZF7npPPA1vOFgbWaF1jz7NbzXC2cjl7TasMljCvQamDcK+f0ZE7zIgCXKihQIaxzY42FwGilG5TOw1mBI1ZLi24oNfPyiAA0FR5Dz/VGPSsWeyDzOmcv5mX1slK1NnhPucs7sNZgXksaV6DFwLjf3sxpXp7CXmuVT2EUVkWMlY7906uxjgsqPS8yFWPNqxSYhmKt4oqV+66sY2P1yk+Z1zl7MS8o1ekhvfhT7q7hdShrMK5Ai4H1xmNeFFIqVk783bMU3fMwYa1FP2RFX0rtGunYf1rJUnmXho9hip4Xi06mpGbqiPIRg1lYx8XCZHog8zpnT+YFVo9+aKPtlLsf3//yaB5WcJ5DazKuQM3A+D1vnu7NmLmLFOvcVLXuu7UENlZpUtmLFThipQZZC9JbMS/E9z0VBC/rGrHS+c3ac4BTfL85ZF7n7Mm8SmWRvG7llLsE6qXMa43GFSgZGL/b2q7ynpZ4LThRga3zgsa2zqDW+scoYmrHT9EbrFEzL/Leu5PIlGZbe4QgfvTAM082JNB4kXmdsyfz4t7jtFK13utZ7qbBeQ71MK4bd25Nunw9Z2D8fw7TndK8wDo/FUGshHVOrFIl92Atr42VjpHXemqoNx7zAs9LP1HaIxpKaa4hKPS2a49ATNEwKSHzOmcv5uVZAJTbgi7HWe7O/awXxjX1yxwZxuMzoN4Gxv33fsYLpjav2ko+VCtItVYUhX4MVpqxUnMtDUkE9ewxgNe8PPcaRECcAivtWAQXz331WB4fI/M6Zw/mZd0Xn8saLWlZCHSWu/Qi5jKvHj2uYFyna3Q2MP6dg6nNC6w0UlHocqSF2tLQiuOZO7Jg30br2CD+3hOveYEVpHMqfQ9e0iCYiq28uD/rb7F6I/M6Z6x5jR0BGWteXD8+H8UNY2tI21vez3KXh20xlRD8e6lnj+vStToaGD3VOehhXp7XoFhvLw14gm+pouWwKmAqTMLC06McssSbz+pZBdhiXlBb+BKrNoxbo8UscxqSd63IvM5pMS9rvnJsuRlrXtaDyGmj1to/02O6l3KXlytaJjCV5jSuoB4GRppTf44cPcwLapuuolLgYGGHdU6slpVpHuNCBLgc1vGpCAhe4gBWM7BW8wIr4OTU+hBnSm2ot6ZSvk+FzOucFvOyejljh+/T3niLeVlxizxNsRpxpYZz4FLu9nxYeQnjCprawOilYmJz0Mu8rDFnSzm8PQcKvFVoA7TEPEOFqPY6E89wJiIIlFqlfDaulZ5Xuv4Q8wKvaSNPizSHFVy9mmOHEpB5ndNiXpA2SMdsRg3pdmZe87LyomSk1qhJ7ZnTS7nba+hwSeMKmtrA5qKXeUHuhYuxckEX0spVEgWfAE9BZdiSwuzpvcXyzKN5V/MhWnjcE/eC+Ln2nFOuUg01L/AaC8FozCS8laZHpcbHlMi8zmk1L2tVX8tIQ4zVEPSYl/Udeho/1vxX6bs3c7fVFGpag3EFbdHAepqXN2iWAqb32aWx8gbQlrmkoeI7SRljXpAO0eTkGVLJUbtHS2Ou14rM65xW87LyD7XmoWVcyGNeHJOe58VqTOeGy81U73796WS9rzUZV9DWDKyneYFV2FLVJutbejtD1Fr52JndSmcqWY8SjDUv8PZkh66cHGLsvZfHx1jBl3zDNPhbL1ls0bwgVw75fQ3yIh0qjFUzL+s5wZZFI1b5JLZYZHOXhRtW4G/RGo0raEsG1tu8vIG+VHHpmdWWqg/V0FeEtMwltSi3W8cU5gWe7xsNnYeqDYummhOCp3UPvWWNLGzVvKD0HTNvy7A99YPPSP2ibJJ2emyaTsm8rHkrb5mPsdKxFn5lcxfTGdP7WrNxBW3FwHqbFzA0ZKUby7NprzXmPlRUlNyQgRfO9/QsvSr1QqYyL6jtdBE0ZNsrz2MSQXMsj4+ReZ0z1Lz4PJ46XRJDh6mR5MzL6jG1rDROsea/0vpTzN2hy+a3YFxBWzCwOczL20vxmAnHWK24Fg1psZUgPes6XmESpcAFU5oXlIZvYnmGg2IIbFY6lnJDar2QeZ0z1LwC3kZQKuIBpHNfOfOKj0FjVzmC9ShPPARZzN0hO81vybiC1m5gc5gXWA8UpmoZqqKgeYfAEPNI9Ap6QvreBSZUVIKHN4CHXieTzqn4/RBDJlhRia00g0ibINOC9RhAqjEt56EE8+IzzyWutxXzsuZaa1APPat66amlZdRjXiHtOD/HjphA6M3F3xUK31U1d1v2O9yicQVtoQe2ZSiIVG4qB0Ge3gIVk2EJgoQVPHrC9bguZsZ9cE/hfmh1zt3jmBtrXiEV+SP2RSjz1MMwLMic1xbLu6tp4DGPLRtXkAxMXBVqq0PnXB4vxBBc5lVbOr8H4wqSgYm941mw0Xv4VoixuAdleemiZSZ7Mq4gGZjYK2EeoSYh1k5TKU1NZY/GFcRnY8GKEHvBu6J0yMISIeamuYkVls/3MK6nPnhtFcaF+HxsUizE1ggT8exKgvh/ywPkQmyB5pLa63Uga+lxIYyLYVIhtojnkYechu5mIsTcrKKZtbYel4xLbJmh23QN2a1DiKVY3Lw0VCjEtAwxLy2NF1tjUfNam3Hd/vyjizsTYru0mhfGNfdD4kKMZTHzWotxcQ9IKwvFXmgxr9qbqYVYK4uY12qM60Fvi4Uic73OX4g58LzyhF27W96zJMTamN281mBcx96WhgnFTmHFIPs0sikyizAQe0ny/FbYLVyIrTOreS1tXMG0nv37G+ptCSHEhpnNvJY0rmBaDBFqbksIIbbPLObFA81HE3lgIHMaWNzTkmkJIcR+mHXYkN3pj+8HuzCxqY0spEn6bGPFM1tfff/txdWFEELshdkXbATojb187+0fTScys1ipOQVdOpbzH4hhQQxLO8ILIcS+Wcy8Ylg8Qa8M48HQbty5dew5WUbF75g/owfHNk6YoMxKCCGuFqswLyGEEKIFmZcQQojNIfMSQgixOWReQgghNsbh8D95BhWSUVMN1QAAAABJRU5ErkJggg==;" vertex="1" parent="1">
          <mxGeometry x="483" y="45" width="136.89" height="27" as="geometry" />
        </mxCell>
        <mxCell id="jjM4XxSEG5LytGMmibBt-55" value="" style="shape=image;verticalLabelPosition=bottom;labelBackgroundColor=default;verticalAlign=top;imageAspect=0;image=data:image/png,iVBORw0KGgoAAAANSUhEUgAAAJwAAACNCAYAAABCMhNzAAAAAXNSR0IArs4c6QAAAARnQU1BAACxjwv8YQUAAAAJcEhZcwAADsMAAA7DAcdvqGQAAA+oSURBVHhe7d29q3VHFQZw/xB7C6s3jaBgJdaWaiMKARULtQtIKj8KCwtBC5EUqRQJr4kExagpRBIjguIHKgGjgiJC/ChCIHr1d86d63nPu885e+29Z9bse/cDD+/nOXtmzTNrrVkzs++brjZsaIhNcBuaYnWCe+XV31z96PffvvrWr568k/zub7++6/+f/vHytUXWhVUIjsi++tKnrz78zbddfeCpt1w9ev/e//jIHea9nR0+9sw7r7728y+uSnxdC44hv/DDj++Ehgy88f/86NPv2AnwI0+/fTch//zPV64t1y+6FNy///PG1f1ffmVn0E1o40h4n3j2Xbuw2zO6E9y/Xv/71Wd+8KFd2CC4IeNuHObe493bRYXX33jt2qJ9oSvBCQlm6ebV5pG3e+w779lN3t7QjeCIjZE2sS1Ddnz8ufd1J7ouBCdn+9zzj25iW5g83Zdf+NS1lftAF4KT6DLOkNE2ziO7/vgP37u2dD7SBcfl82zbAqEO2VVeLIr0gHTBqR9t3q0u2VeZqQekCs4OwgefeuugkTYuS+WSV1/767Xl85AmOC6+7CIMGWjjsmRn0SQbaYJ76Y/f37xbY7L37/72s+sRyEGK4FTB1dzsAQ4ZZmMd8nLKT5kLiBTBSWDlFENG2ViX7P78y/evR6I9mgvOjoKOb2WQHLL7J599d9oORHPBfemFx7aFQjKVSZyjy0BTwSmDlIODG3P5/m+8OaVM0lRwNpO3hUIfFGWUpVqjmeAkqlsZpC8aj1/85cXrEWqDJoKToCqD3IaFAg+Nt6UvDru2PKzZRHBrL4MQl0Tbr9ICg2RD3N+tfQHEy7Usk1QXnDKIgVqrRyAo4nLE57iUoGqvkLrmVMG4KJO0WkBUF9yaD1Zq9+PPvfdiyFFiWLPoeOpW+6xVBSchXWsoLTN/7NW7tZ9YJjplq9qoKjjeYa1lEAMQOUMmvK655GOytCiTVBPc2ssgBiB6o33tK3FF+dplkiqCk4DqwFqNr93EE02k136+r/S7ZpmkiuCe/OnndyFpqFMtOVXwUwU3Z5/YM6e2d0nKuWve3l9ccBLPzFzGoJX6mKRfW/w5MpitBFfa6vfaiv6cbb/IYimKxQWXGVbKcyX7hM9ofjVjGXFsu1oIrvw/r9+SK3qW9joJbbGVGSE8u1aZZFHBMVaWoYQCOwCnRCIvGVu6qC04/+dSfU9tL/NkjTbWKJMsKjihwGANdaAmrYbljZdggHm6S22sKTjfrQ1jvrtM4AybGks2WBqLCU5oaF3kNRAG5JlfP3Hdisvw9shLXrim4Dw7Wt+ztZaR15nI7LUkFhGcgWHo1jPR4BF6BPKkS16uruDuhUMV0WlPa9EVOyxZJllEcE/85LMXvcbSlN9MOeUw5qhUTcERTfR7gUjL54+/syZNkEgEuYTZgjP7Wu8oTBUbGOy1ebgCq1mCO9f2GtSnpcokswXXetOaJ51zAWTMSrqu4Oa13wRvvXrVJ31bArMENyYBX5KeNbfjYw4U1BSc7+Zh53iM/QKtbQqjX0vss04WnETS6qmVeycSIphzn3Lsm5pqCg79HyeHo99/CC8abCk69jdZ52Ky4PbHxtt1WJ4onEyBgRX6x5ZtagsO/T+c2icTvvXxL/abexx9kuAMRMs8gtimbigbUCFsrBCwheDQc/QtWtop0Lexk2gJaq/+zSmTTBKc0BQx7ByWUDrlBSxyjilF01aCQ88SKaaWHixAWkYaz5qz6AkLrvWs8qwpyarSg88a0KHvPceWgivU1ilenLfx+Sn9nEqim7roCQmu9dvGPcfzomAMXm3qIGQIDr1+QdkmCnlVSyegj/o6BSHBtT42TjTRY95lJ2FOMp0lOJQbTykMz+1zlHQwZXKMFpyBvFShX5IGbsrPGDDoc3OaTMERjWdHyz+ta6LaaZUcza1HC671sXHPis70fWiZ38ZMwaE+RA9A7sskbV8WpJ3RvHOU4Bi+ZRnEoDk5HJk9PILPLeGBswWHBjO6WDL4LXM5FFojZZJRgmt9bHxKfjB2F2EMexAcTyWFiUB7W+7+IJuPOfxacFFwZllL71aMFfFuFhZLtrEHwSFvFa3st6yRFkYWOmcFx1W6J9AyL2CsyIyBpY3ci+C0g5eLTD4OomUlAfV5bAp0VnAZx8YZK5K7EMVSobSwF8FhNL3gJFo6iEI6GdPOk4JrXQYp5J4jM7rGIYKeBBfxHgU12nGJpUxyaQFxUnCtj7+gRgvhY2FS1CgF9CQ45OUiW0mtdx4KPfPSBaFBwe33IduKDT0zsom939ddvp29CU4fI/Uu49c6jyvU/3N2GxRc62PjhZ4Zyd9qncnrTXC+U1gdC+G3ZWXhkNp6bofoIcG1LoMcMxI6TIwaCXJvgtMe+XSkPdrvc0PfV5vnyiQPCE7Cl9XQYtSxVeuaixrf2ZPgUH4UOR1csy2XyAlwBkMLnQcEJ3/KSDYxumAwg2pNjF4FFzkZvB/L9nl4oRxy6Nb+jeB4jEw3bKAM2FgI/bUM2qPgfK8L52PR+vTIMYsDOY5YN4LbD2COd8OoQWsu/XsVXGThYDxrtWUsPf84DbgRXMYe3CHNxshZ+Zq3xnoUXDTlMNDZgjM+x3W5neAkd5nhFIcadw72W2sZtEfBaVPkXijB1VjBR1gWD4fYCY5hWx9rOSbBRZLiuyg4bRq7xdWD4EqbD/O4neCs+IY+0JIEF9llqC04JZfozaRadUEsgzcWvQiOIzucuDvB9RLve8nh0IIksutR+7AD8dg3HoseBIcEdzhxuxGc50fOwdU+OqU9x/nHOezbU28CEE+kPT2sUgsPb97dCC57NjCOHGgsatbhCn3/mLxSyKi9Hcg+kYs1fvphbftcYgmpD3k4Chz6QEtGZ3CrSVIq/Ke23Ai/ZigtJJ5Ijru/UJMvOLaRbhTsBFc7/xhDz46swniVVm0mOpPBIBI6quQ7FcHztBJ+JKfMrquisTku5ewEB63vLhxT445XNJfQ8h6m5/AY9giRAFoNaJlUkVVz9njiUJp0I7jMjftCDeQ9xqL1m4OySDhD+5LnkD2WOLSBfyM4eVy2CyaeSPGXOHswbG2yS6RkxBNmnmlEXlnKc+yVbwQHrS88H9OzIxvUck85Qos8LpM8RcTz70+K5EeroVX1A4LTKZ0b+oJWNJsjULu7zWFVOJWrRsJpzV2YsTQmQznnA4IDqswcwHPHk4cgFcieJDXJU0Uu0FjlZ1cctPnUQYyHBCdMZbpjYo/Um6Dmpnk2TaaIdxOlMvM3QsdT5a2HBAeZRcN9CIm9dyzbyLVoDCJHtiB75c5ZDR0tLxgUXLZbNqsjYRWyFzxLk+1NvsMq/SVkL6JKvnkOg4KDzJUO4UQ28uG25XL6EsndwLs9Mm3As17aDTkpOMjyGiUPiB6A3B9ZWn9djs0j+8oFPsPLDH1nbRLbmMMFZwUnrGWFqSn5i1SA0dccWks4jGxjgTw2q9/aPHZb8qzgIKvOpRPyyKiXM1DZZYE5FBLPJd2nkDnRRJWxlYWLgpOI6kjGABJ6ZEunQB6xxnxOm6NeHXi3rFSiOIaxpZuLggP7m1kDyJDR8AK8hB+0MfSdPVI/IwdQD2FlmpW7KUdFXpg4SnAgRmd4Od41sr96iHJZuvfwqo2R07yHyHQGxiZyVxZGC67Fke5TZNDoW80LeDqzP8sDXCKxSRsihe4Cnt93ZE0ogovWS0cLDjLLJNHDmYeQ48gzMtp+ivpEbJHjWIcg0MwtvbFlkGOEBJdZJvHcqaEVLH64f94yO8QaLB43cmT8GIrCWaF0jgMICQ72e3U5KyIGnrJqPYS8zndlpAcmDdspNUU25I+xT2/yCtzGYapnDguOp8iscxFK9IdlHMPMJNy9AB6p3hfPMUhCoPA+B9reos2nyDNHz+cdIiw4MOCZ7tzsnjtwYP/VK8JMoBLmhp45hft27oUhFZgTPgvK5nzmAsi4z+nLJMGBK31ZHTeInh1dIZ0CryFEyPGK1/NrpH/aVD6LRKyIu1QbeZTsbTvPnpNHw2TB8TBZXg6LGJbwdIcgPrfW5VlFgIqb+jrE8m8moHuqvP9SIisgNmGMkI/t0JL6OaUIf4jJgoPsk7ZEh1NrdGNBhEQklKDn+ZXYDcCUGtpYCKPEnGlnJPa5CzaYJTjGztqBKCyhbO5CokcQeQ/1QzYmeuKfi1mCg/0ZtFxXj9y9GTin3NAT7JCUXHWovy1pkbbUhJ4tuOLyM71cIcNIrOfmGZkQnq2c9aUHmxJ89Nb/OcwWHMhpernEIvzwdtHj2T1AXmiAe4gYhcZ1yYXZIoLr8aQtD2FmLr2KrQEeudwH7sGrFRrPcz83awoWERxIcHvxcoUMVoymyNsbpCNy4FJ4HupDJo2nFfqSWExw0OuFZG0yoHKjpWtkU2AQCc0KvzevVqhdS5RBjrGo4BiS8Xo0IBKeWSvUWgUuPXvPQdohRzMp5Zi9Cg21i9etseJfVHCwv7Xf91W9kpijrRriE3KXNrDcjMjkZ8Wb9RgBjmn82KQGFhdc2YbpoX40hiXc+r12E4d91bKLwAvKtfSLlzqkv0P/7v/5jHpV2RYruZln9OrNjqmtJqH+1cDiggNlEmFjqEM90yTZC/Derv3+TDSEaBVuIIRE9HskLHVIn/c59B0+uxaRHVL7a67sqwgODAbDD3VqTSQa4iliPGT5+zUKa4i88dTLPGNRTXDCUW9lko3nyasvsV96DtUEB5bVJT/a2DeNU4vdmaqCM1t05raEnNtK4yMPrbVQOERVwYEVn0R0qKMb+yDvVvtMYUF1wZk1ayqT3DVa/FjgtUJ1wYHi5+bl+iTBtdxnbiI4KD+XaqjTG3MolNbYLz2HZoJTJtm8XD+0UMDaZZBjNBMcbGWSfqjmNvX2/Bw0FRzwcluZJJcWcA4TZKC54Gxub14ul3JpC7kMNBcc2PDeyiQ5bF0GOUaK4PZlks3LZVA6k3nqOUVwsJVJ2lP+3LoMcow0wTmweJuO9vROdq51bDyCNMHBGo6j3xYqg9Q6Nh5BquDMtux3k9wFiiTeK9cDUgUHZt3m5eqSd+vlQni64ECZZFtA1KFqgDsYvaALwVmmbwuI5VkWCvaxe0EXgoNtAbE8ebceFgqH6EZwoEYk3xgy3sYY2XHsT/hria4EB9654bbXFl6nkd38ULuMkyBj0J3gQBhgvG0hEaMQKmfL2pgfgy4FBxLdsv21Ce80ebRiI6+YaPmCninoVnAF6kdes8CwZvB2ymRPdigHIJQ9engN2Rh0L7gCFz0kwWp2VrPyPInxXaN+E5pJKE/rqeQxBqsR3CGcwzejeb+7Rv1ufQ9hSaxScBvWi01wGxri6uq/xnUQ1wRn2NkAAAAASUVORK5CYII=;" vertex="1" parent="1">
          <mxGeometry x="510" y="107.5" width="35" height="35" as="geometry" />
        </mxCell>
        <mxCell id="jjM4XxSEG5LytGMmibBt-56" value="이미지 업로더 API (:9393)" style="text;html=1;strokeColor=#82b366;fillColor=#d5e8d4;align=left;verticalAlign=middle;whiteSpace=wrap;rounded=0;" vertex="1" parent="1">
          <mxGeometry x="550" y="110" width="173" height="30" as="geometry" />
        </mxCell>
        <mxCell id="jjM4XxSEG5LytGMmibBt-57" value="" style="shape=image;verticalLabelPosition=bottom;labelBackgroundColor=default;verticalAlign=top;imageAspect=0;image=data:image/png,iVBORw0KGgoAAAANSUhEUgAAAJoAAABtCAYAAABZaHi2AAAAAXNSR0IArs4c6QAAAARnQU1BAACxjwv8YQUAAAAJcEhZcwAADsMAAA7DAcdvqGQAAA/JSURBVHhe7d3NqyxHGQZw/xw3uhAURHCZnVtxqUQUvxYS0IUgIgEXIii4EEGyycJVrknQuIhEUYPEQETUCApqFl4CQlAiQoKM/iZ5Lz19qqqre3q6q2f6gZdzzkx3T9Vbz/tZNfe+47BjxwLYibZjEexE27EIdqLtWAQ70Srx5n/fOPzj3/cPf33t5cPLr754+O3950/Ea95zzY672InWA6IgzXN/fuLw2IuPHr787IcPH7/37sPHnnjnA3n43ruO4nUSf3ev+fRT7z88+txHD4+/9PXDL/7ywyMJ//Pm629/yu3h5on2+hv/PJLg3u++eyTGIz966PCpJ993+MQP3nP8+ZmnPnD43NMfnCTI9skn33sko989+xs//+zhmT8+fnjltT8dveSt4CaJZoGRi7f5yk8+ciQVQYZziDUknu0zgsRf++nDR4Lf/9ffrp50N0U03os34bmEN97mksQakiAdj8fTvfDKs1dLuJsgmrzr+7/55nFBw3OlFn5NMSZ5nt8Zw7Xlc1dNNAQTHnku0l/cFoWHDWN4+g+PXQ3hrpJowo/cR/J9DsEip4riICpMz/S697t5V1Sifo9CgqSePSTu8xxVr6p16yH16oimNSEHs+BTFjlI5d4v/vhDx2dpcwhncihFhIqRSOLjd+I91/BE3/nVlx5UsUGaKeOJe7/1y88fP2+ruBqisXh5GK/Cw6QWLSUWkodyH/n281+Yte8V7RN9OVVm9OEQOjWenLjefZ6zRVwF0XgTnoPlpxYpJcho4fyOoDzhEmAQdhK+9+uvHsdLxhiGMSPs1nYgNk80oYq11y6Wa7vthDWTbd6OhxJiEWjMHIR1hN0KNk00uVBt7mMRLZBch/dqKblG9pf+/rMj4WrnEyFfmN8CNks0bQueKbUIXYlk2g7AUuFxKpAfcWrTAHOT820hb9sk0YS9moVg8RZjawk0wmnPxOZ8am5dcZ3rW8amiGYBaklG+VoM8qCtQjsjwmlqjl1xDS/fKjZDNHkM4gwpPXKXrbYB+gjvJr80t9ScQ1om2yaIRtnaAUM5mTCjGms9F5sCxQKiDZGNJ1cktYZNEK0m8efFbNdc8wlXoZQehvK2FguE5okmbERjNSdChtyN57t2MCReWyhN6SIE2VpqfTRNNOFiiGQ8md7YLZAsgGyKBHNP6YREiP39qy+8fde6aJZotpW6CksJq74VT9YHsukNljybEKsn10I60STRtCQosZSLUDCrvpbzWlOAQI8881CVntZGk0RzgqLUxqBYif+We2RzAdnoo+T5FRAODqyJ5ogW+5cphREKZcUthINW4BhS6KavrxC5rkMEa6EpolHYUPLPOq+xT3YukGioOJCvrXV4sgmiSeaFQeGwlG9cU8f/EhANSv3GqNDXwGpE470cj7atpC/Ek5Vcv3Bqd2BHGYhU8mz0uEYIXZRoejrO31OEhqJJq4pKBCOucar0FtsYY0FHdJbTqdfpfWlcnGiSdp5LWESwUt8nJaGwLX8xoxb0NEeRI1qUUhBE81lL4mJEk3PZPhIW5Q1DXisnQupWTpGeA/3AOfcotTMQKqVTa6FyX7IHeRGiHU+J/n8iJjqVYMT9crhbgJSCUc01XyQSRXL6Z/xLFlazEs22kS70UGI/JO6lCIq6hc6/5Jw3C53N1SO0V+y5ff0SoXXJnZXZiKa0loONJZjr5W28F4JSjHAr7N4CyfQE6SD0xsDmqgoVBoqoXL7ms5bqSZ5NNLkYd2/QqcmkpEsuXsv9iOrrY6z5FggGIgCj6hKBXuZMF5CWAXf1H8IxCNlL4CyiIQX3m0s6+4JgJke5DjOqjm51v5Lu+iQLHc2ZMvBqXY95yc8qYTLRtBtsadS0KygzQiILuxWPlQPdhV76uiJ0ygjngjSEgac+C9kY/Vx5YQ6TiMblC5U5RYWYhOsc+dnSt6ovCYZGJykPEyJCzNnnQtoc0Yj3OAIh29peAqOJhvkGV1IUCU+nhN47+m+FML0tizqkOwYsiZ8T2k01a+az5W1ze7hRRJNPDR1IJCxS7nYL3fwa8ChjclmCFHMa6NDxq64wBsScs1FeTTSTHjqQSLxv83v3Ym8ZJi9Wk2b0xWLPmafJiyX+teNA9AincxRs1UQLhaUGFaKMXnoPrUVYVB7Eoo7xYl1x39xbb4iLQKV8rS/h3c4lfRXRJPJDg0PCW9iTLEEizSCDYEM5UUnkS5foccm9RCbeqqZjQMzjXOIPEk0IHEokebJbPJDIc8lDeXHfxqKLqR6sL/Qt1F0KdgSERZ9TQ7hzyTZIND2YUsjk6VjxtYGBdQWpeCz7h4jF20jwzd8CjM3BaoTX8dmXhDnxcOZRcibkHLIVicbNlkjGEuYuw5dEEIc3ZlAal6ycd0IiHoU3N0+LTuiDsr02tDDnis+7VF+rD4dSzXXIIwfZ6G0MikSj9Fxu5gN1+re0hWTReCMk6hMnyBME4qH8vDSZSmJsc22w1yKKvtK8vUdfYwqELNEsCqWnPogYzFhWrwGhh7XyUqGgS4S5qWIbL/U6MdY1qnjkHjKyeK92OzFLNDlIjmhe5+1aB4tDsNbIFWJMYQCp99fMf6MVUiKb8dV+YShJNLkZS8t9iJDTetffAkU4TM1hbaFbuywS8ZwRrG3QyGYcJbLhQk14TxJNciw0ph6MxUudYZoCOaMCJTf+VoQRaOoaa24hw+NduvIsQRvEOHJj9HpNrp4kmhtzD6agVr0ZT6xSzBUwrUgsTpyuTV1DvKdwqc2DLoU4cZIaI8GJoRB/h2iKgNxChYW1iPBkrZOMWDS7LRanNF5EW+pg4hAiFcmNU2uk5IDuEE3YzD3Q60uX27Wo2fBvQeRdjBV5/D3k0VppIQnfpbyd7kv/UPMdovlKfSo5jUnPfU5pDgy59laEDgkd6q4PGYZrLW4rvUrtrJKeGVHO+94hWm7yHsJrtAYTM+acpbUkFikigr+Hxux9xt1C6AxIT3JVsnXI7XmfEE2MVa6OfciaGHOgb01x8MA2F2jC1owZ0VrJ0QIKmFzLyHi1bFI4IVopBHl9qX23WliAUoXcikj4RQN5zlCPsiuxcC0RDUpejaNKpVcnRMtZmglTTmv5mcot953FVsSCMIbohUmYaz1wVPlr9tFSKPVZc5HvhGi5ctuEsbg1yyptk7UgxtatGiXTY8K8+1v8N+GOXjlzRtGYU7sZD4jGalyQWrjczWsC6TUzcy58bUEo4wuS+VkbMkM8I/K61pDjivl1jStwQjRuOrVwHljqkayBMbnO0oIgdNlVtr9TC1MS4anV4/GlgkY600+zToiWS/KE06EthqWhMGnRm1G+xL+bZliUKblky4cXVJ+5OXm9/4XxB0QrhSJEa82FO1mQS0jXEJ6VgvsGKS/LtYyGxFq0CnzJEY2x9c/RbdajtUQ0+hHG+1bsb0qfEt6F2ZZPyeBLLnVJ8aUqR2s1dBpXf6xLCiXzVhLjfvIrtMQ1/ftqBEFbPsFcckwpIzkhWu4QnhtbK7PlLsY2dSHPFSRXXaWS9SBZSpc1EnOyJi2DY0rpH1/6XYoHRINcX4rCWvuvCnkQXfOliUY/vE3un3qKLZpzxuX5rUWQFHKOyWv9ffETokn4TbJ/I6XZc+uHh7WR6+XMLebPg0WYzFWCvJsE+RySxb2t7cKkUIqARY9WOotG0a1N3t5srvKZQyhRwWHxebAcwXj6MVtLJfGMVpu0XQzlaP1U64RoKrlcKU7hrSWnPOycm+qeQ3EW2+8UyfhKnpzxuW6OwsRntxg5UkA0Y03pni6yVSe4OUc0LG1tdwAQ4RyvRlHmhlz275BGD0hVO5ST8qhK/LnCN2OW420B+mg546JLx7e6OCEa5BJsr2noDil/DRhXrUfpEotR8SLcPNLUpgZCqOLo3HysK8bSb3K2DDooRb844Bm4Q7TSQUKLKby2BtYlhPbHjQSIZNwmTzHcPc8scR+bc7revZ4zlxcjxraFKrOL0lEh+unns3eIxnWXiNZqt1peo9IxeePnbYQ1vR6LyMJcM8UjMy4ECx309TJVGAHC9sPMFpBrhTFueu/nmXeIZiHihtRD/OxuGLcEY7ftEzkWDzQ11FMUrxe7JQg2V5gkjIEX7m9bbQF0kysE6Erbo6/3O0QDbM1ZLgWlTlBeA4JcPKO58o4U19fBOUKvdMhD9q1+K/CP5uQKMHNLeegk0YSKXA6CxWSqp5gbcgF9J+FxSsXG8zEc1abcArnMfS7v5TmeZ2GQzDhz/bitgMfK8YMO6bSPJNEgt8FOcqxdGpFPhljMocqNgTAk5NTOQCwSobEkXR3036MrYgFiLCSKDz3IVozzHCBRVw9doQf5WQpZolGMBcg9kKxtmX3LMiZ5Tz+H9HeQiwFZfMKLaY2EaO143TNCkJHy/IzPiM/zmmviWVoeWiWMkP7kiK3ms1NhfqW0KueAskRjfZSX82oWeM2N9tT4ggR9A7DgiOZ1v8uNEMAz/AzxOnFNiHu6wqK7f3efd+0w9xzJiPfoJIUs0YBVirmphxIeb80mI+tiRTEepONhdlwGQ45HtMihSDTgtXKJH7HQa+2B8iImzxiIUMZz7ZgfHEqu0iQIWNL9ING4wpJXE65KLvPSEP4UBfpRtxC+1gD9lpyN9e8fC+pjkGggiS7F5ghZa5Ftx+VgTa1tLmTm8uI+qojGa6jKSqwOsqV6KDu2CUWOSry07vL0mvNzVUQD1ZUcqFve9wXZvL/FbZUdp0AyjqNEMmuNiDWoJhqI1UJoiWzeUyDUsHxHm5DU6x3mwiWxzooDDqgGo4gG9gJzjdyuIJuKdc/btgXbcdavRDLC4eBCLUYTDZS63f5VTsLt6hbvFWHb4JnstFjXUsQiUyLWJKIB8nCdQ4OKUOp31rLWTsKONDgApLFGpXwsRKvL3u1YTCYacJ01FkCCcMKugU45abFjPsjDrANnEY5gSJBs6kngs4gGCKMarbGGEPE92iEmq0qVy6l0dswPXot+rRXvpVKk/1JvtCucBAdxzomds4kG4rs+W61lhJiAyZqE352CsF+my+zwJevZZbrYC5Z3WRvOgJ6HugZ9iWvHJP4pzEI0kHuxlvBW/QHXiEm5l3cknrXLdKFD+qTXMeQK4TgY/xz7x7MRLWBnIDa6p0xul/UFOSMfm6t4m51oASc65ALc9VQPt8uyYp2sl/7n3FuJFyMasAZfc5N3ccNc+e7l2hLrYV2sD4L54sklWlAXJVrAwMV5Sb5KM3KInXTrSZDLVpN1mSMPK2ERonWh1GY14r9KSC4QvZxIYBFwl/NFKCRBKmGRvv2uItVWWqqltDjR+kA8/R27BqpW1iXUKslVPLtMFzoUDvUqbRvGF2bWwOpEy0G43WUeaQHNEm3HdWEn2o5FsBNtxwI4HP4HYDjXYaXPpa4AAAAASUVORK5CYII=;" vertex="1" parent="1">
          <mxGeometry x="110" y="470" width="35" height="35" as="geometry" />
        </mxCell>
        <mxCell id="jjM4XxSEG5LytGMmibBt-58" value="Spring Cloud Gateway (:8000)" style="text;html=1;strokeColor=#82b366;fillColor=#d5e8d4;align=left;verticalAlign=middle;whiteSpace=wrap;rounded=0;" vertex="1" parent="1">
          <mxGeometry x="150" y="472.5" width="173" height="30" as="geometry" />
        </mxCell>
        <mxCell id="jjM4XxSEG5LytGMmibBt-59" value="" style="shape=image;verticalLabelPosition=bottom;labelBackgroundColor=default;verticalAlign=top;imageAspect=0;image=data:image/png,iVBORw0KGgoAAAANSUhEUgAAAJoAAABtCAYAAABZaHi2AAAAAXNSR0IArs4c6QAAAARnQU1BAACxjwv8YQUAAAAJcEhZcwAADsMAAA7DAcdvqGQAAA/JSURBVHhe7d3NqyxHGQZw/xw3uhAURHCZnVtxqUQUvxYS0IUgIgEXIii4EEGyycJVrknQuIhEUYPEQETUCApqFl4CQlAiQoKM/iZ5Lz19qqqre3q6q2f6gZdzzkx3T9Vbz/tZNfe+47BjxwLYibZjEexE27EIdqLtWAQ70Srx5n/fOPzj3/cPf33t5cPLr754+O3950/Ea95zzY672InWA6IgzXN/fuLw2IuPHr787IcPH7/37sPHnnjnA3n43ruO4nUSf3ev+fRT7z88+txHD4+/9PXDL/7ywyMJ//Pm629/yu3h5on2+hv/PJLg3u++eyTGIz966PCpJ993+MQP3nP8+ZmnPnD43NMfnCTI9skn33sko989+xs//+zhmT8+fnjltT8dveSt4CaJZoGRi7f5yk8+ciQVQYZziDUknu0zgsRf++nDR4Lf/9ffrp50N0U03os34bmEN97mksQakiAdj8fTvfDKs1dLuJsgmrzr+7/55nFBw3OlFn5NMSZ5nt8Zw7Xlc1dNNAQTHnku0l/cFoWHDWN4+g+PXQ3hrpJowo/cR/J9DsEip4riICpMz/S697t5V1Sifo9CgqSePSTu8xxVr6p16yH16oimNSEHs+BTFjlI5d4v/vhDx2dpcwhncihFhIqRSOLjd+I91/BE3/nVlx5UsUGaKeOJe7/1y88fP2+ruBqisXh5GK/Cw6QWLSUWkodyH/n281+Yte8V7RN9OVVm9OEQOjWenLjefZ6zRVwF0XgTnoPlpxYpJcho4fyOoDzhEmAQdhK+9+uvHsdLxhiGMSPs1nYgNk80oYq11y6Wa7vthDWTbd6OhxJiEWjMHIR1hN0KNk00uVBt7mMRLZBch/dqKblG9pf+/rMj4WrnEyFfmN8CNks0bQueKbUIXYlk2g7AUuFxKpAfcWrTAHOT820hb9sk0YS9moVg8RZjawk0wmnPxOZ8am5dcZ3rW8amiGYBaklG+VoM8qCtQjsjwmlqjl1xDS/fKjZDNHkM4gwpPXKXrbYB+gjvJr80t9ScQ1om2yaIRtnaAUM5mTCjGms9F5sCxQKiDZGNJ1cktYZNEK0m8efFbNdc8wlXoZQehvK2FguE5okmbERjNSdChtyN57t2MCReWyhN6SIE2VpqfTRNNOFiiGQ8md7YLZAsgGyKBHNP6YREiP39qy+8fde6aJZotpW6CksJq74VT9YHsukNljybEKsn10I60STRtCQosZSLUDCrvpbzWlOAQI8881CVntZGk0RzgqLUxqBYif+We2RzAdnoo+T5FRAODqyJ5ogW+5cphREKZcUthINW4BhS6KavrxC5rkMEa6EpolHYUPLPOq+xT3YukGioOJCvrXV4sgmiSeaFQeGwlG9cU8f/EhANSv3GqNDXwGpE470cj7atpC/Ek5Vcv3Bqd2BHGYhU8mz0uEYIXZRoejrO31OEhqJJq4pKBCOucar0FtsYY0FHdJbTqdfpfWlcnGiSdp5LWESwUt8nJaGwLX8xoxb0NEeRI1qUUhBE81lL4mJEk3PZPhIW5Q1DXisnQupWTpGeA/3AOfcotTMQKqVTa6FyX7IHeRGiHU+J/n8iJjqVYMT9crhbgJSCUc01XyQSRXL6Z/xLFlazEs22kS70UGI/JO6lCIq6hc6/5Jw3C53N1SO0V+y5ff0SoXXJnZXZiKa0loONJZjr5W28F4JSjHAr7N4CyfQE6SD0xsDmqgoVBoqoXL7ms5bqSZ5NNLkYd2/QqcmkpEsuXsv9iOrrY6z5FggGIgCj6hKBXuZMF5CWAXf1H8IxCNlL4CyiIQX3m0s6+4JgJke5DjOqjm51v5Lu+iQLHc2ZMvBqXY95yc8qYTLRtBtsadS0KygzQiILuxWPlQPdhV76uiJ0ygjngjSEgac+C9kY/Vx5YQ6TiMblC5U5RYWYhOsc+dnSt6ovCYZGJykPEyJCzNnnQtoc0Yj3OAIh29peAqOJhvkGV1IUCU+nhN47+m+FML0tizqkOwYsiZ8T2k01a+az5W1ze7hRRJNPDR1IJCxS7nYL3fwa8ChjclmCFHMa6NDxq64wBsScs1FeTTSTHjqQSLxv83v3Ym8ZJi9Wk2b0xWLPmafJiyX+teNA9AincxRs1UQLhaUGFaKMXnoPrUVYVB7Eoo7xYl1x39xbb4iLQKV8rS/h3c4lfRXRJPJDg0PCW9iTLEEizSCDYEM5UUnkS5foccm9RCbeqqZjQMzjXOIPEk0IHEokebJbPJDIc8lDeXHfxqKLqR6sL/Qt1F0KdgSERZ9TQ7hzyTZIND2YUsjk6VjxtYGBdQWpeCz7h4jF20jwzd8CjM3BaoTX8dmXhDnxcOZRcibkHLIVicbNlkjGEuYuw5dEEIc3ZlAal6ycd0IiHoU3N0+LTuiDsr02tDDnis+7VF+rD4dSzXXIIwfZ6G0MikSj9Fxu5gN1+re0hWTReCMk6hMnyBME4qH8vDSZSmJsc22w1yKKvtK8vUdfYwqELNEsCqWnPogYzFhWrwGhh7XyUqGgS4S5qWIbL/U6MdY1qnjkHjKyeK92OzFLNDlIjmhe5+1aB4tDsNbIFWJMYQCp99fMf6MVUiKb8dV+YShJNLkZS8t9iJDTetffAkU4TM1hbaFbuywS8ZwRrG3QyGYcJbLhQk14TxJNciw0ph6MxUudYZoCOaMCJTf+VoQRaOoaa24hw+NduvIsQRvEOHJj9HpNrp4kmhtzD6agVr0ZT6xSzBUwrUgsTpyuTV1DvKdwqc2DLoU4cZIaI8GJoRB/h2iKgNxChYW1iPBkrZOMWDS7LRanNF5EW+pg4hAiFcmNU2uk5IDuEE3YzD3Q60uX27Wo2fBvQeRdjBV5/D3k0VppIQnfpbyd7kv/UPMdovlKfSo5jUnPfU5pDgy59laEDgkd6q4PGYZrLW4rvUrtrJKeGVHO+94hWm7yHsJrtAYTM+acpbUkFikigr+Hxux9xt1C6AxIT3JVsnXI7XmfEE2MVa6OfciaGHOgb01x8MA2F2jC1owZ0VrJ0QIKmFzLyHi1bFI4IVopBHl9qX23WliAUoXcikj4RQN5zlCPsiuxcC0RDUpejaNKpVcnRMtZmglTTmv5mcot953FVsSCMIbohUmYaz1wVPlr9tFSKPVZc5HvhGi5ctuEsbg1yyptk7UgxtatGiXTY8K8+1v8N+GOXjlzRtGYU7sZD4jGalyQWrjczWsC6TUzcy58bUEo4wuS+VkbMkM8I/K61pDjivl1jStwQjRuOrVwHljqkayBMbnO0oIgdNlVtr9TC1MS4anV4/GlgkY600+zToiWS/KE06EthqWhMGnRm1G+xL+bZliUKblky4cXVJ+5OXm9/4XxB0QrhSJEa82FO1mQS0jXEJ6VgvsGKS/LtYyGxFq0CnzJEY2x9c/RbdajtUQ0+hHG+1bsb0qfEt6F2ZZPyeBLLnVJ8aUqR2s1dBpXf6xLCiXzVhLjfvIrtMQ1/ftqBEFbPsFcckwpIzkhWu4QnhtbK7PlLsY2dSHPFSRXXaWS9SBZSpc1EnOyJi2DY0rpH1/6XYoHRINcX4rCWvuvCnkQXfOliUY/vE3un3qKLZpzxuX5rUWQFHKOyWv9ffETokn4TbJ/I6XZc+uHh7WR6+XMLebPg0WYzFWCvJsE+RySxb2t7cKkUIqARY9WOotG0a1N3t5srvKZQyhRwWHxebAcwXj6MVtLJfGMVpu0XQzlaP1U64RoKrlcKU7hrSWnPOycm+qeQ3EW2+8UyfhKnpzxuW6OwsRntxg5UkA0Y03pni6yVSe4OUc0LG1tdwAQ4RyvRlHmhlz275BGD0hVO5ST8qhK/LnCN2OW420B+mg546JLx7e6OCEa5BJsr2noDil/DRhXrUfpEotR8SLcPNLUpgZCqOLo3HysK8bSb3K2DDooRb844Bm4Q7TSQUKLKby2BtYlhPbHjQSIZNwmTzHcPc8scR+bc7revZ4zlxcjxraFKrOL0lEh+unns3eIxnWXiNZqt1peo9IxeePnbYQ1vR6LyMJcM8UjMy4ECx309TJVGAHC9sPMFpBrhTFueu/nmXeIZiHihtRD/OxuGLcEY7ftEzkWDzQ11FMUrxe7JQg2V5gkjIEX7m9bbQF0kysE6Erbo6/3O0QDbM1ZLgWlTlBeA4JcPKO58o4U19fBOUKvdMhD9q1+K/CP5uQKMHNLeegk0YSKXA6CxWSqp5gbcgF9J+FxSsXG8zEc1abcArnMfS7v5TmeZ2GQzDhz/bitgMfK8YMO6bSPJNEgt8FOcqxdGpFPhljMocqNgTAk5NTOQCwSobEkXR3036MrYgFiLCSKDz3IVozzHCBRVw9doQf5WQpZolGMBcg9kKxtmX3LMiZ5Tz+H9HeQiwFZfMKLaY2EaO143TNCkJHy/IzPiM/zmmviWVoeWiWMkP7kiK3ms1NhfqW0KueAskRjfZSX82oWeM2N9tT4ggR9A7DgiOZ1v8uNEMAz/AzxOnFNiHu6wqK7f3efd+0w9xzJiPfoJIUs0YBVirmphxIeb80mI+tiRTEepONhdlwGQ45HtMihSDTgtXKJH7HQa+2B8iImzxiIUMZz7ZgfHEqu0iQIWNL9ING4wpJXE65KLvPSEP4UBfpRtxC+1gD9lpyN9e8fC+pjkGggiS7F5ghZa5Ftx+VgTa1tLmTm8uI+qojGa6jKSqwOsqV6KDu2CUWOSry07vL0mvNzVUQD1ZUcqFve9wXZvL/FbZUdp0AyjqNEMmuNiDWoJhqI1UJoiWzeUyDUsHxHm5DU6x3mwiWxzooDDqgGo4gG9gJzjdyuIJuKdc/btgXbcdavRDLC4eBCLUYTDZS63f5VTsLt6hbvFWHb4JnstFjXUsQiUyLWJKIB8nCdQ4OKUOp31rLWTsKONDgApLFGpXwsRKvL3u1YTCYacJ01FkCCcMKugU45abFjPsjDrANnEY5gSJBs6kngs4gGCKMarbGGEPE92iEmq0qVy6l0dswPXot+rRXvpVKk/1JvtCucBAdxzomds4kG4rs+W61lhJiAyZqE352CsF+my+zwJevZZbrYC5Z3WRvOgJ6HugZ9iWvHJP4pzEI0kHuxlvBW/QHXiEm5l3cknrXLdKFD+qTXMeQK4TgY/xz7x7MRLWBnIDa6p0xul/UFOSMfm6t4m51oASc65ALc9VQPt8uyYp2sl/7n3FuJFyMasAZfc5N3ccNc+e7l2hLrYV2sD4L54sklWlAXJVrAwMV5Sb5KM3KInXTrSZDLVpN1mSMPK2ERonWh1GY14r9KSC4QvZxIYBFwl/NFKCRBKmGRvv2uItVWWqqltDjR+kA8/R27BqpW1iXUKslVPLtMFzoUDvUqbRvGF2bWwOpEy0G43WUeaQHNEm3HdWEn2o5FsBNtxwI4HP4HYDjXYaXPpa4AAAAASUVORK5CYII=;" vertex="1" parent="1">
          <mxGeometry x="110" y="512.5" width="35" height="35" as="geometry" />
        </mxCell>
        <mxCell id="jjM4XxSEG5LytGMmibBt-60" value="Eureka Discovery (:8761)" style="text;html=1;strokeColor=#82b366;fillColor=#d5e8d4;align=left;verticalAlign=middle;whiteSpace=wrap;rounded=0;" vertex="1" parent="1">
          <mxGeometry x="150" y="515" width="173" height="30" as="geometry" />
        </mxCell>
        <mxCell id="jjM4XxSEG5LytGMmibBt-61" value="" style="shape=image;verticalLabelPosition=bottom;labelBackgroundColor=default;verticalAlign=top;imageAspect=0;image=data:image/png,iVBORw0KGgoAAAANSUhEUgAAAJwAAACNCAYAAABCMhNzAAAAAXNSR0IArs4c6QAAAARnQU1BAACxjwv8YQUAAAAJcEhZcwAADsMAAA7DAcdvqGQAAA+oSURBVHhe7d29q3VHFQZw/xB7C6s3jaBgJdaWaiMKARULtQtIKj8KCwtBC5EUqRQJr4kExagpRBIjguIHKgGjgiJC/ChCIHr1d86d63nPu885e+29Z9bse/cDD+/nOXtmzTNrrVkzs++brjZsaIhNcBuaYnWCe+XV31z96PffvvrWr568k/zub7++6/+f/vHytUXWhVUIjsi++tKnrz78zbddfeCpt1w9ev/e//jIHea9nR0+9sw7r7728y+uSnxdC44hv/DDj++Ehgy88f/86NPv2AnwI0+/fTch//zPV64t1y+6FNy///PG1f1ffmVn0E1o40h4n3j2Xbuw2zO6E9y/Xv/71Wd+8KFd2CC4IeNuHObe493bRYXX33jt2qJ9oSvBCQlm6ebV5pG3e+w779lN3t7QjeCIjZE2sS1Ddnz8ufd1J7ouBCdn+9zzj25iW5g83Zdf+NS1lftAF4KT6DLOkNE2ziO7/vgP37u2dD7SBcfl82zbAqEO2VVeLIr0gHTBqR9t3q0u2VeZqQekCs4OwgefeuugkTYuS+WSV1/767Xl85AmOC6+7CIMGWjjsmRn0SQbaYJ76Y/f37xbY7L37/72s+sRyEGK4FTB1dzsAQ4ZZmMd8nLKT5kLiBTBSWDlFENG2ViX7P78y/evR6I9mgvOjoKOb2WQHLL7J599d9oORHPBfemFx7aFQjKVSZyjy0BTwSmDlIODG3P5/m+8OaVM0lRwNpO3hUIfFGWUpVqjmeAkqlsZpC8aj1/85cXrEWqDJoKToCqD3IaFAg+Nt6UvDru2PKzZRHBrL4MQl0Tbr9ICg2RD3N+tfQHEy7Usk1QXnDKIgVqrRyAo4nLE57iUoGqvkLrmVMG4KJO0WkBUF9yaD1Zq9+PPvfdiyFFiWLPoeOpW+6xVBSchXWsoLTN/7NW7tZ9YJjplq9qoKjjeYa1lEAMQOUMmvK655GOytCiTVBPc2ssgBiB6o33tK3FF+dplkiqCk4DqwFqNr93EE02k136+r/S7ZpmkiuCe/OnndyFpqFMtOVXwUwU3Z5/YM6e2d0nKuWve3l9ccBLPzFzGoJX6mKRfW/w5MpitBFfa6vfaiv6cbb/IYimKxQWXGVbKcyX7hM9ofjVjGXFsu1oIrvw/r9+SK3qW9joJbbGVGSE8u1aZZFHBMVaWoYQCOwCnRCIvGVu6qC04/+dSfU9tL/NkjTbWKJMsKjihwGANdaAmrYbljZdggHm6S22sKTjfrQ1jvrtM4AybGks2WBqLCU5oaF3kNRAG5JlfP3Hdisvw9shLXrim4Dw7Wt+ztZaR15nI7LUkFhGcgWHo1jPR4BF6BPKkS16uruDuhUMV0WlPa9EVOyxZJllEcE/85LMXvcbSlN9MOeUw5qhUTcERTfR7gUjL54+/syZNkEgEuYTZgjP7Wu8oTBUbGOy1ebgCq1mCO9f2GtSnpcokswXXetOaJ51zAWTMSrqu4Oa13wRvvXrVJ31bArMENyYBX5KeNbfjYw4U1BSc7+Zh53iM/QKtbQqjX0vss04WnETS6qmVeycSIphzn3Lsm5pqCg79HyeHo99/CC8abCk69jdZ52Ky4PbHxtt1WJ4onEyBgRX6x5ZtagsO/T+c2icTvvXxL/abexx9kuAMRMs8gtimbigbUCFsrBCwheDQc/QtWtop0Lexk2gJaq/+zSmTTBKc0BQx7ByWUDrlBSxyjilF01aCQ88SKaaWHixAWkYaz5qz6AkLrvWs8qwpyarSg88a0KHvPceWgivU1ilenLfx+Sn9nEqim7roCQmu9dvGPcfzomAMXm3qIGQIDr1+QdkmCnlVSyegj/o6BSHBtT42TjTRY95lJ2FOMp0lOJQbTykMz+1zlHQwZXKMFpyBvFShX5IGbsrPGDDoc3OaTMERjWdHyz+ta6LaaZUcza1HC671sXHPis70fWiZ38ZMwaE+RA9A7sskbV8WpJ3RvHOU4Bi+ZRnEoDk5HJk9PILPLeGBswWHBjO6WDL4LXM5FFojZZJRgmt9bHxKfjB2F2EMexAcTyWFiUB7W+7+IJuPOfxacFFwZllL71aMFfFuFhZLtrEHwSFvFa3st6yRFkYWOmcFx1W6J9AyL2CsyIyBpY3ci+C0g5eLTD4OomUlAfV5bAp0VnAZx8YZK5K7EMVSobSwF8FhNL3gJFo6iEI6GdPOk4JrXQYp5J4jM7rGIYKeBBfxHgU12nGJpUxyaQFxUnCtj7+gRgvhY2FS1CgF9CQ45OUiW0mtdx4KPfPSBaFBwe33IduKDT0zsom939ddvp29CU4fI/Uu49c6jyvU/3N2GxRc62PjhZ4Zyd9qncnrTXC+U1gdC+G3ZWXhkNp6bofoIcG1LoMcMxI6TIwaCXJvgtMe+XSkPdrvc0PfV5vnyiQPCE7Cl9XQYtSxVeuaixrf2ZPgUH4UOR1csy2XyAlwBkMLnQcEJ3/KSDYxumAwg2pNjF4FFzkZvB/L9nl4oRxy6Nb+jeB4jEw3bKAM2FgI/bUM2qPgfK8L52PR+vTIMYsDOY5YN4LbD2COd8OoQWsu/XsVXGThYDxrtWUsPf84DbgRXMYe3CHNxshZ+Zq3xnoUXDTlMNDZgjM+x3W5neAkd5nhFIcadw72W2sZtEfBaVPkXijB1VjBR1gWD4fYCY5hWx9rOSbBRZLiuyg4bRq7xdWD4EqbD/O4neCs+IY+0JIEF9llqC04JZfozaRadUEsgzcWvQiOIzucuDvB9RLve8nh0IIksutR+7AD8dg3HoseBIcEdzhxuxGc50fOwdU+OqU9x/nHOezbU28CEE+kPT2sUgsPb97dCC57NjCOHGgsatbhCn3/mLxSyKi9Hcg+kYs1fvphbftcYgmpD3k4Chz6QEtGZ3CrSVIq/Ke23Ai/ZigtJJ5Ijru/UJMvOLaRbhTsBFc7/xhDz46swniVVm0mOpPBIBI6quQ7FcHztBJ+JKfMrquisTku5ewEB63vLhxT445XNJfQ8h6m5/AY9giRAFoNaJlUkVVz9njiUJp0I7jMjftCDeQ9xqL1m4OySDhD+5LnkD2WOLSBfyM4eVy2CyaeSPGXOHswbG2yS6RkxBNmnmlEXlnKc+yVbwQHrS88H9OzIxvUck85Qos8LpM8RcTz70+K5EeroVX1A4LTKZ0b+oJWNJsjULu7zWFVOJWrRsJpzV2YsTQmQznnA4IDqswcwHPHk4cgFcieJDXJU0Uu0FjlZ1cctPnUQYyHBCdMZbpjYo/Um6Dmpnk2TaaIdxOlMvM3QsdT5a2HBAeZRcN9CIm9dyzbyLVoDCJHtiB75c5ZDR0tLxgUXLZbNqsjYRWyFzxLk+1NvsMq/SVkL6JKvnkOg4KDzJUO4UQ28uG25XL6EsndwLs9Mm3As17aDTkpOMjyGiUPiB6A3B9ZWn9djs0j+8oFPsPLDH1nbRLbmMMFZwUnrGWFqSn5i1SA0dccWks4jGxjgTw2q9/aPHZb8qzgIKvOpRPyyKiXM1DZZYE5FBLPJd2nkDnRRJWxlYWLgpOI6kjGABJ6ZEunQB6xxnxOm6NeHXi3rFSiOIaxpZuLggP7m1kDyJDR8AK8hB+0MfSdPVI/IwdQD2FlmpW7KUdFXpg4SnAgRmd4Od41sr96iHJZuvfwqo2R07yHyHQGxiZyVxZGC67Fke5TZNDoW80LeDqzP8sDXCKxSRsihe4Cnt93ZE0ogovWS0cLDjLLJNHDmYeQ48gzMtp+ivpEbJHjWIcg0MwtvbFlkGOEBJdZJvHcqaEVLH64f94yO8QaLB43cmT8GIrCWaF0jgMICQ72e3U5KyIGnrJqPYS8zndlpAcmDdspNUU25I+xT2/yCtzGYapnDguOp8iscxFK9IdlHMPMJNy9AB6p3hfPMUhCoPA+B9reos2nyDNHz+cdIiw4MOCZ7tzsnjtwYP/VK8JMoBLmhp45hft27oUhFZgTPgvK5nzmAsi4z+nLJMGBK31ZHTeInh1dIZ0CryFEyPGK1/NrpH/aVD6LRKyIu1QbeZTsbTvPnpNHw2TB8TBZXg6LGJbwdIcgPrfW5VlFgIqb+jrE8m8moHuqvP9SIisgNmGMkI/t0JL6OaUIf4jJgoPsk7ZEh1NrdGNBhEQklKDn+ZXYDcCUGtpYCKPEnGlnJPa5CzaYJTjGztqBKCyhbO5CokcQeQ/1QzYmeuKfi1mCg/0ZtFxXj9y9GTin3NAT7JCUXHWovy1pkbbUhJ4tuOLyM71cIcNIrOfmGZkQnq2c9aUHmxJ89Nb/OcwWHMhpernEIvzwdtHj2T1AXmiAe4gYhcZ1yYXZIoLr8aQtD2FmLr2KrQEeudwH7sGrFRrPcz83awoWERxIcHvxcoUMVoymyNsbpCNy4FJ4HupDJo2nFfqSWExw0OuFZG0yoHKjpWtkU2AQCc0KvzevVqhdS5RBjrGo4BiS8Xo0IBKeWSvUWgUuPXvPQdohRzMp5Zi9Cg21i9etseJfVHCwv7Xf91W9kpijrRriE3KXNrDcjMjkZ8Wb9RgBjmn82KQGFhdc2YbpoX40hiXc+r12E4d91bKLwAvKtfSLlzqkv0P/7v/5jHpV2RYruZln9OrNjqmtJqH+1cDiggNlEmFjqEM90yTZC/Derv3+TDSEaBVuIIRE9HskLHVIn/c59B0+uxaRHVL7a67sqwgODAbDD3VqTSQa4iliPGT5+zUKa4i88dTLPGNRTXDCUW9lko3nyasvsV96DtUEB5bVJT/a2DeNU4vdmaqCM1t05raEnNtK4yMPrbVQOERVwYEVn0R0qKMb+yDvVvtMYUF1wZk1ayqT3DVa/FjgtUJ1wYHi5+bl+iTBtdxnbiI4KD+XaqjTG3MolNbYLz2HZoJTJtm8XD+0UMDaZZBjNBMcbGWSfqjmNvX2/Bw0FRzwcluZJJcWcA4TZKC54Gxub14ul3JpC7kMNBcc2PDeyiQ5bF0GOUaK4PZlks3LZVA6k3nqOUVwsJVJ2lP+3LoMcow0wTmweJuO9vROdq51bDyCNMHBGo6j3xYqg9Q6Nh5BquDMtux3k9wFiiTeK9cDUgUHZt3m5eqSd+vlQni64ECZZFtA1KFqgDsYvaALwVmmbwuI5VkWCvaxe0EXgoNtAbE8ebceFgqH6EZwoEYk3xgy3sYY2XHsT/hria4EB9654bbXFl6nkd38ULuMkyBj0J3gQBhgvG0hEaMQKmfL2pgfgy4FBxLdsv21Ce80ebRiI6+YaPmCninoVnAF6kdes8CwZvB2ymRPdigHIJQ9engN2Rh0L7gCFz0kwWp2VrPyPInxXaN+E5pJKE/rqeQxBqsR3CGcwzejeb+7Rv1ufQ9hSaxScBvWi01wGxri6uq/xnUQ1wRn2NkAAAAASUVORK5CYII=;" vertex="1" parent="1">
          <mxGeometry x="110" y="560" width="35" height="35" as="geometry" />
        </mxCell>
        <mxCell id="jjM4XxSEG5LytGMmibBt-62" value="솔루션 가맹점 (:9090)" style="text;html=1;strokeColor=none;fillColor=none;align=left;verticalAlign=middle;whiteSpace=wrap;rounded=0;" vertex="1" parent="1">
          <mxGeometry x="150" y="562.5" width="173" height="30" as="geometry" />
        </mxCell>
        <mxCell id="jjM4XxSEG5LytGMmibBt-63" value="" style="shape=image;verticalLabelPosition=bottom;labelBackgroundColor=default;verticalAlign=top;imageAspect=0;image=data:image/png,iVBORw0KGgoAAAANSUhEUgAAAJwAAACNCAYAAABCMhNzAAAAAXNSR0IArs4c6QAAAARnQU1BAACxjwv8YQUAAAAJcEhZcwAADsMAAA7DAcdvqGQAAA+oSURBVHhe7d29q3VHFQZw/xB7C6s3jaBgJdaWaiMKARULtQtIKj8KCwtBC5EUqRQJr4kExagpRBIjguIHKgGjgiJC/ChCIHr1d86d63nPu885e+29Z9bse/cDD+/nOXtmzTNrrVkzs++brjZsaIhNcBuaYnWCe+XV31z96PffvvrWr568k/zub7++6/+f/vHytUXWhVUIjsi++tKnrz78zbddfeCpt1w9ev/e//jIHea9nR0+9sw7r7728y+uSnxdC44hv/DDj++Ehgy88f/86NPv2AnwI0+/fTch//zPV64t1y+6FNy///PG1f1ffmVn0E1o40h4n3j2Xbuw2zO6E9y/Xv/71Wd+8KFd2CC4IeNuHObe493bRYXX33jt2qJ9oSvBCQlm6ebV5pG3e+w779lN3t7QjeCIjZE2sS1Ddnz8ufd1J7ouBCdn+9zzj25iW5g83Zdf+NS1lftAF4KT6DLOkNE2ziO7/vgP37u2dD7SBcfl82zbAqEO2VVeLIr0gHTBqR9t3q0u2VeZqQekCs4OwgefeuugkTYuS+WSV1/767Xl85AmOC6+7CIMGWjjsmRn0SQbaYJ76Y/f37xbY7L37/72s+sRyEGK4FTB1dzsAQ4ZZmMd8nLKT5kLiBTBSWDlFENG2ViX7P78y/evR6I9mgvOjoKOb2WQHLL7J599d9oORHPBfemFx7aFQjKVSZyjy0BTwSmDlIODG3P5/m+8OaVM0lRwNpO3hUIfFGWUpVqjmeAkqlsZpC8aj1/85cXrEWqDJoKToCqD3IaFAg+Nt6UvDru2PKzZRHBrL4MQl0Tbr9ICg2RD3N+tfQHEy7Usk1QXnDKIgVqrRyAo4nLE57iUoGqvkLrmVMG4KJO0WkBUF9yaD1Zq9+PPvfdiyFFiWLPoeOpW+6xVBSchXWsoLTN/7NW7tZ9YJjplq9qoKjjeYa1lEAMQOUMmvK655GOytCiTVBPc2ssgBiB6o33tK3FF+dplkiqCk4DqwFqNr93EE02k136+r/S7ZpmkiuCe/OnndyFpqFMtOVXwUwU3Z5/YM6e2d0nKuWve3l9ccBLPzFzGoJX6mKRfW/w5MpitBFfa6vfaiv6cbb/IYimKxQWXGVbKcyX7hM9ofjVjGXFsu1oIrvw/r9+SK3qW9joJbbGVGSE8u1aZZFHBMVaWoYQCOwCnRCIvGVu6qC04/+dSfU9tL/NkjTbWKJMsKjihwGANdaAmrYbljZdggHm6S22sKTjfrQ1jvrtM4AybGks2WBqLCU5oaF3kNRAG5JlfP3Hdisvw9shLXrim4Dw7Wt+ztZaR15nI7LUkFhGcgWHo1jPR4BF6BPKkS16uruDuhUMV0WlPa9EVOyxZJllEcE/85LMXvcbSlN9MOeUw5qhUTcERTfR7gUjL54+/syZNkEgEuYTZgjP7Wu8oTBUbGOy1ebgCq1mCO9f2GtSnpcokswXXetOaJ51zAWTMSrqu4Oa13wRvvXrVJ31bArMENyYBX5KeNbfjYw4U1BSc7+Zh53iM/QKtbQqjX0vss04WnETS6qmVeycSIphzn3Lsm5pqCg79HyeHo99/CC8abCk69jdZ52Ky4PbHxtt1WJ4onEyBgRX6x5ZtagsO/T+c2icTvvXxL/abexx9kuAMRMs8gtimbigbUCFsrBCwheDQc/QtWtop0Lexk2gJaq/+zSmTTBKc0BQx7ByWUDrlBSxyjilF01aCQ88SKaaWHixAWkYaz5qz6AkLrvWs8qwpyarSg88a0KHvPceWgivU1ilenLfx+Sn9nEqim7roCQmu9dvGPcfzomAMXm3qIGQIDr1+QdkmCnlVSyegj/o6BSHBtT42TjTRY95lJ2FOMp0lOJQbTykMz+1zlHQwZXKMFpyBvFShX5IGbsrPGDDoc3OaTMERjWdHyz+ta6LaaZUcza1HC671sXHPis70fWiZ38ZMwaE+RA9A7sskbV8WpJ3RvHOU4Bi+ZRnEoDk5HJk9PILPLeGBswWHBjO6WDL4LXM5FFojZZJRgmt9bHxKfjB2F2EMexAcTyWFiUB7W+7+IJuPOfxacFFwZllL71aMFfFuFhZLtrEHwSFvFa3st6yRFkYWOmcFx1W6J9AyL2CsyIyBpY3ci+C0g5eLTD4OomUlAfV5bAp0VnAZx8YZK5K7EMVSobSwF8FhNL3gJFo6iEI6GdPOk4JrXQYp5J4jM7rGIYKeBBfxHgU12nGJpUxyaQFxUnCtj7+gRgvhY2FS1CgF9CQ45OUiW0mtdx4KPfPSBaFBwe33IduKDT0zsom939ddvp29CU4fI/Uu49c6jyvU/3N2GxRc62PjhZ4Zyd9qncnrTXC+U1gdC+G3ZWXhkNp6bofoIcG1LoMcMxI6TIwaCXJvgtMe+XSkPdrvc0PfV5vnyiQPCE7Cl9XQYtSxVeuaixrf2ZPgUH4UOR1csy2XyAlwBkMLnQcEJ3/KSDYxumAwg2pNjF4FFzkZvB/L9nl4oRxy6Nb+jeB4jEw3bKAM2FgI/bUM2qPgfK8L52PR+vTIMYsDOY5YN4LbD2COd8OoQWsu/XsVXGThYDxrtWUsPf84DbgRXMYe3CHNxshZ+Zq3xnoUXDTlMNDZgjM+x3W5neAkd5nhFIcadw72W2sZtEfBaVPkXijB1VjBR1gWD4fYCY5hWx9rOSbBRZLiuyg4bRq7xdWD4EqbD/O4neCs+IY+0JIEF9llqC04JZfozaRadUEsgzcWvQiOIzucuDvB9RLve8nh0IIksutR+7AD8dg3HoseBIcEdzhxuxGc50fOwdU+OqU9x/nHOezbU28CEE+kPT2sUgsPb97dCC57NjCOHGgsatbhCn3/mLxSyKi9Hcg+kYs1fvphbftcYgmpD3k4Chz6QEtGZ3CrSVIq/Ke23Ai/ZigtJJ5Ijru/UJMvOLaRbhTsBFc7/xhDz46swniVVm0mOpPBIBI6quQ7FcHztBJ+JKfMrquisTku5ewEB63vLhxT445XNJfQ8h6m5/AY9giRAFoNaJlUkVVz9njiUJp0I7jMjftCDeQ9xqL1m4OySDhD+5LnkD2WOLSBfyM4eVy2CyaeSPGXOHswbG2yS6RkxBNmnmlEXlnKc+yVbwQHrS88H9OzIxvUck85Qos8LpM8RcTz70+K5EeroVX1A4LTKZ0b+oJWNJsjULu7zWFVOJWrRsJpzV2YsTQmQznnA4IDqswcwHPHk4cgFcieJDXJU0Uu0FjlZ1cctPnUQYyHBCdMZbpjYo/Um6Dmpnk2TaaIdxOlMvM3QsdT5a2HBAeZRcN9CIm9dyzbyLVoDCJHtiB75c5ZDR0tLxgUXLZbNqsjYRWyFzxLk+1NvsMq/SVkL6JKvnkOg4KDzJUO4UQ28uG25XL6EsndwLs9Mm3As17aDTkpOMjyGiUPiB6A3B9ZWn9djs0j+8oFPsPLDH1nbRLbmMMFZwUnrGWFqSn5i1SA0dccWks4jGxjgTw2q9/aPHZb8qzgIKvOpRPyyKiXM1DZZYE5FBLPJd2nkDnRRJWxlYWLgpOI6kjGABJ6ZEunQB6xxnxOm6NeHXi3rFSiOIaxpZuLggP7m1kDyJDR8AK8hB+0MfSdPVI/IwdQD2FlmpW7KUdFXpg4SnAgRmd4Od41sr96iHJZuvfwqo2R07yHyHQGxiZyVxZGC67Fke5TZNDoW80LeDqzP8sDXCKxSRsihe4Cnt93ZE0ogovWS0cLDjLLJNHDmYeQ48gzMtp+ivpEbJHjWIcg0MwtvbFlkGOEBJdZJvHcqaEVLH64f94yO8QaLB43cmT8GIrCWaF0jgMICQ72e3U5KyIGnrJqPYS8zndlpAcmDdspNUU25I+xT2/yCtzGYapnDguOp8iscxFK9IdlHMPMJNy9AB6p3hfPMUhCoPA+B9reos2nyDNHz+cdIiw4MOCZ7tzsnjtwYP/VK8JMoBLmhp45hft27oUhFZgTPgvK5nzmAsi4z+nLJMGBK31ZHTeInh1dIZ0CryFEyPGK1/NrpH/aVD6LRKyIu1QbeZTsbTvPnpNHw2TB8TBZXg6LGJbwdIcgPrfW5VlFgIqb+jrE8m8moHuqvP9SIisgNmGMkI/t0JL6OaUIf4jJgoPsk7ZEh1NrdGNBhEQklKDn+ZXYDcCUGtpYCKPEnGlnJPa5CzaYJTjGztqBKCyhbO5CokcQeQ/1QzYmeuKfi1mCg/0ZtFxXj9y9GTin3NAT7JCUXHWovy1pkbbUhJ4tuOLyM71cIcNIrOfmGZkQnq2c9aUHmxJ89Nb/OcwWHMhpernEIvzwdtHj2T1AXmiAe4gYhcZ1yYXZIoLr8aQtD2FmLr2KrQEeudwH7sGrFRrPcz83awoWERxIcHvxcoUMVoymyNsbpCNy4FJ4HupDJo2nFfqSWExw0OuFZG0yoHKjpWtkU2AQCc0KvzevVqhdS5RBjrGo4BiS8Xo0IBKeWSvUWgUuPXvPQdohRzMp5Zi9Cg21i9etseJfVHCwv7Xf91W9kpijrRriE3KXNrDcjMjkZ8Wb9RgBjmn82KQGFhdc2YbpoX40hiXc+r12E4d91bKLwAvKtfSLlzqkv0P/7v/5jHpV2RYruZln9OrNjqmtJqH+1cDiggNlEmFjqEM90yTZC/Derv3+TDSEaBVuIIRE9HskLHVIn/c59B0+uxaRHVL7a67sqwgODAbDD3VqTSQa4iliPGT5+zUKa4i88dTLPGNRTXDCUW9lko3nyasvsV96DtUEB5bVJT/a2DeNU4vdmaqCM1t05raEnNtK4yMPrbVQOERVwYEVn0R0qKMb+yDvVvtMYUF1wZk1ayqT3DVa/FjgtUJ1wYHi5+bl+iTBtdxnbiI4KD+XaqjTG3MolNbYLz2HZoJTJtm8XD+0UMDaZZBjNBMcbGWSfqjmNvX2/Bw0FRzwcluZJJcWcA4TZKC54Gxub14ul3JpC7kMNBcc2PDeyiQ5bF0GOUaK4PZlks3LZVA6k3nqOUVwsJVJ2lP+3LoMcow0wTmweJuO9vROdq51bDyCNMHBGo6j3xYqg9Q6Nh5BquDMtux3k9wFiiTeK9cDUgUHZt3m5eqSd+vlQni64ECZZFtA1KFqgDsYvaALwVmmbwuI5VkWCvaxe0EXgoNtAbE8ebceFgqH6EZwoEYk3xgy3sYY2XHsT/hria4EB9654bbXFl6nkd38ULuMkyBj0J3gQBhgvG0hEaMQKmfL2pgfgy4FBxLdsv21Ce80ebRiI6+YaPmCninoVnAF6kdes8CwZvB2ymRPdigHIJQ9engN2Rh0L7gCFz0kwWp2VrPyPInxXaN+E5pJKE/rqeQxBqsR3CGcwzejeb+7Rv1ufQ9hSaxScBvWi01wGxri6uq/xnUQ1wRn2NkAAAAASUVORK5CYII=;" vertex="1" parent="1">
          <mxGeometry x="110" y="602" width="35" height="35" as="geometry" />
        </mxCell>
        <mxCell id="jjM4XxSEG5LytGMmibBt-64" value="솔루션 영업점&amp;nbsp;&amp;nbsp;(:9091)" style="text;html=1;strokeColor=none;fillColor=none;align=left;verticalAlign=middle;whiteSpace=wrap;rounded=0;" vertex="1" parent="1">
          <mxGeometry x="150" y="604.5" width="173" height="30" as="geometry" />
        </mxCell>
        <mxCell id="jjM4XxSEG5LytGMmibBt-65" value="" style="edgeStyle=elbowEdgeStyle;elbow=horizontal;endArrow=classic;html=1;curved=0;rounded=0;endSize=8;startSize=8;entryX=0;entryY=0.5;entryDx=0;entryDy=0;fillColor=#fad7ac;strokeColor=#b46504;" edge="1" parent="1" target="jjM4XxSEG5LytGMmibBt-61">
          <mxGeometry width="50" height="50" relative="1" as="geometry">
            <mxPoint x="968" y="320" as="sourcePoint" />
            <mxPoint x="646.5" y="411" as="targetPoint" />
            <Array as="points">
              <mxPoint x="60" y="390" />
              <mxPoint x="40" y="410" />
            </Array>
          </mxGeometry>
        </mxCell>
        <mxCell id="jjM4XxSEG5LytGMmibBt-66" value="" style="edgeStyle=elbowEdgeStyle;elbow=horizontal;endArrow=classic;html=1;curved=0;rounded=0;endSize=8;startSize=8;entryX=0;entryY=0.5;entryDx=0;entryDy=0;fillColor=#fad7ac;strokeColor=#b46504;" edge="1" parent="1" target="jjM4XxSEG5LytGMmibBt-63">
          <mxGeometry width="50" height="50" relative="1" as="geometry">
            <mxPoint x="970" y="320" as="sourcePoint" />
            <mxPoint x="120" y="588" as="targetPoint" />
            <Array as="points">
              <mxPoint x="70" y="400" />
              <mxPoint x="50" y="420" />
            </Array>
          </mxGeometry>
        </mxCell>
        <mxCell id="jjM4XxSEG5LytGMmibBt-67" value="" style="edgeStyle=elbowEdgeStyle;elbow=horizontal;endArrow=classic;html=1;curved=0;rounded=0;endSize=8;startSize=8;exitX=0.5;exitY=1;exitDx=0;exitDy=0;fillColor=#f8cecc;strokeColor=#b85450;" edge="1" parent="1" source="jjM4XxSEG5LytGMmibBt-23">
          <mxGeometry width="50" height="50" relative="1" as="geometry">
            <mxPoint x="120" y="275" as="sourcePoint" />
            <mxPoint x="128" y="470" as="targetPoint" />
            <Array as="points">
              <mxPoint x="128" y="380" />
            </Array>
          </mxGeometry>
        </mxCell>
        <mxCell id="jjM4XxSEG5LytGMmibBt-68" value="" style="endArrow=none;html=1;rounded=0;entryX=0.5;entryY=1;entryDx=0;entryDy=0;fillColor=#a0522d;strokeColor=#B46504;strokeWidth=2;" edge="1" parent="1" target="jjM4XxSEG5LytGMmibBt-10">
          <mxGeometry width="50" height="50" relative="1" as="geometry">
            <mxPoint x="968" y="320" as="sourcePoint" />
            <mxPoint x="670" y="300" as="targetPoint" />
          </mxGeometry>
        </mxCell>
        <mxCell id="jjM4XxSEG5LytGMmibBt-69" value="" style="whiteSpace=wrap;html=1;aspect=fixed;" vertex="1" parent="1">
          <mxGeometry x="606" y="360" width="260" height="260" as="geometry" />
        </mxCell>
        <mxCell id="jjM4XxSEG5LytGMmibBt-70" value="&lt;strong style=&quot;box-sizing: border-box; color: rgb(23, 43, 77); font-family: -apple-system, BlinkMacSystemFont, &amp;quot;Segoe UI&amp;quot;, Roboto, Oxygen, Ubuntu, &amp;quot;Fira Sans&amp;quot;, &amp;quot;Droid Sans&amp;quot;, &amp;quot;Helvetica Neue&amp;quot;, sans-serif; font-size: 16px; letter-spacing: -0.08px; background-color: rgb(255, 255, 255);&quot; data-renderer-mark=&quot;true&quot;&gt;211.240.6.5&lt;/strong&gt;&lt;br&gt;&lt;strong style=&quot;box-sizing: border-box; color: rgb(23, 43, 77); font-family: -apple-system, BlinkMacSystemFont, &amp;quot;Segoe UI&amp;quot;, Roboto, Oxygen, Ubuntu, &amp;quot;Fira Sans&amp;quot;, &amp;quot;Droid Sans&amp;quot;, &amp;quot;Helvetica Neue&amp;quot;, sans-serif; font-size: 16px; letter-spacing: -0.08px; background-color: rgb(255, 255, 255);&quot; data-renderer-mark=&quot;true&quot;&gt;192.168.10.72&lt;/strong&gt;" style="text;html=1;strokeColor=none;fillColor=none;align=left;verticalAlign=middle;whiteSpace=wrap;rounded=0;" vertex="1" parent="1">
          <mxGeometry x="756" y="362" width="110" height="48" as="geometry" />
        </mxCell>
        <mxCell id="jjM4XxSEG5LytGMmibBt-71" value="" style="shape=image;verticalLabelPosition=bottom;labelBackgroundColor=default;verticalAlign=top;aspect=fixed;imageAspect=0;image=data:image/png,iVBORw0KGgoAAAANSUhEUgAAAa8AAABVCAYAAAD+FWvKAAAAAXNSR0IArs4c6QAAAARnQU1BAACxjwv8YQUAAAAJcEhZcwAADsMAAA7DAcdvqGQAABIjSURBVHhe7Z2/q2bFGcf3TwhWVlaWNgGxEnuL7RZLwcJOCBbBWGwRLAKSxkIILAGxsMiCFpGEGDAYyK5BCCzEQpCIgkHQYsXCSIo3+3m982beuc/MPHPOmfPrfj/wZe/ee86c884783zn15lz7SCEEEJsDJmXEEKIzbEq8/r4/peHP//7n4fffvrXw68+/sPhZ//43eHZv79xEv9/+d7bx7/f/vyjw92vPz189f23F2cLIYS4KixmXt/99z9Ho8KMfvqXXx+u/f7nP+qPN9t0cc6NO7eOpoYBCiGE2DezmheGRY/p+t9+c2ZUP/nTL0crNTNMUUYmhBD7ZBbz+td3Xx+H/KY2rJKCkfHzW5/dvbgTIYQQe6CredHziXtZqcHMpWCYDCsKIYTYPl3Mi0UULLBY2rRSBRNj6FIIIcR2mdy86N2szbRScW8sEmE4UwghxPaYzLzobR1XDa7YtGIde2EPTJYl+UIIIbbFJObFkve197Zy4p6f+uC140pIIYQQ22C0edFzwbgsY9iKjr2wB9IwohBCbINR5nVclLHB3lZOmDC7dgghhFg3g83ruAR+R8YVhIExDCqEEGK9DDKvvRpXkAxMCCHWTbN57W2oMCcMTNtLCSHEOmkyr+PijCtgXEF8Vu1aL4QQ68NtXmE5vBXk96pg1EIIIdaFy7zofVw14wrCwNhUWIix3L9//+InIcRYXOa1pZ0zekgLOEQrGNWHH354eP311w/PPPPM4dq1a4dbt25d/FUIMZaqeR33KrzCxhVEHiy1CwdB8J133plU77777jHdL7744uIqYizk54svvnh45JFHjmaV6s0337w4UuT44YcfDrdv3z6VU35euox+88036jWvkKJ5XeXhwlRLDh++9NJLZjCcUvQOMDQxnJs3b5p5GyTzqoNRpPmGiS0BRvr000+f7uO55567+ItYA0XzuirL4r1aavl8LShOLQ1vDeOVV14x8zNI5lXHMq+lGlVhuDcW37FYB1nzIkir13UujJwHtOdmbvNCjz76qIYUG5F5jWdN5pXeB2JIWCwPveKsee19F42hWqL3tYR5Bd27d+/iLkQNmdd41m5eDCOKdWCaF7urq9dlC0O/cWfeYbUlzQupB+ZD5jWeNZnXe++9d+le1JhbD6Z5sTBBva68MPY5X5+ytHk9/PDDF3ciSsi8xrMm8wJWkL7wwgvHRVOffPLJxW/FGrhkXiwHl3GVRf7M+Qbmpc0LaRFHHZnXeNZmXmK9XDKv259/tHnzmuP+ucZceMwLmMT0iGdWGArkGZrcM0mWRBmZ13hkXsLLpYi09YUaDOnxYPXx546fg+vM9eJKr3kNxfsc2fvvv39xhrCQeY1H5iW8nEW945DhhhdqcO9vfXb3/5/lgXn1MjDSnWvosLd5AQ9gWunG4j7GQGBiwhsTREvv8EEvlHkM7iPcE/fHfQ5B5jUemZfwchb1jjvHb7TXhXEx5BnT28DQHMxhXlbQSDVkmTArtp5//nkzvVhPPPHEcR/A3maGWb366qvH59is+4jFRH1Lb7OHeZEnjz322OHxxx83xWIa5iPJtyeffPJw/fr1rEhrDJSR0jUoH2MN+iqZF40nvjc0tMF0lTmLelt9X5dlXAEM7HhMh8/Fded439cc5gWe+S8vBFTrfI8IhFOv7KJHFW/10yrPgpWpzQuTtdKJxTUDGJl1TKwxeO5nbBBek3lhKgypU/8QP2M4OShj6fEpYf/Lhx566NLnRDRIyOch+UidIW2ui/h5LDTe4s8Ul7cA+cTIDdeLNRbqHA3IkB7XiOPCWWne4u7xJeMK9DIw0ptjt3kKjVXQY02BtR1OqhpUTuu8IbIq/xCoAFb6Q1TqiU1pXrW0EEEuhvSt42K19CRTrPRiUX7GsibzwozSeylt0Gs9FxYgLU9vP1Zr+bfqXslsPaSN0NxjM1Z5JW4NhXKappca4lk0wgisIL1WeYwr0MPASGuOea+5zIuhOyvtoNrWOJ6Weau45tAdvQmEnt5Iq3JBZSrz8nzf1hAg+WQdG2uowWAgVnqxCJ5j2aN5jakX9NC85X8O88KAc1gjG+RJK1Y5Zug85RT1trarRotxBaY2MNJh8+LezGFeFHIr3VilwEdAt86ZSq3DKFYQnFIMbaZMYV6efCwNYXoW3gwJaMx1WWkFlYJaC3syL4wn931Sl6jXlBnmhGuNLI+BLW1euRjSWnetRrSVxinqsex7yl5JTw0xrsDUBsZQa2/mMC9P6zA34d+jx2XJWxE9RjyF0go11rwYFrHOi1UyLvAM2/J8XwvMM1jpxGpNM8eezCsVhkWaOcIcm3UuAb3G0uYFVllpadhYsS7Xoz9FPZaYb8G8xhhXYEoDI43e9DYv3pdkpZmKypXiCZaxaMETpPlMVGbrmJw414On9xErtIIJHN5FHVZLcIx5eeblvMOO1rmxPIEwxmOqU7FX82qZa8zVqVoDYQ3mBZTT+BxE3aphzXOl87oxp1K3hZWGUxhXYCoD455Iqye9zItWkmcZO8otk7eOtUQlyFUkgoTXNIZUYEtUwlyLDgiYuaEcy8RhqHl5voOWno2nJ5z7DCmeXiyfeyr2aF7xCjkvVjlmGLLEWswLrAZkaf7L+t5rjdVT1Hv53turNq8pjSswhYFxX72Xy3vMiy/aK5bjWmmUZFVAhhGtY2NR2D3j9eBJD5XgetY5sdJVSyVSQyoFoiHm5ekltr5JGGOy0onlfeYrDV6WrF7oUPZmXmPeAm3V+1L5W5N5gfU4QK6ssCAjPbZ276dIsOad5HsYV2CsgXFvvXeY95hXT+W67taxsei5tFYeT7DM9UI8vS6G51oJw6ql+QpoNS/PsOnQwF3rydZa8QErAMXiM0zJ3sxrDFZeUD9yrM28rEaUdb41z1era7B68+ppXIExBrZ388oFp9L4fpB3aCqlFtTpOVrUht+8AdvC07toMS9WK1rHxCoNs9Qg4FtpxqoFCE9jwBNkWpB5nZOOkpRGDdZmXmCVw/gzWHlWMuiYVZvXHMYVGGpgezYvhrRy1BYYcM9DsQJYKstMrONijTEDD17z8szvjXmYOGClG6s2iV5rRLQGMg8yr3PSXkmpTq7RvMDqWfGdkpfp71t68qfc/cXK5rzmNK7AEAPjPtcw5zW1cosLAtY5sYb2ugK1wJkGNOYCrONi9cZjXrXPhaYwLvCUmxyeBsRUy+NjZF7npPPA1vOFgbWaF1jz7NbzXC2cjl7TasMljCvQamDcK+f0ZE7zIgCXKihQIaxzY42FwGilG5TOw1mBI1ZLi24oNfPyiAA0FR5Dz/VGPSsWeyDzOmcv5mX1slK1NnhPucs7sNZgXksaV6DFwLjf3sxpXp7CXmuVT2EUVkWMlY7906uxjgsqPS8yFWPNqxSYhmKt4oqV+66sY2P1yk+Z1zl7MS8o1ekhvfhT7q7hdShrMK5Ai4H1xmNeFFIqVk783bMU3fMwYa1FP2RFX0rtGunYf1rJUnmXho9hip4Xi06mpGbqiPIRg1lYx8XCZHog8zpnT+YFVo9+aKPtlLsf3//yaB5WcJ5DazKuQM3A+D1vnu7NmLmLFOvcVLXuu7UENlZpUtmLFThipQZZC9JbMS/E9z0VBC/rGrHS+c3ac4BTfL85ZF7n7Mm8SmWRvG7llLsE6qXMa43GFSgZGL/b2q7ynpZ4LThRga3zgsa2zqDW+scoYmrHT9EbrFEzL/Leu5PIlGZbe4QgfvTAM082JNB4kXmdsyfz4t7jtFK13utZ7qbBeQ71MK4bd25Nunw9Z2D8fw7TndK8wDo/FUGshHVOrFIl92Atr42VjpHXemqoNx7zAs9LP1HaIxpKaa4hKPS2a49ATNEwKSHzOmcv5uVZAJTbgi7HWe7O/awXxjX1yxwZxuMzoN4Gxv33fsYLpjav2ko+VCtItVYUhX4MVpqxUnMtDUkE9ewxgNe8PPcaRECcAivtWAQXz331WB4fI/M6Zw/mZd0Xn8saLWlZCHSWu/Qi5jKvHj2uYFyna3Q2MP6dg6nNC6w0UlHocqSF2tLQiuOZO7Jg30br2CD+3hOveYEVpHMqfQ9e0iCYiq28uD/rb7F6I/M6Z6x5jR0BGWteXD8+H8UNY2tI21vez3KXh20xlRD8e6lnj+vStToaGD3VOehhXp7XoFhvLw14gm+pouWwKmAqTMLC06McssSbz+pZBdhiXlBb+BKrNoxbo8UscxqSd63IvM5pMS9rvnJsuRlrXtaDyGmj1to/02O6l3KXlytaJjCV5jSuoB4GRppTf44cPcwLapuuolLgYGGHdU6slpVpHuNCBLgc1vGpCAhe4gBWM7BW8wIr4OTU+hBnSm2ot6ZSvk+FzOucFvOyejljh+/T3niLeVlxizxNsRpxpYZz4FLu9nxYeQnjCprawOilYmJz0Mu8rDFnSzm8PQcKvFVoA7TEPEOFqPY6E89wJiIIlFqlfDaulZ5Xuv4Q8wKvaSNPizSHFVy9mmOHEpB5ndNiXpA2SMdsRg3pdmZe87LyomSk1qhJ7ZnTS7nba+hwSeMKmtrA5qKXeUHuhYuxckEX0spVEgWfAE9BZdiSwuzpvcXyzKN5V/MhWnjcE/eC+Ln2nFOuUg01L/AaC8FozCS8laZHpcbHlMi8zmk1L2tVX8tIQ4zVEPSYl/Udeho/1vxX6bs3c7fVFGpag3EFbdHAepqXN2iWAqb32aWx8gbQlrmkoeI7SRljXpAO0eTkGVLJUbtHS2Ou14rM65xW87LyD7XmoWVcyGNeHJOe58VqTOeGy81U73796WS9rzUZV9DWDKyneYFV2FLVJutbejtD1Fr52JndSmcqWY8SjDUv8PZkh66cHGLsvZfHx1jBl3zDNPhbL1ls0bwgVw75fQ3yIh0qjFUzL+s5wZZFI1b5JLZYZHOXhRtW4G/RGo0raEsG1tu8vIG+VHHpmdWWqg/V0FeEtMwltSi3W8cU5gWe7xsNnYeqDYummhOCp3UPvWWNLGzVvKD0HTNvy7A99YPPSP2ibJJ2emyaTsm8rHkrb5mPsdKxFn5lcxfTGdP7WrNxBW3FwHqbFzA0ZKUby7NprzXmPlRUlNyQgRfO9/QsvSr1QqYyL6jtdBE0ZNsrz2MSQXMsj4+ReZ0z1Lz4PJ46XRJDh6mR5MzL6jG1rDROsea/0vpTzN2hy+a3YFxBWzCwOczL20vxmAnHWK24Fg1psZUgPes6XmESpcAFU5oXlIZvYnmGg2IIbFY6lnJDar2QeZ0z1LwC3kZQKuIBpHNfOfOKj0FjVzmC9ShPPARZzN0hO81vybiC1m5gc5gXWA8UpmoZqqKgeYfAEPNI9Ap6QvreBSZUVIKHN4CHXieTzqn4/RBDJlhRia00g0ibINOC9RhAqjEt56EE8+IzzyWutxXzsuZaa1APPat66amlZdRjXiHtOD/HjphA6M3F3xUK31U1d1v2O9yicQVtoQe2ZSiIVG4qB0Ge3gIVk2EJgoQVPHrC9bguZsZ9cE/hfmh1zt3jmBtrXiEV+SP2RSjz1MMwLMic1xbLu6tp4DGPLRtXkAxMXBVqq0PnXB4vxBBc5lVbOr8H4wqSgYm941mw0Xv4VoixuAdleemiZSZ7Mq4gGZjYK2EeoSYh1k5TKU1NZY/GFcRnY8GKEHvBu6J0yMISIeamuYkVls/3MK6nPnhtFcaF+HxsUizE1ggT8exKgvh/ywPkQmyB5pLa63Uga+lxIYyLYVIhtojnkYechu5mIsTcrKKZtbYel4xLbJmh23QN2a1DiKVY3Lw0VCjEtAwxLy2NF1tjUfNam3Hd/vyjizsTYru0mhfGNfdD4kKMZTHzWotxcQ9IKwvFXmgxr9qbqYVYK4uY12qM60Fvi4Uic73OX4g58LzyhF27W96zJMTamN281mBcx96WhgnFTmHFIPs0sikyizAQe0ny/FbYLVyIrTOreS1tXMG0nv37G+ptCSHEhpnNvJY0rmBaDBFqbksIIbbPLObFA81HE3lgIHMaWNzTkmkJIcR+mHXYkN3pj+8HuzCxqY0spEn6bGPFM1tfff/txdWFEELshdkXbATojb187+0fTScys1ipOQVdOpbzH4hhQQxLO8ILIcS+Wcy8Ylg8Qa8M48HQbty5dew5WUbF75g/owfHNk6YoMxKCCGuFqswLyGEEKIFmZcQQojNIfMSQgixOWReQgghNsbh8D95BhWSUVMN1QAAAABJRU5ErkJggg==;" vertex="1" parent="1">
          <mxGeometry x="609" y="363.5" width="136.89" height="27" as="geometry" />
        </mxCell>
        <mxCell id="jjM4XxSEG5LytGMmibBt-76" value="" style="shape=image;verticalLabelPosition=bottom;labelBackgroundColor=default;verticalAlign=top;imageAspect=0;image=data:image/png,iVBORw0KGgoAAAANSUhEUgAAAJwAAACNCAYAAABCMhNzAAAAAXNSR0IArs4c6QAAAARnQU1BAACxjwv8YQUAAAAJcEhZcwAADsMAAA7DAcdvqGQAAA+oSURBVHhe7d29q3VHFQZw/xB7C6s3jaBgJdaWaiMKARULtQtIKj8KCwtBC5EUqRQJr4kExagpRBIjguIHKgGjgiJC/ChCIHr1d86d63nPu885e+29Z9bse/cDD+/nOXtmzTNrrVkzs++brjZsaIhNcBuaYnWCe+XV31z96PffvvrWr568k/zub7++6/+f/vHytUXWhVUIjsi++tKnrz78zbddfeCpt1w9ev/e//jIHea9nR0+9sw7r7728y+uSnxdC44hv/DDj++Ehgy88f/86NPv2AnwI0+/fTch//zPV64t1y+6FNy///PG1f1ffmVn0E1o40h4n3j2Xbuw2zO6E9y/Xv/71Wd+8KFd2CC4IeNuHObe493bRYXX33jt2qJ9oSvBCQlm6ebV5pG3e+w779lN3t7QjeCIjZE2sS1Ddnz8ufd1J7ouBCdn+9zzj25iW5g83Zdf+NS1lftAF4KT6DLOkNE2ziO7/vgP37u2dD7SBcfl82zbAqEO2VVeLIr0gHTBqR9t3q0u2VeZqQekCs4OwgefeuugkTYuS+WSV1/767Xl85AmOC6+7CIMGWjjsmRn0SQbaYJ76Y/f37xbY7L37/72s+sRyEGK4FTB1dzsAQ4ZZmMd8nLKT5kLiBTBSWDlFENG2ViX7P78y/evR6I9mgvOjoKOb2WQHLL7J599d9oORHPBfemFx7aFQjKVSZyjy0BTwSmDlIODG3P5/m+8OaVM0lRwNpO3hUIfFGWUpVqjmeAkqlsZpC8aj1/85cXrEWqDJoKToCqD3IaFAg+Nt6UvDru2PKzZRHBrL4MQl0Tbr9ICg2RD3N+tfQHEy7Usk1QXnDKIgVqrRyAo4nLE57iUoGqvkLrmVMG4KJO0WkBUF9yaD1Zq9+PPvfdiyFFiWLPoeOpW+6xVBSchXWsoLTN/7NW7tZ9YJjplq9qoKjjeYa1lEAMQOUMmvK655GOytCiTVBPc2ssgBiB6o33tK3FF+dplkiqCk4DqwFqNr93EE02k136+r/S7ZpmkiuCe/OnndyFpqFMtOVXwUwU3Z5/YM6e2d0nKuWve3l9ccBLPzFzGoJX6mKRfW/w5MpitBFfa6vfaiv6cbb/IYimKxQWXGVbKcyX7hM9ofjVjGXFsu1oIrvw/r9+SK3qW9joJbbGVGSE8u1aZZFHBMVaWoYQCOwCnRCIvGVu6qC04/+dSfU9tL/NkjTbWKJMsKjihwGANdaAmrYbljZdggHm6S22sKTjfrQ1jvrtM4AybGks2WBqLCU5oaF3kNRAG5JlfP3Hdisvw9shLXrim4Dw7Wt+ztZaR15nI7LUkFhGcgWHo1jPR4BF6BPKkS16uruDuhUMV0WlPa9EVOyxZJllEcE/85LMXvcbSlN9MOeUw5qhUTcERTfR7gUjL54+/syZNkEgEuYTZgjP7Wu8oTBUbGOy1ebgCq1mCO9f2GtSnpcokswXXetOaJ51zAWTMSrqu4Oa13wRvvXrVJ31bArMENyYBX5KeNbfjYw4U1BSc7+Zh53iM/QKtbQqjX0vss04WnETS6qmVeycSIphzn3Lsm5pqCg79HyeHo99/CC8abCk69jdZ52Ky4PbHxtt1WJ4onEyBgRX6x5ZtagsO/T+c2icTvvXxL/abexx9kuAMRMs8gtimbigbUCFsrBCwheDQc/QtWtop0Lexk2gJaq/+zSmTTBKc0BQx7ByWUDrlBSxyjilF01aCQ88SKaaWHixAWkYaz5qz6AkLrvWs8qwpyarSg88a0KHvPceWgivU1ilenLfx+Sn9nEqim7roCQmu9dvGPcfzomAMXm3qIGQIDr1+QdkmCnlVSyegj/o6BSHBtT42TjTRY95lJ2FOMp0lOJQbTykMz+1zlHQwZXKMFpyBvFShX5IGbsrPGDDoc3OaTMERjWdHyz+ta6LaaZUcza1HC671sXHPis70fWiZ38ZMwaE+RA9A7sskbV8WpJ3RvHOU4Bi+ZRnEoDk5HJk9PILPLeGBswWHBjO6WDL4LXM5FFojZZJRgmt9bHxKfjB2F2EMexAcTyWFiUB7W+7+IJuPOfxacFFwZllL71aMFfFuFhZLtrEHwSFvFa3st6yRFkYWOmcFx1W6J9AyL2CsyIyBpY3ci+C0g5eLTD4OomUlAfV5bAp0VnAZx8YZK5K7EMVSobSwF8FhNL3gJFo6iEI6GdPOk4JrXQYp5J4jM7rGIYKeBBfxHgU12nGJpUxyaQFxUnCtj7+gRgvhY2FS1CgF9CQ45OUiW0mtdx4KPfPSBaFBwe33IduKDT0zsom939ddvp29CU4fI/Uu49c6jyvU/3N2GxRc62PjhZ4Zyd9qncnrTXC+U1gdC+G3ZWXhkNp6bofoIcG1LoMcMxI6TIwaCXJvgtMe+XSkPdrvc0PfV5vnyiQPCE7Cl9XQYtSxVeuaixrf2ZPgUH4UOR1csy2XyAlwBkMLnQcEJ3/KSDYxumAwg2pNjF4FFzkZvB/L9nl4oRxy6Nb+jeB4jEw3bKAM2FgI/bUM2qPgfK8L52PR+vTIMYsDOY5YN4LbD2COd8OoQWsu/XsVXGThYDxrtWUsPf84DbgRXMYe3CHNxshZ+Zq3xnoUXDTlMNDZgjM+x3W5neAkd5nhFIcadw72W2sZtEfBaVPkXijB1VjBR1gWD4fYCY5hWx9rOSbBRZLiuyg4bRq7xdWD4EqbD/O4neCs+IY+0JIEF9llqC04JZfozaRadUEsgzcWvQiOIzucuDvB9RLve8nh0IIksutR+7AD8dg3HoseBIcEdzhxuxGc50fOwdU+OqU9x/nHOezbU28CEE+kPT2sUgsPb97dCC57NjCOHGgsatbhCn3/mLxSyKi9Hcg+kYs1fvphbftcYgmpD3k4Chz6QEtGZ3CrSVIq/Ke23Ai/ZigtJJ5Ijru/UJMvOLaRbhTsBFc7/xhDz46swniVVm0mOpPBIBI6quQ7FcHztBJ+JKfMrquisTku5ewEB63vLhxT445XNJfQ8h6m5/AY9giRAFoNaJlUkVVz9njiUJp0I7jMjftCDeQ9xqL1m4OySDhD+5LnkD2WOLSBfyM4eVy2CyaeSPGXOHswbG2yS6RkxBNmnmlEXlnKc+yVbwQHrS88H9OzIxvUck85Qos8LpM8RcTz70+K5EeroVX1A4LTKZ0b+oJWNJsjULu7zWFVOJWrRsJpzV2YsTQmQznnA4IDqswcwHPHk4cgFcieJDXJU0Uu0FjlZ1cctPnUQYyHBCdMZbpjYo/Um6Dmpnk2TaaIdxOlMvM3QsdT5a2HBAeZRcN9CIm9dyzbyLVoDCJHtiB75c5ZDR0tLxgUXLZbNqsjYRWyFzxLk+1NvsMq/SVkL6JKvnkOg4KDzJUO4UQ28uG25XL6EsndwLs9Mm3As17aDTkpOMjyGiUPiB6A3B9ZWn9djs0j+8oFPsPLDH1nbRLbmMMFZwUnrGWFqSn5i1SA0dccWks4jGxjgTw2q9/aPHZb8qzgIKvOpRPyyKiXM1DZZYE5FBLPJd2nkDnRRJWxlYWLgpOI6kjGABJ6ZEunQB6xxnxOm6NeHXi3rFSiOIaxpZuLggP7m1kDyJDR8AK8hB+0MfSdPVI/IwdQD2FlmpW7KUdFXpg4SnAgRmd4Od41sr96iHJZuvfwqo2R07yHyHQGxiZyVxZGC67Fke5TZNDoW80LeDqzP8sDXCKxSRsihe4Cnt93ZE0ogovWS0cLDjLLJNHDmYeQ48gzMtp+ivpEbJHjWIcg0MwtvbFlkGOEBJdZJvHcqaEVLH64f94yO8QaLB43cmT8GIrCWaF0jgMICQ72e3U5KyIGnrJqPYS8zndlpAcmDdspNUU25I+xT2/yCtzGYapnDguOp8iscxFK9IdlHMPMJNy9AB6p3hfPMUhCoPA+B9reos2nyDNHz+cdIiw4MOCZ7tzsnjtwYP/VK8JMoBLmhp45hft27oUhFZgTPgvK5nzmAsi4z+nLJMGBK31ZHTeInh1dIZ0CryFEyPGK1/NrpH/aVD6LRKyIu1QbeZTsbTvPnpNHw2TB8TBZXg6LGJbwdIcgPrfW5VlFgIqb+jrE8m8moHuqvP9SIisgNmGMkI/t0JL6OaUIf4jJgoPsk7ZEh1NrdGNBhEQklKDn+ZXYDcCUGtpYCKPEnGlnJPa5CzaYJTjGztqBKCyhbO5CokcQeQ/1QzYmeuKfi1mCg/0ZtFxXj9y9GTin3NAT7JCUXHWovy1pkbbUhJ4tuOLyM71cIcNIrOfmGZkQnq2c9aUHmxJ89Nb/OcwWHMhpernEIvzwdtHj2T1AXmiAe4gYhcZ1yYXZIoLr8aQtD2FmLr2KrQEeudwH7sGrFRrPcz83awoWERxIcHvxcoUMVoymyNsbpCNy4FJ4HupDJo2nFfqSWExw0OuFZG0yoHKjpWtkU2AQCc0KvzevVqhdS5RBjrGo4BiS8Xo0IBKeWSvUWgUuPXvPQdohRzMp5Zi9Cg21i9etseJfVHCwv7Xf91W9kpijrRriE3KXNrDcjMjkZ8Wb9RgBjmn82KQGFhdc2YbpoX40hiXc+r12E4d91bKLwAvKtfSLlzqkv0P/7v/5jHpV2RYruZln9OrNjqmtJqH+1cDiggNlEmFjqEM90yTZC/Derv3+TDSEaBVuIIRE9HskLHVIn/c59B0+uxaRHVL7a67sqwgODAbDD3VqTSQa4iliPGT5+zUKa4i88dTLPGNRTXDCUW9lko3nyasvsV96DtUEB5bVJT/a2DeNU4vdmaqCM1t05raEnNtK4yMPrbVQOERVwYEVn0R0qKMb+yDvVvtMYUF1wZk1ayqT3DVa/FjgtUJ1wYHi5+bl+iTBtdxnbiI4KD+XaqjTG3MolNbYLz2HZoJTJtm8XD+0UMDaZZBjNBMcbGWSfqjmNvX2/Bw0FRzwcluZJJcWcA4TZKC54Gxub14ul3JpC7kMNBcc2PDeyiQ5bF0GOUaK4PZlks3LZVA6k3nqOUVwsJVJ2lP+3LoMcow0wTmweJuO9vROdq51bDyCNMHBGo6j3xYqg9Q6Nh5BquDMtux3k9wFiiTeK9cDUgUHZt3m5eqSd+vlQni64ECZZFtA1KFqgDsYvaALwVmmbwuI5VkWCvaxe0EXgoNtAbE8ebceFgqH6EZwoEYk3xgy3sYY2XHsT/hria4EB9654bbXFl6nkd38ULuMkyBj0J3gQBhgvG0hEaMQKmfL2pgfgy4FBxLdsv21Ce80ebRiI6+YaPmCninoVnAF6kdes8CwZvB2ymRPdigHIJQ9engN2Rh0L7gCFz0kwWp2VrPyPInxXaN+E5pJKE/rqeQxBqsR3CGcwzejeb+7Rv1ufQ9hSaxScBvWi01wGxri6uq/xnUQ1wRn2NkAAAAASUVORK5CYII=;" vertex="1" parent="1">
          <mxGeometry x="633" y="518" width="35" height="35" as="geometry" />
        </mxCell>
        <mxCell id="jjM4XxSEG5LytGMmibBt-77" value="통합 관리자 API&amp;nbsp;(:9090)" style="text;html=1;strokeColor=#82b366;fillColor=#d5e8d4;align=left;verticalAlign=middle;whiteSpace=wrap;rounded=0;" vertex="1" parent="1">
          <mxGeometry x="673" y="520.5" width="173" height="30" as="geometry" />
        </mxCell>
        <mxCell id="jjM4XxSEG5LytGMmibBt-91" value="" style="shape=image;verticalLabelPosition=bottom;labelBackgroundColor=default;verticalAlign=top;imageAspect=0;image=data:image/png,iVBORw0KGgoAAAANSUhEUgAAAJwAAACNCAYAAABCMhNzAAAAAXNSR0IArs4c6QAAAARnQU1BAACxjwv8YQUAAAAJcEhZcwAADsMAAA7DAcdvqGQAAA+oSURBVHhe7d29q3VHFQZw/xB7C6s3jaBgJdaWaiMKARULtQtIKj8KCwtBC5EUqRQJr4kExagpRBIjguIHKgGjgiJC/ChCIHr1d86d63nPu885e+29Z9bse/cDD+/nOXtmzTNrrVkzs++brjZsaIhNcBuaYnWCe+XV31z96PffvvrWr568k/zub7++6/+f/vHytUXWhVUIjsi++tKnrz78zbddfeCpt1w9ev/e//jIHea9nR0+9sw7r7728y+uSnxdC44hv/DDj++Ehgy88f/86NPv2AnwI0+/fTch//zPV64t1y+6FNy///PG1f1ffmVn0E1o40h4n3j2Xbuw2zO6E9y/Xv/71Wd+8KFd2CC4IeNuHObe493bRYXX33jt2qJ9oSvBCQlm6ebV5pG3e+w779lN3t7QjeCIjZE2sS1Ddnz8ufd1J7ouBCdn+9zzj25iW5g83Zdf+NS1lftAF4KT6DLOkNE2ziO7/vgP37u2dD7SBcfl82zbAqEO2VVeLIr0gHTBqR9t3q0u2VeZqQekCs4OwgefeuugkTYuS+WSV1/767Xl85AmOC6+7CIMGWjjsmRn0SQbaYJ76Y/f37xbY7L37/72s+sRyEGK4FTB1dzsAQ4ZZmMd8nLKT5kLiBTBSWDlFENG2ViX7P78y/evR6I9mgvOjoKOb2WQHLL7J599d9oORHPBfemFx7aFQjKVSZyjy0BTwSmDlIODG3P5/m+8OaVM0lRwNpO3hUIfFGWUpVqjmeAkqlsZpC8aj1/85cXrEWqDJoKToCqD3IaFAg+Nt6UvDru2PKzZRHBrL4MQl0Tbr9ICg2RD3N+tfQHEy7Usk1QXnDKIgVqrRyAo4nLE57iUoGqvkLrmVMG4KJO0WkBUF9yaD1Zq9+PPvfdiyFFiWLPoeOpW+6xVBSchXWsoLTN/7NW7tZ9YJjplq9qoKjjeYa1lEAMQOUMmvK655GOytCiTVBPc2ssgBiB6o33tK3FF+dplkiqCk4DqwFqNr93EE02k136+r/S7ZpmkiuCe/OnndyFpqFMtOVXwUwU3Z5/YM6e2d0nKuWve3l9ccBLPzFzGoJX6mKRfW/w5MpitBFfa6vfaiv6cbb/IYimKxQWXGVbKcyX7hM9ofjVjGXFsu1oIrvw/r9+SK3qW9joJbbGVGSE8u1aZZFHBMVaWoYQCOwCnRCIvGVu6qC04/+dSfU9tL/NkjTbWKJMsKjihwGANdaAmrYbljZdggHm6S22sKTjfrQ1jvrtM4AybGks2WBqLCU5oaF3kNRAG5JlfP3Hdisvw9shLXrim4Dw7Wt+ztZaR15nI7LUkFhGcgWHo1jPR4BF6BPKkS16uruDuhUMV0WlPa9EVOyxZJllEcE/85LMXvcbSlN9MOeUw5qhUTcERTfR7gUjL54+/syZNkEgEuYTZgjP7Wu8oTBUbGOy1ebgCq1mCO9f2GtSnpcokswXXetOaJ51zAWTMSrqu4Oa13wRvvXrVJ31bArMENyYBX5KeNbfjYw4U1BSc7+Zh53iM/QKtbQqjX0vss04WnETS6qmVeycSIphzn3Lsm5pqCg79HyeHo99/CC8abCk69jdZ52Ky4PbHxtt1WJ4onEyBgRX6x5ZtagsO/T+c2icTvvXxL/abexx9kuAMRMs8gtimbigbUCFsrBCwheDQc/QtWtop0Lexk2gJaq/+zSmTTBKc0BQx7ByWUDrlBSxyjilF01aCQ88SKaaWHixAWkYaz5qz6AkLrvWs8qwpyarSg88a0KHvPceWgivU1ilenLfx+Sn9nEqim7roCQmu9dvGPcfzomAMXm3qIGQIDr1+QdkmCnlVSyegj/o6BSHBtT42TjTRY95lJ2FOMp0lOJQbTykMz+1zlHQwZXKMFpyBvFShX5IGbsrPGDDoc3OaTMERjWdHyz+ta6LaaZUcza1HC671sXHPis70fWiZ38ZMwaE+RA9A7sskbV8WpJ3RvHOU4Bi+ZRnEoDk5HJk9PILPLeGBswWHBjO6WDL4LXM5FFojZZJRgmt9bHxKfjB2F2EMexAcTyWFiUB7W+7+IJuPOfxacFFwZllL71aMFfFuFhZLtrEHwSFvFa3st6yRFkYWOmcFx1W6J9AyL2CsyIyBpY3ci+C0g5eLTD4OomUlAfV5bAp0VnAZx8YZK5K7EMVSobSwF8FhNL3gJFo6iEI6GdPOk4JrXQYp5J4jM7rGIYKeBBfxHgU12nGJpUxyaQFxUnCtj7+gRgvhY2FS1CgF9CQ45OUiW0mtdx4KPfPSBaFBwe33IduKDT0zsom939ddvp29CU4fI/Uu49c6jyvU/3N2GxRc62PjhZ4Zyd9qncnrTXC+U1gdC+G3ZWXhkNp6bofoIcG1LoMcMxI6TIwaCXJvgtMe+XSkPdrvc0PfV5vnyiQPCE7Cl9XQYtSxVeuaixrf2ZPgUH4UOR1csy2XyAlwBkMLnQcEJ3/KSDYxumAwg2pNjF4FFzkZvB/L9nl4oRxy6Nb+jeB4jEw3bKAM2FgI/bUM2qPgfK8L52PR+vTIMYsDOY5YN4LbD2COd8OoQWsu/XsVXGThYDxrtWUsPf84DbgRXMYe3CHNxshZ+Zq3xnoUXDTlMNDZgjM+x3W5neAkd5nhFIcadw72W2sZtEfBaVPkXijB1VjBR1gWD4fYCY5hWx9rOSbBRZLiuyg4bRq7xdWD4EqbD/O4neCs+IY+0JIEF9llqC04JZfozaRadUEsgzcWvQiOIzucuDvB9RLve8nh0IIksutR+7AD8dg3HoseBIcEdzhxuxGc50fOwdU+OqU9x/nHOezbU28CEE+kPT2sUgsPb97dCC57NjCOHGgsatbhCn3/mLxSyKi9Hcg+kYs1fvphbftcYgmpD3k4Chz6QEtGZ3CrSVIq/Ke23Ai/ZigtJJ5Ijru/UJMvOLaRbhTsBFc7/xhDz46swniVVm0mOpPBIBI6quQ7FcHztBJ+JKfMrquisTku5ewEB63vLhxT445XNJfQ8h6m5/AY9giRAFoNaJlUkVVz9njiUJp0I7jMjftCDeQ9xqL1m4OySDhD+5LnkD2WOLSBfyM4eVy2CyaeSPGXOHswbG2yS6RkxBNmnmlEXlnKc+yVbwQHrS88H9OzIxvUck85Qos8LpM8RcTz70+K5EeroVX1A4LTKZ0b+oJWNJsjULu7zWFVOJWrRsJpzV2YsTQmQznnA4IDqswcwHPHk4cgFcieJDXJU0Uu0FjlZ1cctPnUQYyHBCdMZbpjYo/Um6Dmpnk2TaaIdxOlMvM3QsdT5a2HBAeZRcN9CIm9dyzbyLVoDCJHtiB75c5ZDR0tLxgUXLZbNqsjYRWyFzxLk+1NvsMq/SVkL6JKvnkOg4KDzJUO4UQ28uG25XL6EsndwLs9Mm3As17aDTkpOMjyGiUPiB6A3B9ZWn9djs0j+8oFPsPLDH1nbRLbmMMFZwUnrGWFqSn5i1SA0dccWks4jGxjgTw2q9/aPHZb8qzgIKvOpRPyyKiXM1DZZYE5FBLPJd2nkDnRRJWxlYWLgpOI6kjGABJ6ZEunQB6xxnxOm6NeHXi3rFSiOIaxpZuLggP7m1kDyJDR8AK8hB+0MfSdPVI/IwdQD2FlmpW7KUdFXpg4SnAgRmd4Od41sr96iHJZuvfwqo2R07yHyHQGxiZyVxZGC67Fke5TZNDoW80LeDqzP8sDXCKxSRsihe4Cnt93ZE0ogovWS0cLDjLLJNHDmYeQ48gzMtp+ivpEbJHjWIcg0MwtvbFlkGOEBJdZJvHcqaEVLH64f94yO8QaLB43cmT8GIrCWaF0jgMICQ72e3U5KyIGnrJqPYS8zndlpAcmDdspNUU25I+xT2/yCtzGYapnDguOp8iscxFK9IdlHMPMJNy9AB6p3hfPMUhCoPA+B9reos2nyDNHz+cdIiw4MOCZ7tzsnjtwYP/VK8JMoBLmhp45hft27oUhFZgTPgvK5nzmAsi4z+nLJMGBK31ZHTeInh1dIZ0CryFEyPGK1/NrpH/aVD6LRKyIu1QbeZTsbTvPnpNHw2TB8TBZXg6LGJbwdIcgPrfW5VlFgIqb+jrE8m8moHuqvP9SIisgNmGMkI/t0JL6OaUIf4jJgoPsk7ZEh1NrdGNBhEQklKDn+ZXYDcCUGtpYCKPEnGlnJPa5CzaYJTjGztqBKCyhbO5CokcQeQ/1QzYmeuKfi1mCg/0ZtFxXj9y9GTin3NAT7JCUXHWovy1pkbbUhJ4tuOLyM71cIcNIrOfmGZkQnq2c9aUHmxJ89Nb/OcwWHMhpernEIvzwdtHj2T1AXmiAe4gYhcZ1yYXZIoLr8aQtD2FmLr2KrQEeudwH7sGrFRrPcz83awoWERxIcHvxcoUMVoymyNsbpCNy4FJ4HupDJo2nFfqSWExw0OuFZG0yoHKjpWtkU2AQCc0KvzevVqhdS5RBjrGo4BiS8Xo0IBKeWSvUWgUuPXvPQdohRzMp5Zi9Cg21i9etseJfVHCwv7Xf91W9kpijrRriE3KXNrDcjMjkZ8Wb9RgBjmn82KQGFhdc2YbpoX40hiXc+r12E4d91bKLwAvKtfSLlzqkv0P/7v/5jHpV2RYruZln9OrNjqmtJqH+1cDiggNlEmFjqEM90yTZC/Derv3+TDSEaBVuIIRE9HskLHVIn/c59B0+uxaRHVL7a67sqwgODAbDD3VqTSQa4iliPGT5+zUKa4i88dTLPGNRTXDCUW9lko3nyasvsV96DtUEB5bVJT/a2DeNU4vdmaqCM1t05raEnNtK4yMPrbVQOERVwYEVn0R0qKMb+yDvVvtMYUF1wZk1ayqT3DVa/FjgtUJ1wYHi5+bl+iTBtdxnbiI4KD+XaqjTG3MolNbYLz2HZoJTJtm8XD+0UMDaZZBjNBMcbGWSfqjmNvX2/Bw0FRzwcluZJJcWcA4TZKC54Gxub14ul3JpC7kMNBcc2PDeyiQ5bF0GOUaK4PZlks3LZVA6k3nqOUVwsJVJ2lP+3LoMcow0wTmweJuO9vROdq51bDyCNMHBGo6j3xYqg9Q6Nh5BquDMtux3k9wFiiTeK9cDUgUHZt3m5eqSd+vlQni64ECZZFtA1KFqgDsYvaALwVmmbwuI5VkWCvaxe0EXgoNtAbE8ebceFgqH6EZwoEYk3xgy3sYY2XHsT/hria4EB9654bbXFl6nkd38ULuMkyBj0J3gQBhgvG0hEaMQKmfL2pgfgy4FBxLdsv21Ce80ebRiI6+YaPmCninoVnAF6kdes8CwZvB2ymRPdigHIJQ9engN2Rh0L7gCFz0kwWp2VrPyPInxXaN+E5pJKE/rqeQxBqsR3CGcwzejeb+7Rv1ufQ9hSaxScBvWi01wGxri6uq/xnUQ1wRn2NkAAAAASUVORK5CYII=;" vertex="1" parent="1">
          <mxGeometry x="633" y="430.5" width="35" height="35" as="geometry" />
        </mxCell>
        <mxCell id="jjM4XxSEG5LytGMmibBt-92" value="배달 API (:9092)" style="text;html=1;strokeColor=#82b366;fillColor=#d5e8d4;align=left;verticalAlign=middle;whiteSpace=wrap;rounded=0;" vertex="1" parent="1">
          <mxGeometry x="673" y="433" width="173" height="30" as="geometry" />
        </mxCell>
        <mxCell id="jjM4XxSEG5LytGMmibBt-93" value="" style="shape=image;verticalLabelPosition=bottom;labelBackgroundColor=default;verticalAlign=top;imageAspect=0;image=data:image/png,iVBORw0KGgoAAAANSUhEUgAAAJwAAACNCAYAAABCMhNzAAAAAXNSR0IArs4c6QAAAARnQU1BAACxjwv8YQUAAAAJcEhZcwAADsMAAA7DAcdvqGQAAA+oSURBVHhe7d29q3VHFQZw/xB7C6s3jaBgJdaWaiMKARULtQtIKj8KCwtBC5EUqRQJr4kExagpRBIjguIHKgGjgiJC/ChCIHr1d86d63nPu885e+29Z9bse/cDD+/nOXtmzTNrrVkzs++brjZsaIhNcBuaYnWCe+XV31z96PffvvrWr568k/zub7++6/+f/vHytUXWhVUIjsi++tKnrz78zbddfeCpt1w9ev/e//jIHea9nR0+9sw7r7728y+uSnxdC44hv/DDj++Ehgy88f/86NPv2AnwI0+/fTch//zPV64t1y+6FNy///PG1f1ffmVn0E1o40h4n3j2Xbuw2zO6E9y/Xv/71Wd+8KFd2CC4IeNuHObe493bRYXX33jt2qJ9oSvBCQlm6ebV5pG3e+w779lN3t7QjeCIjZE2sS1Ddnz8ufd1J7ouBCdn+9zzj25iW5g83Zdf+NS1lftAF4KT6DLOkNE2ziO7/vgP37u2dD7SBcfl82zbAqEO2VVeLIr0gHTBqR9t3q0u2VeZqQekCs4OwgefeuugkTYuS+WSV1/767Xl85AmOC6+7CIMGWjjsmRn0SQbaYJ76Y/f37xbY7L37/72s+sRyEGK4FTB1dzsAQ4ZZmMd8nLKT5kLiBTBSWDlFENG2ViX7P78y/evR6I9mgvOjoKOb2WQHLL7J599d9oORHPBfemFx7aFQjKVSZyjy0BTwSmDlIODG3P5/m+8OaVM0lRwNpO3hUIfFGWUpVqjmeAkqlsZpC8aj1/85cXrEWqDJoKToCqD3IaFAg+Nt6UvDru2PKzZRHBrL4MQl0Tbr9ICg2RD3N+tfQHEy7Usk1QXnDKIgVqrRyAo4nLE57iUoGqvkLrmVMG4KJO0WkBUF9yaD1Zq9+PPvfdiyFFiWLPoeOpW+6xVBSchXWsoLTN/7NW7tZ9YJjplq9qoKjjeYa1lEAMQOUMmvK655GOytCiTVBPc2ssgBiB6o33tK3FF+dplkiqCk4DqwFqNr93EE02k136+r/S7ZpmkiuCe/OnndyFpqFMtOVXwUwU3Z5/YM6e2d0nKuWve3l9ccBLPzFzGoJX6mKRfW/w5MpitBFfa6vfaiv6cbb/IYimKxQWXGVbKcyX7hM9ofjVjGXFsu1oIrvw/r9+SK3qW9joJbbGVGSE8u1aZZFHBMVaWoYQCOwCnRCIvGVu6qC04/+dSfU9tL/NkjTbWKJMsKjihwGANdaAmrYbljZdggHm6S22sKTjfrQ1jvrtM4AybGks2WBqLCU5oaF3kNRAG5JlfP3Hdisvw9shLXrim4Dw7Wt+ztZaR15nI7LUkFhGcgWHo1jPR4BF6BPKkS16uruDuhUMV0WlPa9EVOyxZJllEcE/85LMXvcbSlN9MOeUw5qhUTcERTfR7gUjL54+/syZNkEgEuYTZgjP7Wu8oTBUbGOy1ebgCq1mCO9f2GtSnpcokswXXetOaJ51zAWTMSrqu4Oa13wRvvXrVJ31bArMENyYBX5KeNbfjYw4U1BSc7+Zh53iM/QKtbQqjX0vss04WnETS6qmVeycSIphzn3Lsm5pqCg79HyeHo99/CC8abCk69jdZ52Ky4PbHxtt1WJ4onEyBgRX6x5ZtagsO/T+c2icTvvXxL/abexx9kuAMRMs8gtimbigbUCFsrBCwheDQc/QtWtop0Lexk2gJaq/+zSmTTBKc0BQx7ByWUDrlBSxyjilF01aCQ88SKaaWHixAWkYaz5qz6AkLrvWs8qwpyarSg88a0KHvPceWgivU1ilenLfx+Sn9nEqim7roCQmu9dvGPcfzomAMXm3qIGQIDr1+QdkmCnlVSyegj/o6BSHBtT42TjTRY95lJ2FOMp0lOJQbTykMz+1zlHQwZXKMFpyBvFShX5IGbsrPGDDoc3OaTMERjWdHyz+ta6LaaZUcza1HC671sXHPis70fWiZ38ZMwaE+RA9A7sskbV8WpJ3RvHOU4Bi+ZRnEoDk5HJk9PILPLeGBswWHBjO6WDL4LXM5FFojZZJRgmt9bHxKfjB2F2EMexAcTyWFiUB7W+7+IJuPOfxacFFwZllL71aMFfFuFhZLtrEHwSFvFa3st6yRFkYWOmcFx1W6J9AyL2CsyIyBpY3ci+C0g5eLTD4OomUlAfV5bAp0VnAZx8YZK5K7EMVSobSwF8FhNL3gJFo6iEI6GdPOk4JrXQYp5J4jM7rGIYKeBBfxHgU12nGJpUxyaQFxUnCtj7+gRgvhY2FS1CgF9CQ45OUiW0mtdx4KPfPSBaFBwe33IduKDT0zsom939ddvp29CU4fI/Uu49c6jyvU/3N2GxRc62PjhZ4Zyd9qncnrTXC+U1gdC+G3ZWXhkNp6bofoIcG1LoMcMxI6TIwaCXJvgtMe+XSkPdrvc0PfV5vnyiQPCE7Cl9XQYtSxVeuaixrf2ZPgUH4UOR1csy2XyAlwBkMLnQcEJ3/KSDYxumAwg2pNjF4FFzkZvB/L9nl4oRxy6Nb+jeB4jEw3bKAM2FgI/bUM2qPgfK8L52PR+vTIMYsDOY5YN4LbD2COd8OoQWsu/XsVXGThYDxrtWUsPf84DbgRXMYe3CHNxshZ+Zq3xnoUXDTlMNDZgjM+x3W5neAkd5nhFIcadw72W2sZtEfBaVPkXijB1VjBR1gWD4fYCY5hWx9rOSbBRZLiuyg4bRq7xdWD4EqbD/O4neCs+IY+0JIEF9llqC04JZfozaRadUEsgzcWvQiOIzucuDvB9RLve8nh0IIksutR+7AD8dg3HoseBIcEdzhxuxGc50fOwdU+OqU9x/nHOezbU28CEE+kPT2sUgsPb97dCC57NjCOHGgsatbhCn3/mLxSyKi9Hcg+kYs1fvphbftcYgmpD3k4Chz6QEtGZ3CrSVIq/Ke23Ai/ZigtJJ5Ijru/UJMvOLaRbhTsBFc7/xhDz46swniVVm0mOpPBIBI6quQ7FcHztBJ+JKfMrquisTku5ewEB63vLhxT445XNJfQ8h6m5/AY9giRAFoNaJlUkVVz9njiUJp0I7jMjftCDeQ9xqL1m4OySDhD+5LnkD2WOLSBfyM4eVy2CyaeSPGXOHswbG2yS6RkxBNmnmlEXlnKc+yVbwQHrS88H9OzIxvUck85Qos8LpM8RcTz70+K5EeroVX1A4LTKZ0b+oJWNJsjULu7zWFVOJWrRsJpzV2YsTQmQznnA4IDqswcwHPHk4cgFcieJDXJU0Uu0FjlZ1cctPnUQYyHBCdMZbpjYo/Um6Dmpnk2TaaIdxOlMvM3QsdT5a2HBAeZRcN9CIm9dyzbyLVoDCJHtiB75c5ZDR0tLxgUXLZbNqsjYRWyFzxLk+1NvsMq/SVkL6JKvnkOg4KDzJUO4UQ28uG25XL6EsndwLs9Mm3As17aDTkpOMjyGiUPiB6A3B9ZWn9djs0j+8oFPsPLDH1nbRLbmMMFZwUnrGWFqSn5i1SA0dccWks4jGxjgTw2q9/aPHZb8qzgIKvOpRPyyKiXM1DZZYE5FBLPJd2nkDnRRJWxlYWLgpOI6kjGABJ6ZEunQB6xxnxOm6NeHXi3rFSiOIaxpZuLggP7m1kDyJDR8AK8hB+0MfSdPVI/IwdQD2FlmpW7KUdFXpg4SnAgRmd4Od41sr96iHJZuvfwqo2R07yHyHQGxiZyVxZGC67Fke5TZNDoW80LeDqzP8sDXCKxSRsihe4Cnt93ZE0ogovWS0cLDjLLJNHDmYeQ48gzMtp+ivpEbJHjWIcg0MwtvbFlkGOEBJdZJvHcqaEVLH64f94yO8QaLB43cmT8GIrCWaF0jgMICQ72e3U5KyIGnrJqPYS8zndlpAcmDdspNUU25I+xT2/yCtzGYapnDguOp8iscxFK9IdlHMPMJNy9AB6p3hfPMUhCoPA+B9reos2nyDNHz+cdIiw4MOCZ7tzsnjtwYP/VK8JMoBLmhp45hft27oUhFZgTPgvK5nzmAsi4z+nLJMGBK31ZHTeInh1dIZ0CryFEyPGK1/NrpH/aVD6LRKyIu1QbeZTsbTvPnpNHw2TB8TBZXg6LGJbwdIcgPrfW5VlFgIqb+jrE8m8moHuqvP9SIisgNmGMkI/t0JL6OaUIf4jJgoPsk7ZEh1NrdGNBhEQklKDn+ZXYDcCUGtpYCKPEnGlnJPa5CzaYJTjGztqBKCyhbO5CokcQeQ/1QzYmeuKfi1mCg/0ZtFxXj9y9GTin3NAT7JCUXHWovy1pkbbUhJ4tuOLyM71cIcNIrOfmGZkQnq2c9aUHmxJ89Nb/OcwWHMhpernEIvzwdtHj2T1AXmiAe4gYhcZ1yYXZIoLr8aQtD2FmLr2KrQEeudwH7sGrFRrPcz83awoWERxIcHvxcoUMVoymyNsbpCNy4FJ4HupDJo2nFfqSWExw0OuFZG0yoHKjpWtkU2AQCc0KvzevVqhdS5RBjrGo4BiS8Xo0IBKeWSvUWgUuPXvPQdohRzMp5Zi9Cg21i9etseJfVHCwv7Xf91W9kpijrRriE3KXNrDcjMjkZ8Wb9RgBjmn82KQGFhdc2YbpoX40hiXc+r12E4d91bKLwAvKtfSLlzqkv0P/7v/5jHpV2RYruZln9OrNjqmtJqH+1cDiggNlEmFjqEM90yTZC/Derv3+TDSEaBVuIIRE9HskLHVIn/c59B0+uxaRHVL7a67sqwgODAbDD3VqTSQa4iliPGT5+zUKa4i88dTLPGNRTXDCUW9lko3nyasvsV96DtUEB5bVJT/a2DeNU4vdmaqCM1t05raEnNtK4yMPrbVQOERVwYEVn0R0qKMb+yDvVvtMYUF1wZk1ayqT3DVa/FjgtUJ1wYHi5+bl+iTBtdxnbiI4KD+XaqjTG3MolNbYLz2HZoJTJtm8XD+0UMDaZZBjNBMcbGWSfqjmNvX2/Bw0FRzwcluZJJcWcA4TZKC54Gxub14ul3JpC7kMNBcc2PDeyiQ5bF0GOUaK4PZlks3LZVA6k3nqOUVwsJVJ2lP+3LoMcow0wTmweJuO9vROdq51bDyCNMHBGo6j3xYqg9Q6Nh5BquDMtux3k9wFiiTeK9cDUgUHZt3m5eqSd+vlQni64ECZZFtA1KFqgDsYvaALwVmmbwuI5VkWCvaxe0EXgoNtAbE8ebceFgqH6EZwoEYk3xgy3sYY2XHsT/hria4EB9654bbXFl6nkd38ULuMkyBj0J3gQBhgvG0hEaMQKmfL2pgfgy4FBxLdsv21Ce80ebRiI6+YaPmCninoVnAF6kdes8CwZvB2ymRPdigHIJQ9engN2Rh0L7gCFz0kwWp2VrPyPInxXaN+E5pJKE/rqeQxBqsR3CGcwzejeb+7Rv1ufQ9hSaxScBvWi01wGxri6uq/xnUQ1wRn2NkAAAAASUVORK5CYII=;" vertex="1" parent="1">
          <mxGeometry x="633" y="472.5" width="35" height="35" as="geometry" />
        </mxCell>
        <mxCell id="jjM4XxSEG5LytGMmibBt-94" value="전자영수증 API (:9090)" style="text;html=1;strokeColor=#82b366;fillColor=#d5e8d4;align=left;verticalAlign=middle;whiteSpace=wrap;rounded=0;" vertex="1" parent="1">
          <mxGeometry x="673" y="475" width="173" height="30" as="geometry" />
        </mxCell>
        <mxCell id="jjM4XxSEG5LytGMmibBt-95" value="" style="edgeStyle=elbowEdgeStyle;elbow=horizontal;endArrow=classic;html=1;curved=0;rounded=0;endSize=8;startSize=8;fillColor=#f8cecc;strokeColor=#b85450;entryX=0;entryY=0.5;entryDx=0;entryDy=0;exitX=1;exitY=0.5;exitDx=0;exitDy=0;" edge="1" parent="1" source="jjM4XxSEG5LytGMmibBt-58" target="jjM4XxSEG5LytGMmibBt-91">
          <mxGeometry width="50" height="50" relative="1" as="geometry">
            <mxPoint x="390" y="510" as="sourcePoint" />
            <mxPoint x="138" y="480" as="targetPoint" />
            <Array as="points">
              <mxPoint x="480" y="480" />
            </Array>
          </mxGeometry>
        </mxCell>
        <mxCell id="jjM4XxSEG5LytGMmibBt-96" value="" style="whiteSpace=wrap;html=1;aspect=fixed;" vertex="1" parent="1">
          <mxGeometry x="606" y="660" width="260" height="260" as="geometry" />
        </mxCell>
        <mxCell id="jjM4XxSEG5LytGMmibBt-97" value="&lt;strong style=&quot;box-sizing: border-box; color: rgb(23, 43, 77); font-family: -apple-system, BlinkMacSystemFont, &amp;quot;Segoe UI&amp;quot;, Roboto, Oxygen, Ubuntu, &amp;quot;Fira Sans&amp;quot;, &amp;quot;Droid Sans&amp;quot;, &amp;quot;Helvetica Neue&amp;quot;, sans-serif; font-size: 16px; letter-spacing: -0.08px; background-color: rgb(255, 255, 255);&quot; data-renderer-mark=&quot;true&quot;&gt;211.240.6.5&lt;/strong&gt;&lt;br&gt;&lt;strong style=&quot;box-sizing: border-box; color: rgb(23, 43, 77); font-family: -apple-system, BlinkMacSystemFont, &amp;quot;Segoe UI&amp;quot;, Roboto, Oxygen, Ubuntu, &amp;quot;Fira Sans&amp;quot;, &amp;quot;Droid Sans&amp;quot;, &amp;quot;Helvetica Neue&amp;quot;, sans-serif; font-size: 16px; letter-spacing: -0.08px; background-color: rgb(255, 255, 255);&quot; data-renderer-mark=&quot;true&quot;&gt;192.168.10.72&lt;/strong&gt;" style="text;html=1;strokeColor=none;fillColor=none;align=left;verticalAlign=middle;whiteSpace=wrap;rounded=0;" vertex="1" parent="1">
          <mxGeometry x="756" y="662" width="110" height="48" as="geometry" />
        </mxCell>
        <mxCell id="jjM4XxSEG5LytGMmibBt-98" value="" style="shape=image;verticalLabelPosition=bottom;labelBackgroundColor=default;verticalAlign=top;aspect=fixed;imageAspect=0;image=data:image/png,iVBORw0KGgoAAAANSUhEUgAAAa8AAABVCAYAAAD+FWvKAAAAAXNSR0IArs4c6QAAAARnQU1BAACxjwv8YQUAAAAJcEhZcwAADsMAAA7DAcdvqGQAABIjSURBVHhe7Z2/q2bFGcf3TwhWVlaWNgGxEnuL7RZLwcJOCBbBWGwRLAKSxkIILAGxsMiCFpGEGDAYyK5BCCzEQpCIgkHQYsXCSIo3+3m982beuc/MPHPOmfPrfj/wZe/ee86c884783zn15lz7SCEEEJsDJmXEEKIzbEq8/r4/peHP//7n4fffvrXw68+/sPhZ//43eHZv79xEv9/+d7bx7/f/vyjw92vPz189f23F2cLIYS4KixmXt/99z9Ho8KMfvqXXx+u/f7nP+qPN9t0cc6NO7eOpoYBCiGE2DezmheGRY/p+t9+c2ZUP/nTL0crNTNMUUYmhBD7ZBbz+td3Xx+H/KY2rJKCkfHzW5/dvbgTIYQQe6CredHziXtZqcHMpWCYDCsKIYTYPl3Mi0UULLBY2rRSBRNj6FIIIcR2mdy86N2szbRScW8sEmE4UwghxPaYzLzobR1XDa7YtGIde2EPTJYl+UIIIbbFJObFkve197Zy4p6f+uC140pIIYQQ22C0edFzwbgsY9iKjr2wB9IwohBCbINR5nVclLHB3lZOmDC7dgghhFg3g83ruAR+R8YVhIExDCqEEGK9DDKvvRpXkAxMCCHWTbN57W2oMCcMTNtLCSHEOmkyr+PijCtgXEF8Vu1aL4QQ68NtXmE5vBXk96pg1EIIIdaFy7zofVw14wrCwNhUWIix3L9//+InIcRYXOa1pZ0zekgLOEQrGNWHH354eP311w/PPPPM4dq1a4dbt25d/FUIMZaqeR33KrzCxhVEHiy1CwdB8J133plU77777jHdL7744uIqYizk54svvnh45JFHjmaV6s0337w4UuT44YcfDrdv3z6VU35euox+88036jWvkKJ5XeXhwlRLDh++9NJLZjCcUvQOMDQxnJs3b5p5GyTzqoNRpPmGiS0BRvr000+f7uO55567+ItYA0XzuirL4r1aavl8LShOLQ1vDeOVV14x8zNI5lXHMq+lGlVhuDcW37FYB1nzIkir13UujJwHtOdmbvNCjz76qIYUG5F5jWdN5pXeB2JIWCwPveKsee19F42hWqL3tYR5Bd27d+/iLkQNmdd41m5eDCOKdWCaF7urq9dlC0O/cWfeYbUlzQupB+ZD5jWeNZnXe++9d+le1JhbD6Z5sTBBva68MPY5X5+ytHk9/PDDF3ciSsi8xrMm8wJWkL7wwgvHRVOffPLJxW/FGrhkXiwHl3GVRf7M+Qbmpc0LaRFHHZnXeNZmXmK9XDKv259/tHnzmuP+ucZceMwLmMT0iGdWGArkGZrcM0mWRBmZ13hkXsLLpYi09YUaDOnxYPXx546fg+vM9eJKr3kNxfsc2fvvv39xhrCQeY1H5iW8nEW945DhhhdqcO9vfXb3/5/lgXn1MjDSnWvosLd5AQ9gWunG4j7GQGBiwhsTREvv8EEvlHkM7iPcE/fHfQ5B5jUemZfwchb1jjvHb7TXhXEx5BnT28DQHMxhXlbQSDVkmTArtp5//nkzvVhPPPHEcR/A3maGWb366qvH59is+4jFRH1Lb7OHeZEnjz322OHxxx83xWIa5iPJtyeffPJw/fr1rEhrDJSR0jUoH2MN+iqZF40nvjc0tMF0lTmLelt9X5dlXAEM7HhMh8/Fded439cc5gWe+S8vBFTrfI8IhFOv7KJHFW/10yrPgpWpzQuTtdKJxTUDGJl1TKwxeO5nbBBek3lhKgypU/8QP2M4OShj6fEpYf/Lhx566NLnRDRIyOch+UidIW2ui/h5LDTe4s8Ul7cA+cTIDdeLNRbqHA3IkB7XiOPCWWne4u7xJeMK9DIw0ptjt3kKjVXQY02BtR1OqhpUTuu8IbIq/xCoAFb6Q1TqiU1pXrW0EEEuhvSt42K19CRTrPRiUX7GsibzwozSeylt0Gs9FxYgLU9vP1Zr+bfqXslsPaSN0NxjM1Z5JW4NhXKappca4lk0wgisIL1WeYwr0MPASGuOea+5zIuhOyvtoNrWOJ6Weau45tAdvQmEnt5Iq3JBZSrz8nzf1hAg+WQdG2uowWAgVnqxCJ5j2aN5jakX9NC85X8O88KAc1gjG+RJK1Y5Zug85RT1trarRotxBaY2MNJh8+LezGFeFHIr3VilwEdAt86ZSq3DKFYQnFIMbaZMYV6efCwNYXoW3gwJaMx1WWkFlYJaC3syL4wn931Sl6jXlBnmhGuNLI+BLW1euRjSWnetRrSVxinqsex7yl5JTw0xrsDUBsZQa2/mMC9P6zA34d+jx2XJWxE9RjyF0go11rwYFrHOi1UyLvAM2/J8XwvMM1jpxGpNM8eezCsVhkWaOcIcm3UuAb3G0uYFVllpadhYsS7Xoz9FPZaYb8G8xhhXYEoDI43e9DYv3pdkpZmKypXiCZaxaMETpPlMVGbrmJw414On9xErtIIJHN5FHVZLcIx5eeblvMOO1rmxPIEwxmOqU7FX82qZa8zVqVoDYQ3mBZTT+BxE3aphzXOl87oxp1K3hZWGUxhXYCoD455Iqye9zItWkmcZO8otk7eOtUQlyFUkgoTXNIZUYEtUwlyLDgiYuaEcy8RhqHl5voOWno2nJ5z7DCmeXiyfeyr2aF7xCjkvVjlmGLLEWswLrAZkaf7L+t5rjdVT1Hv53turNq8pjSswhYFxX72Xy3vMiy/aK5bjWmmUZFVAhhGtY2NR2D3j9eBJD5XgetY5sdJVSyVSQyoFoiHm5ekltr5JGGOy0onlfeYrDV6WrF7oUPZmXmPeAm3V+1L5W5N5gfU4QK6ssCAjPbZ276dIsOad5HsYV2CsgXFvvXeY95hXT+W67taxsei5tFYeT7DM9UI8vS6G51oJw6ql+QpoNS/PsOnQwF3rydZa8QErAMXiM0zJ3sxrDFZeUD9yrM28rEaUdb41z1era7B68+ppXIExBrZ388oFp9L4fpB3aCqlFtTpOVrUht+8AdvC07toMS9WK1rHxCoNs9Qg4FtpxqoFCE9jwBNkWpB5nZOOkpRGDdZmXmCVw/gzWHlWMuiYVZvXHMYVGGpgezYvhrRy1BYYcM9DsQJYKstMrONijTEDD17z8szvjXmYOGClG6s2iV5rRLQGMg8yr3PSXkmpTq7RvMDqWfGdkpfp71t68qfc/cXK5rzmNK7AEAPjPtcw5zW1cosLAtY5sYb2ugK1wJkGNOYCrONi9cZjXrXPhaYwLvCUmxyeBsRUy+NjZF7npPPA1vOFgbWaF1jz7NbzXC2cjl7TasMljCvQamDcK+f0ZE7zIgCXKihQIaxzY42FwGilG5TOw1mBI1ZLi24oNfPyiAA0FR5Dz/VGPSsWeyDzOmcv5mX1slK1NnhPucs7sNZgXksaV6DFwLjf3sxpXp7CXmuVT2EUVkWMlY7906uxjgsqPS8yFWPNqxSYhmKt4oqV+66sY2P1yk+Z1zl7MS8o1ekhvfhT7q7hdShrMK5Ai4H1xmNeFFIqVk783bMU3fMwYa1FP2RFX0rtGunYf1rJUnmXho9hip4Xi06mpGbqiPIRg1lYx8XCZHog8zpnT+YFVo9+aKPtlLsf3//yaB5WcJ5DazKuQM3A+D1vnu7NmLmLFOvcVLXuu7UENlZpUtmLFThipQZZC9JbMS/E9z0VBC/rGrHS+c3ac4BTfL85ZF7n7Mm8SmWRvG7llLsE6qXMa43GFSgZGL/b2q7ynpZ4LThRga3zgsa2zqDW+scoYmrHT9EbrFEzL/Leu5PIlGZbe4QgfvTAM082JNB4kXmdsyfz4t7jtFK13utZ7qbBeQ71MK4bd25Nunw9Z2D8fw7TndK8wDo/FUGshHVOrFIl92Atr42VjpHXemqoNx7zAs9LP1HaIxpKaa4hKPS2a49ATNEwKSHzOmcv5uVZAJTbgi7HWe7O/awXxjX1yxwZxuMzoN4Gxv33fsYLpjav2ko+VCtItVYUhX4MVpqxUnMtDUkE9ewxgNe8PPcaRECcAivtWAQXz331WB4fI/M6Zw/mZd0Xn8saLWlZCHSWu/Qi5jKvHj2uYFyna3Q2MP6dg6nNC6w0UlHocqSF2tLQiuOZO7Jg30br2CD+3hOveYEVpHMqfQ9e0iCYiq28uD/rb7F6I/M6Z6x5jR0BGWteXD8+H8UNY2tI21vez3KXh20xlRD8e6lnj+vStToaGD3VOehhXp7XoFhvLw14gm+pouWwKmAqTMLC06McssSbz+pZBdhiXlBb+BKrNoxbo8UscxqSd63IvM5pMS9rvnJsuRlrXtaDyGmj1to/02O6l3KXlytaJjCV5jSuoB4GRppTf44cPcwLapuuolLgYGGHdU6slpVpHuNCBLgc1vGpCAhe4gBWM7BW8wIr4OTU+hBnSm2ot6ZSvk+FzOucFvOyejljh+/T3niLeVlxizxNsRpxpYZz4FLu9nxYeQnjCprawOilYmJz0Mu8rDFnSzm8PQcKvFVoA7TEPEOFqPY6E89wJiIIlFqlfDaulZ5Xuv4Q8wKvaSNPizSHFVy9mmOHEpB5ndNiXpA2SMdsRg3pdmZe87LyomSk1qhJ7ZnTS7nba+hwSeMKmtrA5qKXeUHuhYuxckEX0spVEgWfAE9BZdiSwuzpvcXyzKN5V/MhWnjcE/eC+Ln2nFOuUg01L/AaC8FozCS8laZHpcbHlMi8zmk1L2tVX8tIQ4zVEPSYl/Udeho/1vxX6bs3c7fVFGpag3EFbdHAepqXN2iWAqb32aWx8gbQlrmkoeI7SRljXpAO0eTkGVLJUbtHS2Ou14rM65xW87LyD7XmoWVcyGNeHJOe58VqTOeGy81U73796WS9rzUZV9DWDKyneYFV2FLVJutbejtD1Fr52JndSmcqWY8SjDUv8PZkh66cHGLsvZfHx1jBl3zDNPhbL1ls0bwgVw75fQ3yIh0qjFUzL+s5wZZFI1b5JLZYZHOXhRtW4G/RGo0raEsG1tu8vIG+VHHpmdWWqg/V0FeEtMwltSi3W8cU5gWe7xsNnYeqDYummhOCp3UPvWWNLGzVvKD0HTNvy7A99YPPSP2ibJJ2emyaTsm8rHkrb5mPsdKxFn5lcxfTGdP7WrNxBW3FwHqbFzA0ZKUby7NprzXmPlRUlNyQgRfO9/QsvSr1QqYyL6jtdBE0ZNsrz2MSQXMsj4+ReZ0z1Lz4PJ46XRJDh6mR5MzL6jG1rDROsea/0vpTzN2hy+a3YFxBWzCwOczL20vxmAnHWK24Fg1psZUgPes6XmESpcAFU5oXlIZvYnmGg2IIbFY6lnJDar2QeZ0z1LwC3kZQKuIBpHNfOfOKj0FjVzmC9ShPPARZzN0hO81vybiC1m5gc5gXWA8UpmoZqqKgeYfAEPNI9Ap6QvreBSZUVIKHN4CHXieTzqn4/RBDJlhRia00g0ibINOC9RhAqjEt56EE8+IzzyWutxXzsuZaa1APPat66amlZdRjXiHtOD/HjphA6M3F3xUK31U1d1v2O9yicQVtoQe2ZSiIVG4qB0Ge3gIVk2EJgoQVPHrC9bguZsZ9cE/hfmh1zt3jmBtrXiEV+SP2RSjz1MMwLMic1xbLu6tp4DGPLRtXkAxMXBVqq0PnXB4vxBBc5lVbOr8H4wqSgYm941mw0Xv4VoixuAdleemiZSZ7Mq4gGZjYK2EeoSYh1k5TKU1NZY/GFcRnY8GKEHvBu6J0yMISIeamuYkVls/3MK6nPnhtFcaF+HxsUizE1ggT8exKgvh/ywPkQmyB5pLa63Uga+lxIYyLYVIhtojnkYechu5mIsTcrKKZtbYel4xLbJmh23QN2a1DiKVY3Lw0VCjEtAwxLy2NF1tjUfNam3Hd/vyjizsTYru0mhfGNfdD4kKMZTHzWotxcQ9IKwvFXmgxr9qbqYVYK4uY12qM60Fvi4Uic73OX4g58LzyhF27W96zJMTamN281mBcx96WhgnFTmHFIPs0sikyizAQe0ny/FbYLVyIrTOreS1tXMG0nv37G+ptCSHEhpnNvJY0rmBaDBFqbksIIbbPLObFA81HE3lgIHMaWNzTkmkJIcR+mHXYkN3pj+8HuzCxqY0spEn6bGPFM1tfff/txdWFEELshdkXbATojb187+0fTScys1ipOQVdOpbzH4hhQQxLO8ILIcS+Wcy8Ylg8Qa8M48HQbty5dew5WUbF75g/owfHNk6YoMxKCCGuFqswLyGEEKIFmZcQQojNIfMSQgixOWReQgghNsbh8D95BhWSUVMN1QAAAABJRU5ErkJggg==;" vertex="1" parent="1">
          <mxGeometry x="609" y="663.5" width="136.89" height="27" as="geometry" />
        </mxCell>
        <mxCell id="jjM4XxSEG5LytGMmibBt-99" value="" style="shape=image;verticalLabelPosition=bottom;labelBackgroundColor=default;verticalAlign=top;imageAspect=0;image=data:image/png,iVBORw0KGgoAAAANSUhEUgAAAJwAAACNCAYAAABCMhNzAAAAAXNSR0IArs4c6QAAAARnQU1BAACxjwv8YQUAAAAJcEhZcwAADsMAAA7DAcdvqGQAAA+oSURBVHhe7d29q3VHFQZw/xB7C6s3jaBgJdaWaiMKARULtQtIKj8KCwtBC5EUqRQJr4kExagpRBIjguIHKgGjgiJC/ChCIHr1d86d63nPu885e+29Z9bse/cDD+/nOXtmzTNrrVkzs++brjZsaIhNcBuaYnWCe+XV31z96PffvvrWr568k/zub7++6/+f/vHytUXWhVUIjsi++tKnrz78zbddfeCpt1w9ev/e//jIHea9nR0+9sw7r7728y+uSnxdC44hv/DDj++Ehgy88f/86NPv2AnwI0+/fTch//zPV64t1y+6FNy///PG1f1ffmVn0E1o40h4n3j2Xbuw2zO6E9y/Xv/71Wd+8KFd2CC4IeNuHObe493bRYXX33jt2qJ9oSvBCQlm6ebV5pG3e+w779lN3t7QjeCIjZE2sS1Ddnz8ufd1J7ouBCdn+9zzj25iW5g83Zdf+NS1lftAF4KT6DLOkNE2ziO7/vgP37u2dD7SBcfl82zbAqEO2VVeLIr0gHTBqR9t3q0u2VeZqQekCs4OwgefeuugkTYuS+WSV1/767Xl85AmOC6+7CIMGWjjsmRn0SQbaYJ76Y/f37xbY7L37/72s+sRyEGK4FTB1dzsAQ4ZZmMd8nLKT5kLiBTBSWDlFENG2ViX7P78y/evR6I9mgvOjoKOb2WQHLL7J599d9oORHPBfemFx7aFQjKVSZyjy0BTwSmDlIODG3P5/m+8OaVM0lRwNpO3hUIfFGWUpVqjmeAkqlsZpC8aj1/85cXrEWqDJoKToCqD3IaFAg+Nt6UvDru2PKzZRHBrL4MQl0Tbr9ICg2RD3N+tfQHEy7Usk1QXnDKIgVqrRyAo4nLE57iUoGqvkLrmVMG4KJO0WkBUF9yaD1Zq9+PPvfdiyFFiWLPoeOpW+6xVBSchXWsoLTN/7NW7tZ9YJjplq9qoKjjeYa1lEAMQOUMmvK655GOytCiTVBPc2ssgBiB6o33tK3FF+dplkiqCk4DqwFqNr93EE02k136+r/S7ZpmkiuCe/OnndyFpqFMtOVXwUwU3Z5/YM6e2d0nKuWve3l9ccBLPzFzGoJX6mKRfW/w5MpitBFfa6vfaiv6cbb/IYimKxQWXGVbKcyX7hM9ofjVjGXFsu1oIrvw/r9+SK3qW9joJbbGVGSE8u1aZZFHBMVaWoYQCOwCnRCIvGVu6qC04/+dSfU9tL/NkjTbWKJMsKjihwGANdaAmrYbljZdggHm6S22sKTjfrQ1jvrtM4AybGks2WBqLCU5oaF3kNRAG5JlfP3Hdisvw9shLXrim4Dw7Wt+ztZaR15nI7LUkFhGcgWHo1jPR4BF6BPKkS16uruDuhUMV0WlPa9EVOyxZJllEcE/85LMXvcbSlN9MOeUw5qhUTcERTfR7gUjL54+/syZNkEgEuYTZgjP7Wu8oTBUbGOy1ebgCq1mCO9f2GtSnpcokswXXetOaJ51zAWTMSrqu4Oa13wRvvXrVJ31bArMENyYBX5KeNbfjYw4U1BSc7+Zh53iM/QKtbQqjX0vss04WnETS6qmVeycSIphzn3Lsm5pqCg79HyeHo99/CC8abCk69jdZ52Ky4PbHxtt1WJ4onEyBgRX6x5ZtagsO/T+c2icTvvXxL/abexx9kuAMRMs8gtimbigbUCFsrBCwheDQc/QtWtop0Lexk2gJaq/+zSmTTBKc0BQx7ByWUDrlBSxyjilF01aCQ88SKaaWHixAWkYaz5qz6AkLrvWs8qwpyarSg88a0KHvPceWgivU1ilenLfx+Sn9nEqim7roCQmu9dvGPcfzomAMXm3qIGQIDr1+QdkmCnlVSyegj/o6BSHBtT42TjTRY95lJ2FOMp0lOJQbTykMz+1zlHQwZXKMFpyBvFShX5IGbsrPGDDoc3OaTMERjWdHyz+ta6LaaZUcza1HC671sXHPis70fWiZ38ZMwaE+RA9A7sskbV8WpJ3RvHOU4Bi+ZRnEoDk5HJk9PILPLeGBswWHBjO6WDL4LXM5FFojZZJRgmt9bHxKfjB2F2EMexAcTyWFiUB7W+7+IJuPOfxacFFwZllL71aMFfFuFhZLtrEHwSFvFa3st6yRFkYWOmcFx1W6J9AyL2CsyIyBpY3ci+C0g5eLTD4OomUlAfV5bAp0VnAZx8YZK5K7EMVSobSwF8FhNL3gJFo6iEI6GdPOk4JrXQYp5J4jM7rGIYKeBBfxHgU12nGJpUxyaQFxUnCtj7+gRgvhY2FS1CgF9CQ45OUiW0mtdx4KPfPSBaFBwe33IduKDT0zsom939ddvp29CU4fI/Uu49c6jyvU/3N2GxRc62PjhZ4Zyd9qncnrTXC+U1gdC+G3ZWXhkNp6bofoIcG1LoMcMxI6TIwaCXJvgtMe+XSkPdrvc0PfV5vnyiQPCE7Cl9XQYtSxVeuaixrf2ZPgUH4UOR1csy2XyAlwBkMLnQcEJ3/KSDYxumAwg2pNjF4FFzkZvB/L9nl4oRxy6Nb+jeB4jEw3bKAM2FgI/bUM2qPgfK8L52PR+vTIMYsDOY5YN4LbD2COd8OoQWsu/XsVXGThYDxrtWUsPf84DbgRXMYe3CHNxshZ+Zq3xnoUXDTlMNDZgjM+x3W5neAkd5nhFIcadw72W2sZtEfBaVPkXijB1VjBR1gWD4fYCY5hWx9rOSbBRZLiuyg4bRq7xdWD4EqbD/O4neCs+IY+0JIEF9llqC04JZfozaRadUEsgzcWvQiOIzucuDvB9RLve8nh0IIksutR+7AD8dg3HoseBIcEdzhxuxGc50fOwdU+OqU9x/nHOezbU28CEE+kPT2sUgsPb97dCC57NjCOHGgsatbhCn3/mLxSyKi9Hcg+kYs1fvphbftcYgmpD3k4Chz6QEtGZ3CrSVIq/Ke23Ai/ZigtJJ5Ijru/UJMvOLaRbhTsBFc7/xhDz46swniVVm0mOpPBIBI6quQ7FcHztBJ+JKfMrquisTku5ewEB63vLhxT445XNJfQ8h6m5/AY9giRAFoNaJlUkVVz9njiUJp0I7jMjftCDeQ9xqL1m4OySDhD+5LnkD2WOLSBfyM4eVy2CyaeSPGXOHswbG2yS6RkxBNmnmlEXlnKc+yVbwQHrS88H9OzIxvUck85Qos8LpM8RcTz70+K5EeroVX1A4LTKZ0b+oJWNJsjULu7zWFVOJWrRsJpzV2YsTQmQznnA4IDqswcwHPHk4cgFcieJDXJU0Uu0FjlZ1cctPnUQYyHBCdMZbpjYo/Um6Dmpnk2TaaIdxOlMvM3QsdT5a2HBAeZRcN9CIm9dyzbyLVoDCJHtiB75c5ZDR0tLxgUXLZbNqsjYRWyFzxLk+1NvsMq/SVkL6JKvnkOg4KDzJUO4UQ28uG25XL6EsndwLs9Mm3As17aDTkpOMjyGiUPiB6A3B9ZWn9djs0j+8oFPsPLDH1nbRLbmMMFZwUnrGWFqSn5i1SA0dccWks4jGxjgTw2q9/aPHZb8qzgIKvOpRPyyKiXM1DZZYE5FBLPJd2nkDnRRJWxlYWLgpOI6kjGABJ6ZEunQB6xxnxOm6NeHXi3rFSiOIaxpZuLggP7m1kDyJDR8AK8hB+0MfSdPVI/IwdQD2FlmpW7KUdFXpg4SnAgRmd4Od41sr96iHJZuvfwqo2R07yHyHQGxiZyVxZGC67Fke5TZNDoW80LeDqzP8sDXCKxSRsihe4Cnt93ZE0ogovWS0cLDjLLJNHDmYeQ48gzMtp+ivpEbJHjWIcg0MwtvbFlkGOEBJdZJvHcqaEVLH64f94yO8QaLB43cmT8GIrCWaF0jgMICQ72e3U5KyIGnrJqPYS8zndlpAcmDdspNUU25I+xT2/yCtzGYapnDguOp8iscxFK9IdlHMPMJNy9AB6p3hfPMUhCoPA+B9reos2nyDNHz+cdIiw4MOCZ7tzsnjtwYP/VK8JMoBLmhp45hft27oUhFZgTPgvK5nzmAsi4z+nLJMGBK31ZHTeInh1dIZ0CryFEyPGK1/NrpH/aVD6LRKyIu1QbeZTsbTvPnpNHw2TB8TBZXg6LGJbwdIcgPrfW5VlFgIqb+jrE8m8moHuqvP9SIisgNmGMkI/t0JL6OaUIf4jJgoPsk7ZEh1NrdGNBhEQklKDn+ZXYDcCUGtpYCKPEnGlnJPa5CzaYJTjGztqBKCyhbO5CokcQeQ/1QzYmeuKfi1mCg/0ZtFxXj9y9GTin3NAT7JCUXHWovy1pkbbUhJ4tuOLyM71cIcNIrOfmGZkQnq2c9aUHmxJ89Nb/OcwWHMhpernEIvzwdtHj2T1AXmiAe4gYhcZ1yYXZIoLr8aQtD2FmLr2KrQEeudwH7sGrFRrPcz83awoWERxIcHvxcoUMVoymyNsbpCNy4FJ4HupDJo2nFfqSWExw0OuFZG0yoHKjpWtkU2AQCc0KvzevVqhdS5RBjrGo4BiS8Xo0IBKeWSvUWgUuPXvPQdohRzMp5Zi9Cg21i9etseJfVHCwv7Xf91W9kpijrRriE3KXNrDcjMjkZ8Wb9RgBjmn82KQGFhdc2YbpoX40hiXc+r12E4d91bKLwAvKtfSLlzqkv0P/7v/5jHpV2RYruZln9OrNjqmtJqH+1cDiggNlEmFjqEM90yTZC/Derv3+TDSEaBVuIIRE9HskLHVIn/c59B0+uxaRHVL7a67sqwgODAbDD3VqTSQa4iliPGT5+zUKa4i88dTLPGNRTXDCUW9lko3nyasvsV96DtUEB5bVJT/a2DeNU4vdmaqCM1t05raEnNtK4yMPrbVQOERVwYEVn0R0qKMb+yDvVvtMYUF1wZk1ayqT3DVa/FjgtUJ1wYHi5+bl+iTBtdxnbiI4KD+XaqjTG3MolNbYLz2HZoJTJtm8XD+0UMDaZZBjNBMcbGWSfqjmNvX2/Bw0FRzwcluZJJcWcA4TZKC54Gxub14ul3JpC7kMNBcc2PDeyiQ5bF0GOUaK4PZlks3LZVA6k3nqOUVwsJVJ2lP+3LoMcow0wTmweJuO9vROdq51bDyCNMHBGo6j3xYqg9Q6Nh5BquDMtux3k9wFiiTeK9cDUgUHZt3m5eqSd+vlQni64ECZZFtA1KFqgDsYvaALwVmmbwuI5VkWCvaxe0EXgoNtAbE8ebceFgqH6EZwoEYk3xgy3sYY2XHsT/hria4EB9654bbXFl6nkd38ULuMkyBj0J3gQBhgvG0hEaMQKmfL2pgfgy4FBxLdsv21Ce80ebRiI6+YaPmCninoVnAF6kdes8CwZvB2ymRPdigHIJQ9engN2Rh0L7gCFz0kwWp2VrPyPInxXaN+E5pJKE/rqeQxBqsR3CGcwzejeb+7Rv1ufQ9hSaxScBvWi01wGxri6uq/xnUQ1wRn2NkAAAAASUVORK5CYII=;" vertex="1" parent="1">
          <mxGeometry x="633" y="822" width="35" height="35" as="geometry" />
        </mxCell>
        <mxCell id="jjM4XxSEG5LytGMmibBt-100" value="원터치페이 홈페이지 (:8989)" style="text;html=1;strokeColor=none;fillColor=none;align=left;verticalAlign=middle;whiteSpace=wrap;rounded=0;" vertex="1" parent="1">
          <mxGeometry x="673" y="824.5" width="173" height="30" as="geometry" />
        </mxCell>
        <mxCell id="jjM4XxSEG5LytGMmibBt-101" value="" style="shape=image;verticalLabelPosition=bottom;labelBackgroundColor=default;verticalAlign=top;imageAspect=0;image=data:image/png,iVBORw0KGgoAAAANSUhEUgAAAJwAAACNCAYAAABCMhNzAAAAAXNSR0IArs4c6QAAAARnQU1BAACxjwv8YQUAAAAJcEhZcwAADsMAAA7DAcdvqGQAAA+oSURBVHhe7d29q3VHFQZw/xB7C6s3jaBgJdaWaiMKARULtQtIKj8KCwtBC5EUqRQJr4kExagpRBIjguIHKgGjgiJC/ChCIHr1d86d63nPu885e+29Z9bse/cDD+/nOXtmzTNrrVkzs++brjZsaIhNcBuaYnWCe+XV31z96PffvvrWr568k/zub7++6/+f/vHytUXWhVUIjsi++tKnrz78zbddfeCpt1w9ev/e//jIHea9nR0+9sw7r7728y+uSnxdC44hv/DDj++Ehgy88f/86NPv2AnwI0+/fTch//zPV64t1y+6FNy///PG1f1ffmVn0E1o40h4n3j2Xbuw2zO6E9y/Xv/71Wd+8KFd2CC4IeNuHObe493bRYXX33jt2qJ9oSvBCQlm6ebV5pG3e+w779lN3t7QjeCIjZE2sS1Ddnz8ufd1J7ouBCdn+9zzj25iW5g83Zdf+NS1lftAF4KT6DLOkNE2ziO7/vgP37u2dD7SBcfl82zbAqEO2VVeLIr0gHTBqR9t3q0u2VeZqQekCs4OwgefeuugkTYuS+WSV1/767Xl85AmOC6+7CIMGWjjsmRn0SQbaYJ76Y/f37xbY7L37/72s+sRyEGK4FTB1dzsAQ4ZZmMd8nLKT5kLiBTBSWDlFENG2ViX7P78y/evR6I9mgvOjoKOb2WQHLL7J599d9oORHPBfemFx7aFQjKVSZyjy0BTwSmDlIODG3P5/m+8OaVM0lRwNpO3hUIfFGWUpVqjmeAkqlsZpC8aj1/85cXrEWqDJoKToCqD3IaFAg+Nt6UvDru2PKzZRHBrL4MQl0Tbr9ICg2RD3N+tfQHEy7Usk1QXnDKIgVqrRyAo4nLE57iUoGqvkLrmVMG4KJO0WkBUF9yaD1Zq9+PPvfdiyFFiWLPoeOpW+6xVBSchXWsoLTN/7NW7tZ9YJjplq9qoKjjeYa1lEAMQOUMmvK655GOytCiTVBPc2ssgBiB6o33tK3FF+dplkiqCk4DqwFqNr93EE02k136+r/S7ZpmkiuCe/OnndyFpqFMtOVXwUwU3Z5/YM6e2d0nKuWve3l9ccBLPzFzGoJX6mKRfW/w5MpitBFfa6vfaiv6cbb/IYimKxQWXGVbKcyX7hM9ofjVjGXFsu1oIrvw/r9+SK3qW9joJbbGVGSE8u1aZZFHBMVaWoYQCOwCnRCIvGVu6qC04/+dSfU9tL/NkjTbWKJMsKjihwGANdaAmrYbljZdggHm6S22sKTjfrQ1jvrtM4AybGks2WBqLCU5oaF3kNRAG5JlfP3Hdisvw9shLXrim4Dw7Wt+ztZaR15nI7LUkFhGcgWHo1jPR4BF6BPKkS16uruDuhUMV0WlPa9EVOyxZJllEcE/85LMXvcbSlN9MOeUw5qhUTcERTfR7gUjL54+/syZNkEgEuYTZgjP7Wu8oTBUbGOy1ebgCq1mCO9f2GtSnpcokswXXetOaJ51zAWTMSrqu4Oa13wRvvXrVJ31bArMENyYBX5KeNbfjYw4U1BSc7+Zh53iM/QKtbQqjX0vss04WnETS6qmVeycSIphzn3Lsm5pqCg79HyeHo99/CC8abCk69jdZ52Ky4PbHxtt1WJ4onEyBgRX6x5ZtagsO/T+c2icTvvXxL/abexx9kuAMRMs8gtimbigbUCFsrBCwheDQc/QtWtop0Lexk2gJaq/+zSmTTBKc0BQx7ByWUDrlBSxyjilF01aCQ88SKaaWHixAWkYaz5qz6AkLrvWs8qwpyarSg88a0KHvPceWgivU1ilenLfx+Sn9nEqim7roCQmu9dvGPcfzomAMXm3qIGQIDr1+QdkmCnlVSyegj/o6BSHBtT42TjTRY95lJ2FOMp0lOJQbTykMz+1zlHQwZXKMFpyBvFShX5IGbsrPGDDoc3OaTMERjWdHyz+ta6LaaZUcza1HC671sXHPis70fWiZ38ZMwaE+RA9A7sskbV8WpJ3RvHOU4Bi+ZRnEoDk5HJk9PILPLeGBswWHBjO6WDL4LXM5FFojZZJRgmt9bHxKfjB2F2EMexAcTyWFiUB7W+7+IJuPOfxacFFwZllL71aMFfFuFhZLtrEHwSFvFa3st6yRFkYWOmcFx1W6J9AyL2CsyIyBpY3ci+C0g5eLTD4OomUlAfV5bAp0VnAZx8YZK5K7EMVSobSwF8FhNL3gJFo6iEI6GdPOk4JrXQYp5J4jM7rGIYKeBBfxHgU12nGJpUxyaQFxUnCtj7+gRgvhY2FS1CgF9CQ45OUiW0mtdx4KPfPSBaFBwe33IduKDT0zsom939ddvp29CU4fI/Uu49c6jyvU/3N2GxRc62PjhZ4Zyd9qncnrTXC+U1gdC+G3ZWXhkNp6bofoIcG1LoMcMxI6TIwaCXJvgtMe+XSkPdrvc0PfV5vnyiQPCE7Cl9XQYtSxVeuaixrf2ZPgUH4UOR1csy2XyAlwBkMLnQcEJ3/KSDYxumAwg2pNjF4FFzkZvB/L9nl4oRxy6Nb+jeB4jEw3bKAM2FgI/bUM2qPgfK8L52PR+vTIMYsDOY5YN4LbD2COd8OoQWsu/XsVXGThYDxrtWUsPf84DbgRXMYe3CHNxshZ+Zq3xnoUXDTlMNDZgjM+x3W5neAkd5nhFIcadw72W2sZtEfBaVPkXijB1VjBR1gWD4fYCY5hWx9rOSbBRZLiuyg4bRq7xdWD4EqbD/O4neCs+IY+0JIEF9llqC04JZfozaRadUEsgzcWvQiOIzucuDvB9RLve8nh0IIksutR+7AD8dg3HoseBIcEdzhxuxGc50fOwdU+OqU9x/nHOezbU28CEE+kPT2sUgsPb97dCC57NjCOHGgsatbhCn3/mLxSyKi9Hcg+kYs1fvphbftcYgmpD3k4Chz6QEtGZ3CrSVIq/Ke23Ai/ZigtJJ5Ijru/UJMvOLaRbhTsBFc7/xhDz46swniVVm0mOpPBIBI6quQ7FcHztBJ+JKfMrquisTku5ewEB63vLhxT445XNJfQ8h6m5/AY9giRAFoNaJlUkVVz9njiUJp0I7jMjftCDeQ9xqL1m4OySDhD+5LnkD2WOLSBfyM4eVy2CyaeSPGXOHswbG2yS6RkxBNmnmlEXlnKc+yVbwQHrS88H9OzIxvUck85Qos8LpM8RcTz70+K5EeroVX1A4LTKZ0b+oJWNJsjULu7zWFVOJWrRsJpzV2YsTQmQznnA4IDqswcwHPHk4cgFcieJDXJU0Uu0FjlZ1cctPnUQYyHBCdMZbpjYo/Um6Dmpnk2TaaIdxOlMvM3QsdT5a2HBAeZRcN9CIm9dyzbyLVoDCJHtiB75c5ZDR0tLxgUXLZbNqsjYRWyFzxLk+1NvsMq/SVkL6JKvnkOg4KDzJUO4UQ28uG25XL6EsndwLs9Mm3As17aDTkpOMjyGiUPiB6A3B9ZWn9djs0j+8oFPsPLDH1nbRLbmMMFZwUnrGWFqSn5i1SA0dccWks4jGxjgTw2q9/aPHZb8qzgIKvOpRPyyKiXM1DZZYE5FBLPJd2nkDnRRJWxlYWLgpOI6kjGABJ6ZEunQB6xxnxOm6NeHXi3rFSiOIaxpZuLggP7m1kDyJDR8AK8hB+0MfSdPVI/IwdQD2FlmpW7KUdFXpg4SnAgRmd4Od41sr96iHJZuvfwqo2R07yHyHQGxiZyVxZGC67Fke5TZNDoW80LeDqzP8sDXCKxSRsihe4Cnt93ZE0ogovWS0cLDjLLJNHDmYeQ48gzMtp+ivpEbJHjWIcg0MwtvbFlkGOEBJdZJvHcqaEVLH64f94yO8QaLB43cmT8GIrCWaF0jgMICQ72e3U5KyIGnrJqPYS8zndlpAcmDdspNUU25I+xT2/yCtzGYapnDguOp8iscxFK9IdlHMPMJNy9AB6p3hfPMUhCoPA+B9reos2nyDNHz+cdIiw4MOCZ7tzsnjtwYP/VK8JMoBLmhp45hft27oUhFZgTPgvK5nzmAsi4z+nLJMGBK31ZHTeInh1dIZ0CryFEyPGK1/NrpH/aVD6LRKyIu1QbeZTsbTvPnpNHw2TB8TBZXg6LGJbwdIcgPrfW5VlFgIqb+jrE8m8moHuqvP9SIisgNmGMkI/t0JL6OaUIf4jJgoPsk7ZEh1NrdGNBhEQklKDn+ZXYDcCUGtpYCKPEnGlnJPa5CzaYJTjGztqBKCyhbO5CokcQeQ/1QzYmeuKfi1mCg/0ZtFxXj9y9GTin3NAT7JCUXHWovy1pkbbUhJ4tuOLyM71cIcNIrOfmGZkQnq2c9aUHmxJ89Nb/OcwWHMhpernEIvzwdtHj2T1AXmiAe4gYhcZ1yYXZIoLr8aQtD2FmLr2KrQEeudwH7sGrFRrPcz83awoWERxIcHvxcoUMVoymyNsbpCNy4FJ4HupDJo2nFfqSWExw0OuFZG0yoHKjpWtkU2AQCc0KvzevVqhdS5RBjrGo4BiS8Xo0IBKeWSvUWgUuPXvPQdohRzMp5Zi9Cg21i9etseJfVHCwv7Xf91W9kpijrRriE3KXNrDcjMjkZ8Wb9RgBjmn82KQGFhdc2YbpoX40hiXc+r12E4d91bKLwAvKtfSLlzqkv0P/7v/5jHpV2RYruZln9OrNjqmtJqH+1cDiggNlEmFjqEM90yTZC/Derv3+TDSEaBVuIIRE9HskLHVIn/c59B0+uxaRHVL7a67sqwgODAbDD3VqTSQa4iliPGT5+zUKa4i88dTLPGNRTXDCUW9lko3nyasvsV96DtUEB5bVJT/a2DeNU4vdmaqCM1t05raEnNtK4yMPrbVQOERVwYEVn0R0qKMb+yDvVvtMYUF1wZk1ayqT3DVa/FjgtUJ1wYHi5+bl+iTBtdxnbiI4KD+XaqjTG3MolNbYLz2HZoJTJtm8XD+0UMDaZZBjNBMcbGWSfqjmNvX2/Bw0FRzwcluZJJcWcA4TZKC54Gxub14ul3JpC7kMNBcc2PDeyiQ5bF0GOUaK4PZlks3LZVA6k3nqOUVwsJVJ2lP+3LoMcow0wTmweJuO9vROdq51bDyCNMHBGo6j3xYqg9Q6Nh5BquDMtux3k9wFiiTeK9cDUgUHZt3m5eqSd+vlQni64ECZZFtA1KFqgDsYvaALwVmmbwuI5VkWCvaxe0EXgoNtAbE8ebceFgqH6EZwoEYk3xgy3sYY2XHsT/hria4EB9654bbXFl6nkd38ULuMkyBj0J3gQBhgvG0hEaMQKmfL2pgfgy4FBxLdsv21Ce80ebRiI6+YaPmCninoVnAF6kdes8CwZvB2ymRPdigHIJQ9engN2Rh0L7gCFz0kwWp2VrPyPInxXaN+E5pJKE/rqeQxBqsR3CGcwzejeb+7Rv1ufQ9hSaxScBvWi01wGxri6uq/xnUQ1wRn2NkAAAAASUVORK5CYII=;" vertex="1" parent="1">
          <mxGeometry x="633" y="730.5" width="35" height="35" as="geometry" />
        </mxCell>
        <mxCell id="jjM4XxSEG5LytGMmibBt-102" value="배달 API (:9092)" style="text;html=1;strokeColor=#82b366;fillColor=#d5e8d4;align=left;verticalAlign=middle;whiteSpace=wrap;rounded=0;" vertex="1" parent="1">
          <mxGeometry x="673" y="733" width="173" height="30" as="geometry" />
        </mxCell>
        <mxCell id="jjM4XxSEG5LytGMmibBt-103" value="" style="shape=image;verticalLabelPosition=bottom;labelBackgroundColor=default;verticalAlign=top;imageAspect=0;image=data:image/png,iVBORw0KGgoAAAANSUhEUgAAAJwAAACNCAYAAABCMhNzAAAAAXNSR0IArs4c6QAAAARnQU1BAACxjwv8YQUAAAAJcEhZcwAADsMAAA7DAcdvqGQAAA+oSURBVHhe7d29q3VHFQZw/xB7C6s3jaBgJdaWaiMKARULtQtIKj8KCwtBC5EUqRQJr4kExagpRBIjguIHKgGjgiJC/ChCIHr1d86d63nPu885e+29Z9bse/cDD+/nOXtmzTNrrVkzs++brjZsaIhNcBuaYnWCe+XV31z96PffvvrWr568k/zub7++6/+f/vHytUXWhVUIjsi++tKnrz78zbddfeCpt1w9ev/e//jIHea9nR0+9sw7r7728y+uSnxdC44hv/DDj++Ehgy88f/86NPv2AnwI0+/fTch//zPV64t1y+6FNy///PG1f1ffmVn0E1o40h4n3j2Xbuw2zO6E9y/Xv/71Wd+8KFd2CC4IeNuHObe493bRYXX33jt2qJ9oSvBCQlm6ebV5pG3e+w779lN3t7QjeCIjZE2sS1Ddnz8ufd1J7ouBCdn+9zzj25iW5g83Zdf+NS1lftAF4KT6DLOkNE2ziO7/vgP37u2dD7SBcfl82zbAqEO2VVeLIr0gHTBqR9t3q0u2VeZqQekCs4OwgefeuugkTYuS+WSV1/767Xl85AmOC6+7CIMGWjjsmRn0SQbaYJ76Y/f37xbY7L37/72s+sRyEGK4FTB1dzsAQ4ZZmMd8nLKT5kLiBTBSWDlFENG2ViX7P78y/evR6I9mgvOjoKOb2WQHLL7J599d9oORHPBfemFx7aFQjKVSZyjy0BTwSmDlIODG3P5/m+8OaVM0lRwNpO3hUIfFGWUpVqjmeAkqlsZpC8aj1/85cXrEWqDJoKToCqD3IaFAg+Nt6UvDru2PKzZRHBrL4MQl0Tbr9ICg2RD3N+tfQHEy7Usk1QXnDKIgVqrRyAo4nLE57iUoGqvkLrmVMG4KJO0WkBUF9yaD1Zq9+PPvfdiyFFiWLPoeOpW+6xVBSchXWsoLTN/7NW7tZ9YJjplq9qoKjjeYa1lEAMQOUMmvK655GOytCiTVBPc2ssgBiB6o33tK3FF+dplkiqCk4DqwFqNr93EE02k136+r/S7ZpmkiuCe/OnndyFpqFMtOVXwUwU3Z5/YM6e2d0nKuWve3l9ccBLPzFzGoJX6mKRfW/w5MpitBFfa6vfaiv6cbb/IYimKxQWXGVbKcyX7hM9ofjVjGXFsu1oIrvw/r9+SK3qW9joJbbGVGSE8u1aZZFHBMVaWoYQCOwCnRCIvGVu6qC04/+dSfU9tL/NkjTbWKJMsKjihwGANdaAmrYbljZdggHm6S22sKTjfrQ1jvrtM4AybGks2WBqLCU5oaF3kNRAG5JlfP3Hdisvw9shLXrim4Dw7Wt+ztZaR15nI7LUkFhGcgWHo1jPR4BF6BPKkS16uruDuhUMV0WlPa9EVOyxZJllEcE/85LMXvcbSlN9MOeUw5qhUTcERTfR7gUjL54+/syZNkEgEuYTZgjP7Wu8oTBUbGOy1ebgCq1mCO9f2GtSnpcokswXXetOaJ51zAWTMSrqu4Oa13wRvvXrVJ31bArMENyYBX5KeNbfjYw4U1BSc7+Zh53iM/QKtbQqjX0vss04WnETS6qmVeycSIphzn3Lsm5pqCg79HyeHo99/CC8abCk69jdZ52Ky4PbHxtt1WJ4onEyBgRX6x5ZtagsO/T+c2icTvvXxL/abexx9kuAMRMs8gtimbigbUCFsrBCwheDQc/QtWtop0Lexk2gJaq/+zSmTTBKc0BQx7ByWUDrlBSxyjilF01aCQ88SKaaWHixAWkYaz5qz6AkLrvWs8qwpyarSg88a0KHvPceWgivU1ilenLfx+Sn9nEqim7roCQmu9dvGPcfzomAMXm3qIGQIDr1+QdkmCnlVSyegj/o6BSHBtT42TjTRY95lJ2FOMp0lOJQbTykMz+1zlHQwZXKMFpyBvFShX5IGbsrPGDDoc3OaTMERjWdHyz+ta6LaaZUcza1HC671sXHPis70fWiZ38ZMwaE+RA9A7sskbV8WpJ3RvHOU4Bi+ZRnEoDk5HJk9PILPLeGBswWHBjO6WDL4LXM5FFojZZJRgmt9bHxKfjB2F2EMexAcTyWFiUB7W+7+IJuPOfxacFFwZllL71aMFfFuFhZLtrEHwSFvFa3st6yRFkYWOmcFx1W6J9AyL2CsyIyBpY3ci+C0g5eLTD4OomUlAfV5bAp0VnAZx8YZK5K7EMVSobSwF8FhNL3gJFo6iEI6GdPOk4JrXQYp5J4jM7rGIYKeBBfxHgU12nGJpUxyaQFxUnCtj7+gRgvhY2FS1CgF9CQ45OUiW0mtdx4KPfPSBaFBwe33IduKDT0zsom939ddvp29CU4fI/Uu49c6jyvU/3N2GxRc62PjhZ4Zyd9qncnrTXC+U1gdC+G3ZWXhkNp6bofoIcG1LoMcMxI6TIwaCXJvgtMe+XSkPdrvc0PfV5vnyiQPCE7Cl9XQYtSxVeuaixrf2ZPgUH4UOR1csy2XyAlwBkMLnQcEJ3/KSDYxumAwg2pNjF4FFzkZvB/L9nl4oRxy6Nb+jeB4jEw3bKAM2FgI/bUM2qPgfK8L52PR+vTIMYsDOY5YN4LbD2COd8OoQWsu/XsVXGThYDxrtWUsPf84DbgRXMYe3CHNxshZ+Zq3xnoUXDTlMNDZgjM+x3W5neAkd5nhFIcadw72W2sZtEfBaVPkXijB1VjBR1gWD4fYCY5hWx9rOSbBRZLiuyg4bRq7xdWD4EqbD/O4neCs+IY+0JIEF9llqC04JZfozaRadUEsgzcWvQiOIzucuDvB9RLve8nh0IIksutR+7AD8dg3HoseBIcEdzhxuxGc50fOwdU+OqU9x/nHOezbU28CEE+kPT2sUgsPb97dCC57NjCOHGgsatbhCn3/mLxSyKi9Hcg+kYs1fvphbftcYgmpD3k4Chz6QEtGZ3CrSVIq/Ke23Ai/ZigtJJ5Ijru/UJMvOLaRbhTsBFc7/xhDz46swniVVm0mOpPBIBI6quQ7FcHztBJ+JKfMrquisTku5ewEB63vLhxT445XNJfQ8h6m5/AY9giRAFoNaJlUkVVz9njiUJp0I7jMjftCDeQ9xqL1m4OySDhD+5LnkD2WOLSBfyM4eVy2CyaeSPGXOHswbG2yS6RkxBNmnmlEXlnKc+yVbwQHrS88H9OzIxvUck85Qos8LpM8RcTz70+K5EeroVX1A4LTKZ0b+oJWNJsjULu7zWFVOJWrRsJpzV2YsTQmQznnA4IDqswcwHPHk4cgFcieJDXJU0Uu0FjlZ1cctPnUQYyHBCdMZbpjYo/Um6Dmpnk2TaaIdxOlMvM3QsdT5a2HBAeZRcN9CIm9dyzbyLVoDCJHtiB75c5ZDR0tLxgUXLZbNqsjYRWyFzxLk+1NvsMq/SVkL6JKvnkOg4KDzJUO4UQ28uG25XL6EsndwLs9Mm3As17aDTkpOMjyGiUPiB6A3B9ZWn9djs0j+8oFPsPLDH1nbRLbmMMFZwUnrGWFqSn5i1SA0dccWks4jGxjgTw2q9/aPHZb8qzgIKvOpRPyyKiXM1DZZYE5FBLPJd2nkDnRRJWxlYWLgpOI6kjGABJ6ZEunQB6xxnxOm6NeHXi3rFSiOIaxpZuLggP7m1kDyJDR8AK8hB+0MfSdPVI/IwdQD2FlmpW7KUdFXpg4SnAgRmd4Od41sr96iHJZuvfwqo2R07yHyHQGxiZyVxZGC67Fke5TZNDoW80LeDqzP8sDXCKxSRsihe4Cnt93ZE0ogovWS0cLDjLLJNHDmYeQ48gzMtp+ivpEbJHjWIcg0MwtvbFlkGOEBJdZJvHcqaEVLH64f94yO8QaLB43cmT8GIrCWaF0jgMICQ72e3U5KyIGnrJqPYS8zndlpAcmDdspNUU25I+xT2/yCtzGYapnDguOp8iscxFK9IdlHMPMJNy9AB6p3hfPMUhCoPA+B9reos2nyDNHz+cdIiw4MOCZ7tzsnjtwYP/VK8JMoBLmhp45hft27oUhFZgTPgvK5nzmAsi4z+nLJMGBK31ZHTeInh1dIZ0CryFEyPGK1/NrpH/aVD6LRKyIu1QbeZTsbTvPnpNHw2TB8TBZXg6LGJbwdIcgPrfW5VlFgIqb+jrE8m8moHuqvP9SIisgNmGMkI/t0JL6OaUIf4jJgoPsk7ZEh1NrdGNBhEQklKDn+ZXYDcCUGtpYCKPEnGlnJPa5CzaYJTjGztqBKCyhbO5CokcQeQ/1QzYmeuKfi1mCg/0ZtFxXj9y9GTin3NAT7JCUXHWovy1pkbbUhJ4tuOLyM71cIcNIrOfmGZkQnq2c9aUHmxJ89Nb/OcwWHMhpernEIvzwdtHj2T1AXmiAe4gYhcZ1yYXZIoLr8aQtD2FmLr2KrQEeudwH7sGrFRrPcz83awoWERxIcHvxcoUMVoymyNsbpCNy4FJ4HupDJo2nFfqSWExw0OuFZG0yoHKjpWtkU2AQCc0KvzevVqhdS5RBjrGo4BiS8Xo0IBKeWSvUWgUuPXvPQdohRzMp5Zi9Cg21i9etseJfVHCwv7Xf91W9kpijrRriE3KXNrDcjMjkZ8Wb9RgBjmn82KQGFhdc2YbpoX40hiXc+r12E4d91bKLwAvKtfSLlzqkv0P/7v/5jHpV2RYruZln9OrNjqmtJqH+1cDiggNlEmFjqEM90yTZC/Derv3+TDSEaBVuIIRE9HskLHVIn/c59B0+uxaRHVL7a67sqwgODAbDD3VqTSQa4iliPGT5+zUKa4i88dTLPGNRTXDCUW9lko3nyasvsV96DtUEB5bVJT/a2DeNU4vdmaqCM1t05raEnNtK4yMPrbVQOERVwYEVn0R0qKMb+yDvVvtMYUF1wZk1ayqT3DVa/FjgtUJ1wYHi5+bl+iTBtdxnbiI4KD+XaqjTG3MolNbYLz2HZoJTJtm8XD+0UMDaZZBjNBMcbGWSfqjmNvX2/Bw0FRzwcluZJJcWcA4TZKC54Gxub14ul3JpC7kMNBcc2PDeyiQ5bF0GOUaK4PZlks3LZVA6k3nqOUVwsJVJ2lP+3LoMcow0wTmweJuO9vROdq51bDyCNMHBGo6j3xYqg9Q6Nh5BquDMtux3k9wFiiTeK9cDUgUHZt3m5eqSd+vlQni64ECZZFtA1KFqgDsYvaALwVmmbwuI5VkWCvaxe0EXgoNtAbE8ebceFgqH6EZwoEYk3xgy3sYY2XHsT/hria4EB9654bbXFl6nkd38ULuMkyBj0J3gQBhgvG0hEaMQKmfL2pgfgy4FBxLdsv21Ce80ebRiI6+YaPmCninoVnAF6kdes8CwZvB2ymRPdigHIJQ9engN2Rh0L7gCFz0kwWp2VrPyPInxXaN+E5pJKE/rqeQxBqsR3CGcwzejeb+7Rv1ufQ9hSaxScBvWi01wGxri6uq/xnUQ1wRn2NkAAAAASUVORK5CYII=;" vertex="1" parent="1">
          <mxGeometry x="633" y="776.5" width="35" height="35" as="geometry" />
        </mxCell>
        <mxCell id="jjM4XxSEG5LytGMmibBt-104" value="전자영수증 홈페이지&amp;nbsp;(:8787)" style="text;html=1;strokeColor=none;fillColor=none;align=left;verticalAlign=middle;whiteSpace=wrap;rounded=0;" vertex="1" parent="1">
          <mxGeometry x="673" y="779" width="173" height="30" as="geometry" />
        </mxCell>
        <mxCell id="jjM4XxSEG5LytGMmibBt-105" value="" style="edgeStyle=elbowEdgeStyle;elbow=horizontal;endArrow=classic;html=1;curved=0;rounded=0;endSize=8;startSize=8;fillColor=#f8cecc;strokeColor=#b85450;entryX=0;entryY=0.5;entryDx=0;entryDy=0;exitX=1;exitY=0.5;exitDx=0;exitDy=0;" edge="1" parent="1" source="jjM4XxSEG5LytGMmibBt-58" target="jjM4XxSEG5LytGMmibBt-93">
          <mxGeometry width="50" height="50" relative="1" as="geometry">
            <mxPoint x="330" y="490" as="sourcePoint" />
            <mxPoint x="557" y="458" as="targetPoint" />
            <Array as="points">
              <mxPoint x="480" y="490" />
            </Array>
          </mxGeometry>
        </mxCell>
        <mxCell id="jjM4XxSEG5LytGMmibBt-106" value="" style="edgeStyle=elbowEdgeStyle;elbow=horizontal;endArrow=classic;html=1;curved=0;rounded=0;endSize=8;startSize=8;fillColor=#f8cecc;strokeColor=#b85450;entryX=0;entryY=0.5;entryDx=0;entryDy=0;exitX=1;exitY=0.5;exitDx=0;exitDy=0;" edge="1" parent="1" source="jjM4XxSEG5LytGMmibBt-58" target="jjM4XxSEG5LytGMmibBt-76">
          <mxGeometry width="50" height="50" relative="1" as="geometry">
            <mxPoint x="333" y="498" as="sourcePoint" />
            <mxPoint x="557" y="500" as="targetPoint" />
            <Array as="points">
              <mxPoint x="480" y="530" />
            </Array>
          </mxGeometry>
        </mxCell>
        <mxCell id="jjM4XxSEG5LytGMmibBt-107" value="" style="edgeStyle=elbowEdgeStyle;elbow=horizontal;endArrow=classic;html=1;curved=0;rounded=0;endSize=8;startSize=8;fillColor=#f8cecc;strokeColor=#b85450;entryX=0;entryY=0.5;entryDx=0;entryDy=0;exitX=0;exitY=0.5;exitDx=0;exitDy=0;startArrow=none;" edge="1" parent="1" source="jjM4XxSEG5LytGMmibBt-108" target="jjM4XxSEG5LytGMmibBt-101">
          <mxGeometry width="50" height="50" relative="1" as="geometry">
            <mxPoint x="333" y="498" as="sourcePoint" />
            <mxPoint x="557" y="546" as="targetPoint" />
            <Array as="points">
              <mxPoint x="360" y="610" />
            </Array>
          </mxGeometry>
        </mxCell>
        <mxCell id="jjM4XxSEG5LytGMmibBt-109" value="" style="edgeStyle=elbowEdgeStyle;elbow=horizontal;endArrow=none;html=1;curved=0;rounded=0;endSize=8;startSize=8;fillColor=#f8cecc;strokeColor=#b85450;entryX=0;entryY=0.5;entryDx=0;entryDy=0;exitX=1;exitY=0.5;exitDx=0;exitDy=0;" edge="1" parent="1" source="jjM4XxSEG5LytGMmibBt-58" target="jjM4XxSEG5LytGMmibBt-108">
          <mxGeometry width="50" height="50" relative="1" as="geometry">
            <mxPoint x="323" y="488" as="sourcePoint" />
            <mxPoint x="633" y="748" as="targetPoint" />
            <Array as="points" />
          </mxGeometry>
        </mxCell>
        <mxCell id="jjM4XxSEG5LytGMmibBt-110" value="" style="edgeStyle=elbowEdgeStyle;elbow=horizontal;endArrow=classic;html=1;curved=0;rounded=0;endSize=8;startSize=8;fillColor=#fad7ac;strokeColor=#b46504;" edge="1" parent="1">
          <mxGeometry width="50" height="50" relative="1" as="geometry">
            <mxPoint x="970" y="320" as="sourcePoint" />
            <mxPoint x="830" y="794" as="targetPoint" />
            <Array as="points">
              <mxPoint x="1070" y="530" />
              <mxPoint x="60" y="430" />
            </Array>
          </mxGeometry>
        </mxCell>
        <mxCell id="jjM4XxSEG5LytGMmibBt-111" value="" style="edgeStyle=elbowEdgeStyle;elbow=horizontal;endArrow=classic;html=1;curved=0;rounded=0;endSize=8;startSize=8;fillColor=#fad7ac;strokeColor=#b46504;" edge="1" parent="1">
          <mxGeometry width="50" height="50" relative="1" as="geometry">
            <mxPoint x="970" y="320" as="sourcePoint" />
            <mxPoint x="830" y="840" as="targetPoint" />
            <Array as="points">
              <mxPoint x="1080" y="540" />
              <mxPoint x="70" y="440" />
            </Array>
          </mxGeometry>
        </mxCell>
        <mxCell id="jjM4XxSEG5LytGMmibBt-112" value="" style="edgeStyle=elbowEdgeStyle;elbow=horizontal;endArrow=classic;html=1;curved=0;rounded=0;endSize=8;startSize=8;fillColor=#f8cecc;strokeColor=#b85450;entryX=0;entryY=0.5;entryDx=0;entryDy=0;exitX=0;exitY=0.5;exitDx=0;exitDy=0;startArrow=none;" edge="1" parent="1" source="jjM4XxSEG5LytGMmibBt-108" target="jjM4XxSEG5LytGMmibBt-55">
          <mxGeometry width="50" height="50" relative="1" as="geometry">
            <mxPoint x="333" y="498" as="sourcePoint" />
            <mxPoint x="643" y="758" as="targetPoint" />
            <Array as="points">
              <mxPoint x="360" y="310" />
            </Array>
          </mxGeometry>
        </mxCell>
        <mxCell id="jjM4XxSEG5LytGMmibBt-108" value="" style="shape=image;verticalLabelPosition=bottom;labelBackgroundColor=default;verticalAlign=top;aspect=fixed;imageAspect=0;image=data:image/png,iVBORw0KGgoAAAANSUhEUgAAAIQAAACCCAYAAACHHWC6AAAAAXNSR0IArs4c6QAAAARnQU1BAACxjwv8YQUAAAAJcEhZcwAADsMAAA7DAcdvqGQAABpwSURBVHhe7Z3Lqy1ZUsb9Rxw6EwQLpYdS4KyH7Uwc9NRy5NQHaos0jYU9KASVbsQLjloEQXpSoND0QGkQxKYnig4EER0I91VVt+82frFXrPOtyLVyZ+bO/Tjn3oAgV+SXuR6xvoz1yNzn/MThvbwXkfeEeC+NvFuEePvG9e3r5yc1rn3X5MkS4u2L/z28+c8fHr740d8fPv/H7xw+/963D599948Or//qtw+v/vLXD6++9dXDyz/95cPLP/6lo5I25Tz46+/8pl/PfdxPPuRHvk9ZngYh7En+8f/8++GLf/nUO/HVn//a4eUnXzm8/MNfPLz4xi8cXnztg8OL3/2Zw4vf+enjMfT3fnaqisf13P/1L3l+5Ev+lPPFP3/38OP//tcnFUkeLSGcAPbUfvbpJ/5ke6fRgdGJdC7n0N//+U36/Gs/5+p25BWksXKe/9ZP+TkizGd/+w2vD/V6zAR5VIRgbH/zb/9weP03f3AkgT21ToDo/NKJ2qmqF8Mon3oQRaxe1A9y+FzkkcndEwKnEpY/+7s/Obz8+MOHKFAjwPEp9o4pHRcd2BwXYqFqr8KCHKgNVwwtPvd4JOS4X0JY2PVoYJPAJhJYB1xSo5NzemIvwSAs9bYjk9THEDXujhA4DMe9+otfPTo1JnXhbHV4T7dioVyj1+X0JszqTzss/fLPfsUnv/dKjPshRIkITgScZxpPHUd9AtW+Fta7bmSP0m6XCakTw4h/bxPQuyAEM3NCqi8RPSI8OLJJZ83Y3H33htFOay97Hswx7kVuSoi3//dfvvGzaI6Qnap6DUzt3bCHOQbLZ1+y3lhuRog3//FPD8NDniOIatjNmrEcordg2T4LG1ybsZhjMIwwbN5Srk4IJlMsIT0qmBOyo0Kr4xIWjlSs2glrjguxULWvgqE8HHaeTa5bTTqvSgj2ExgzY4ePxr/XpOYX/PPq2Uc3mVtcjRCEwhff/HIbFcqx2qpXxNzuXR+6F6b2KczmU7w7YYl6Tbk8IWxZxdvCGCKiwdopTQdtxZJ9Dha2pq+BhV2PTLLNZ0y8rzWEXJwQbN16Y3UFIQ44ab/rWBla2bG9xp7FxQjBdwM0YjJfyA5QvTWm9l1hZV5h8y+W6peUixCC8OYbTUSF0jANi1l3w8TOmNpzmOsO+Xh6cO1WjOGDpfolP9LZnRBUFiaz4RKNyQ0O3QNrznewelyIhap9V5j51UlxoUixKyGIDEEGZfk7pwyR+GAvZTKuw66du1Sk2I8QNuHhwxBvgJJBGF7P3THW1YypnTGGSVte44vdNN7zUFaUBymYU+y8+tiHEEYG9uIbMthRHd90whyW7FtgYWt6McY4/+yj4ph9hOGBbzl1peZlmb8hzJ6k2IUQvs9ARfPSUhw2SW/Bsn2PWJn4qbx9+7akjulsh4wwXnplQnh5DCOmvArYS84mhO9AEhlyZSOd9Z4xtbdiiRCjzkeWYhNCNHU5Lkn5AnwPOYsQXlE+dmXSY5XTEJr1KpjYGVN7DnPN1yp+CusQIlRtTc9hSCWER4RUPmmIYvOWPd59bCZEXVF0yEA69NKYnu9h9TiD5fRZ2CUJUSJEU16xvdxvffXs+cRmQnz+/WfHXUir0HsVTYRAtJOzLMG6c4isEMT6g1fn58gmQvBxi/8qKtbGylSt5CPEupoxtXOa5WAiRAgdPCLAHNYQYq4u4LY8Pecjm9WE8KHCQpMPFalyjaMtrfZiLNm3wEbXdjEeCvNFfWdjYzlL8JDoaO3snJ7DkF6E6NaFtF3DL8m27mSuJoQvMWO/QSrkqnbGL41le2+MIx2CFgKg/HiIuRRDKJGTzotxXDs3JDp6DdYdMmba4EOHkHKNrCIEXzz5dw1ULFdI9bFiakeatsaymq+kLTqyc+gEWPBr8NzhKkuxCSF69VTbVyMfOEHXynJCsBtpExZ3jlZAVENY1mtgam/FXMWO32p+/oO/9rF5RAA6MDox0lm3YEglhHd0vx2e1nZYFIO4a1cdiwkB23w/vbA0KhCV6lVuhIXugen5HqbXLMGqbc6nE/zn/h3RDssduCeG5AjR1HPQhiCH/xhohSwmBPvzc9HhSao9ZQwNIb3OCrkk1p1DLFGrv08wV0SJRYTw6GBkUCY2Ws49OkyvyddjWwfQEb0Zu3akinbsXlhDiF49e+mwrd/WfKh7mhA2dxjtSOYKTDpB7DWY2pP7RNfctwYL29M2Y2cO4a4onaaaz6ut6a0Y0osQWs+wu5j125odzJOEGG1C1XS2HxuW7ZJ2h9rTRduZUCLRQUh0mGqV8jFsD8vnlmDdIYP6deo9weg3WxkujRLzhIiPXogOWmAUqrbqY8XCLtGQttMZWbQTEbVZhfDZfEiDzd03g00Isba9RAmL8kHUOZklBGOnrixQDU1Zb46JnTG1u5irPU1EBVtq+utkcSAd1OvA5rxd73/0bMHLrayBxVHPV0KsWHZOsQ8WvQ2dJQQz7JhM9gtpx1vFQi+N6fkeptfMYhEVWLvLXkPupBC148jQ4k/j4F3GVskRIuo8acMcZv0IWU/JmBDGdv3W4ckqTx2daBOv/FJICeBiPmFfYnLehKfPfVXy4jrO7aGM//4zSJ1DrFXaaXmc2lkdEqJuRJGRZ/jAuKage8f0GsVQOpAn59NPZpeWCI7kCWNdnzeruDe/8PO/abmj5jZ07Vns2I+nNqr6hGAs5Cf70sDQphPmsKSrMLEzpvZWrEYFC+3auRAgNITlmg8F8UdNTJtlnPnKyZCHVsrYqkSCfC61gXS2ZzHU2nzqo9wuIXgacFZ3VpvTjVL5fK5Ubi02V95WDKVTrTw6Oc8VMhkgi/8VPM9D6mh5xEoi5lmOR3lRZi+9Jza6doRZHU+9Gu8SAkccHZAaqaoFXkp7jerpEqyQm0kj4/KcQBRe83uojs7WMiwvMF+Sp1XYpC5qb8WynoGx0Tb3FrRLCJzBjWSioaexcZJNUnhCWKLtrbE7mstXHdZN0xwtH2bpvsFkIV5FowJHyBJDAB3t+Wg5NV9rvw+p8tDIdcP7roS5XdKuYVu75j6z6xJCt6rRyLwphKfkjC9zTonPYegUqUOo1kXPNxjKk2t5EBUmE8E0PMS8yaNCIWLOs2c/Nsz7zVaP+cEImRCCcNmsLkY6IIQ6uXG4yVIMyYRYpTTc7n1Z/khoT2p55hhm3rTFoyIk6uX5VLREtt4OLDIhhM8f0pN5zEhYhp0IgYN7HR7n12JBiFqeaq6LnieyERVsMqiTRkTLQcD9o588D4i8eul7xrKOMPPPaPk5IYQvsYQQWZcQYuL4DdiIEGo3GB1q17M66k2amnItKvi3oWz20FaJhuQ5KuOpYLQZ//ZkQgj/E0CZECVDzywyNyfmIUM7F1F7DYbUIUMa4+lcF5SoYE+5/y2mVJ8sTBp9dUDekEjyrGV0yluHGcF21KatWl62l2LmL+ZVvXlEQwg2LJoJpWaUNUUIlV5HhCzFIESsdFxzXbC9Qz/wVcHJpSQbTLGUpH3c38uzl96AUc5e6kNa5C9ldHUJZu33zbVO37WEsAt8yYWjSyYabhrbOqIXIUIinY/IEuzkHMIahbPo5N7Om+bJO4r6CWA8cZJffQI1/wXYxCbNg2KTWeZikPRcJR/Gex/ePGKk8lUX19PysfzyygtpCOETSgoWQqDhwMaRKULkTg0NO2QJhtQhQ+rg5VM3O+9zBXNYiN4b4lGBnUSesBIVcltqvpJW28sz7WE57TZP385/H2KXt52ahhDmk95cqyGE/7Qf53GDZdDVknkmBJI7Re01GDKZQ3AkKphj2LjqSc3Dxkbawo9ofNjJ7Yk8e6rl2ZHO9be+1AVS6bU9hRDp9fdcO5dgkw9kerqkTapWz96SvCGEhyZzXjAKremcaSLEqYYqvgRrhgyr/PPf+MnjF0wS5vS+kMlSUuud2zCLHZ8ifEIbWX0xv4JgTjLIwTX5vg4hQnJbVeawWULk8lVnMNrgO7dJWkLYk1c7oZMJWrEOIaJBuWFbsDqptPr4BlNaN+t9CMOD17+zlGzqndI9LNTDqnwjQXl0DqsZn2vFG9DyEPk9iRBRz6hrLz2HIT1C1PLEXoVZvfFxloYQ9R2GZOBabM8oMHPCRYeM8jerWAbPlYEQNVhG+VNLB+G4PdTaGYTI5RKJwPwbCVYClEv5CwmRdYQhI0J0+2UpZvUl4mZpCWHMd0KUmzWjiVrlMiFCoiE9WYr5Sy6iQlkrj+7jGl9BWGSgPruqzR1i4jWst9UPH/gLOSMCUSMTIiTnsRSbEGKuX5ZiEIK9iCQNIWJTyllUbtR0Yw8iREik8xFZgvWkd58vOSHNhbQpq6QRTauw8onJWtzTu28NVgnRm7OorsGIZHyJnaQlxODHvEGChhwpQuSGaYMujWU5B1Nc7UhnVUwlY9nW9ByG5AhBP4SqvQqDEDYPytInRMmgq4F1hgxtBKL2PWGIppGwe9fshXHU65AlWG8OMdElfaZqeZ0kRN3jlxuDXZNMZyIEkhuq+KUxPSKaRuawkNF55BxsrrwRNkuItUQIXRMhKgk6WrEOIaJBuWHXwvR4DpY1Y2prOmxkhPXScxjSI0QN/blfRljYgaXVUEhLiLLU62ZYjvU8k0qrZCZE1oyprekehowwveYaomUjc/XQ7zBG9yEjLM6H3Uwqcz9I/5zCKhlIL5lUsu+vy86ceaMpQqj0GhmyGLN89aXV6D6Whb5EvZBG51Kmahbqyr4Ew67/95sica3ek8/NYUhvUul9oH1T0osxI4TWM6QlRNmYUhJ0C0BnhgwkbNWQUxhCtGJ/ofcCS++hfN/mtgayve3130MtL6LlaGMKcRJY/SifPYu4N0LxpK6d9BKsiRC5H9Reg1nb2GbI0hCCJ8Idy81Fc7ranQgRDUC0QYjac1iIb13TKd/8crPnnu8LoeOiU3Bcrac1vql3sSdYOCoU56et6ypv37ivCLl1lzLG98HYfI7MTio3Kn5iRMjSEoKXW1//0oODkqMa5w3mECGRzkdkCeZPPY6mc63ylOXRgg2jInpfiH8CyPsM6xitd6Sz7eliN9clQsRWtX9AxDwL4lFGIp8SItcPO871jiOsSwipa27fIszaAKmzNIRgPK5vCUsGNcNJxtOdSiQalhsVshSrhIjycD7Rgs/kZG6B6H0IxGEsr51W6zxwDkfF3D4SgqcI5QWbv8wqJJjkESqEyKL11Poic1hDiFxervcSjLS1Ib8wRBpC6Fg1YVZWq9zcsrNna7pn6/kJIUoj3OG2fvYnN0WLuNelhPX6LUN0YsdJSnrSbsc5FBKYZkzvq3YiRK6X2kuxSYTI5Wt6AYYv+Fbk5AcyhEUa4w7gZlPPrGREutoQwiqZ5xC9BiFrMCQIkcsPUvC0+q+20xIvC/XzdzREvtKubptw1B4KIS78xdTZWh5m8s3SEIKnyn/ciuPsxllnpQihkjtbZSmWI8SkHhDD8BotipBHzpd2cU2NFsWxNc9ydDu0lrMSo142tLHJ50vQPZRX+xC6RLmTdRG7i0Fae/D1YQppCWEy7AgtAE2EyB0RtmrIKQyZDBmq2kBrHHMFOkAZ38sTYjAHqZNOzSe3T+21WCHrbip1XV2XXtryg2g9mRCCiYZPxsjAFGeFwzTdixC5E0b2HBYyGjKy7WnUGkkE0IlSLiOOfFBTl6jWDs8nnPUuqPm1t+REJoSgg53hrq2jaodgG96bQ4RoB+gRWYI1hJDyI03dJhhDgd3D0jBvaOkxhO8WfGzWJ1C0KS/pbpjYV8PMR70JJTIhBGGVJ380zj5kfOVlp5bfa6Sm6WAbFnydbe0JyeUhRAt/qcc9tJn7Q3v5Zzun975vDsv2EowH3SbkvfkDMiWECeNL0xk97QwZe8osIbL2HFEIzYw/f6mtxHOJSScPgkeLh+ioDwRptztYtecw7Ftj5pfea++QLiFwTswjPLOSIelqQwgLt4Rm2Larvn7evHltGlnS2a7pxj5O7uovvCxvZEKIIpCbsfVhA+qYV1cj/x52x0q/juYPSJcQOMb36K3B7thexpy3pRBsYwmzt/pKQBye66H2SYxoYR3M3OLU7zoQHgja5RGqRBrPR9XONT6S864lfXeYtUnnV1n6hLAnNPYjPJOcaSnI08XZfox0trdgnfKqbsDcpoOtA31Dq2x/R7ToRQ3/cXBMOiUvbEjLMtf3CMg3MC031+/WWKl3RMqedAmB4AwywJHuzHKMNIXcEgt7NQbZrAN9JTKYaavEbz78zasT9TgMxWYYpPAhBszKqlrK7uoabO7atWr9ycOgE+0sQ0IwbPTCtjtW7FthOGqIJbuL8dTjoPRDoJGwv8ELLt8EI8JINPG3xLKT6J1Y8t9FjWy5DUqURRh1szqeegiGhEDqr6FSIRP7sWBZcZK1j/lC781fFp90fu/b03cA7IAyGWXoIFKwdW1E20t9+A7C5baGremeXdo5Fx2QWUI4862REwaivXOh94ypHWlIz8syc75GC51X9I6RRkgzDBFBGKePJ835Zyr5+s4qcxmNQHbUfnmIBAPM+nFudREySwgmXv4dQIkSZOyZa6GS3hvrXevpbJ+JHW1ztjnNXwvb/CB/c7FEfHVm/qqE2EmISE6IPE9ZqtY2VkRLhsZZQiAeCo0Q6kTU7abQbZja18aqlnOOFaezOaez8YgIoXFOj4gvWS1ShOg9+folGJIJ4fUM7bVBMLeN6OzGetQ5IScJ4azvbWWrauGPCVNbr7cnyjfmbBjxDS1ZoobkjlMs9jr0mjj2zsVxhDWE0Hp6XbXeHaxEh7m9B5WThECYVeMgHFedV9JhN5hVZoglu8Hm7luRZ1zbu6/Bynm37fxE6QDGXiPFLaUSIuYQa9Tq3/uV90gWEYLQGbNcdV5OXxOLzuxiyT6JJbzqzNOVn2KVLRj2COvOIWbaVzGONtwvjQ7IIkIg/rKJyaUWlivQsy+BZT0X46jXhc3YayuPGHtzh42OSA/rndMjEtfpueGQofXWdNgrowOymBBeKT5BC5Zq4VnvGVO7pOsTZkfSbls7e9FBOzGnL4EhkwiR653acDyW6LZgN1ZlMSEQ/82DR4njWOaVkMpl+1ysd62ns30m5ralG6WN5ZsKSMHkestSdA/pDhmn1PqJqL5WVhGC0OlRIpahWgGx12BqXxurWs45Fsp5OsDCbrzVZceQCaZHjRNLuPyk6xO/BkMyIXI9qx1potvHHy7ad8iyjhAmOMOdVaLEMS2ViXOPAVM7X682HYESHY0gviSFJM8+8qeQsFwjiBBlrpPXYMM5RK5ntMPqOPq3EKdkNSFosH+8UqJEOFPTVG6IJbvBtt43sFdh4dSkQ4wHohAkhhcmcE6Q8iZ0JNHRS6USQh/CkVqd2BjbOrytJ4QJhfkHJDikVCQ7Nqf3xmrH9rBke3pwbcZUc56qDUZaIkj8UKfX8fnpVxlhp+YQtS7gRkyu3yqbCIEQJut3AMlxE2cJ1thbsaznYhz1OrXXYjyh8i5DOzl3eD4ivXPDIUPLJ3owVHR+wLtGNhMC8fccVEQrGRVVW/UOMSUwabfXYGp3CBGqtqbnMGQSIXL5qJXrP745Mdk9JWcRwucT8nepJs6S9GqsnB9hvXy2Ym5behdNhNhDTg0ZPkwxb5j5NG6pnEcIEypRP18vFcwOVvsSWNbVWDnnWOhWbCZCxBOvx1MYkgnRlMc5G7r14+Fz5GxCIP4Bh7wRbZRKRyPuDVM7X6/2GkwIMdfJa7DhHMJs3408sapZI7sQAqFSOsnEyeFoTV8DC3sVpp0quhqDEJf6cwCy7PSyrazevzg4R3YjBOKf3FFhI4U6i3S2z8Wy7enBtWswVb0u6xCztrMkpxOJnGer5eN+1Q+eOUKGBZ/ErZVdCYGw7PFX5UQKr3zruE1ONp3DRh3qugTjqNepfQqL8xkjWu6pNf/jJwj+nuLMFUVPdicE4i/B2MELUqhmJ6reCFOykXZ7Daa2nvMluf6yq02vwY552rn4GcCFXrRdhBCI/30nm/DE8FEbp44r57dgjX0m5ral71p5uCxS8DOAS8rFCIH42Ae7bbyLhmXnz3XG1bByzjHFxa5Y4BfAtPwGgwwWcf1TvgsMEyoXJQTCFne8Mo/GVtXG6/lrYWrn69W+JQYZyncZ15CLEwJhpsxSzF8bl7ExOqHpnGKfi7kmTO3ufZzr6M0wjhYV2N9Z+9XTOXIVQiDsaPo2N0MIrC8NxwHqIE8vwKq9M6aq12W9KFaGWR6iLR+5nCNXI0RInWx2hpBLOHnU2a6B5Wuwb4XhFyaP3392k0/2rk4IhBDI9q4PIUQLdUyks14QU0KRdruDVTtjam/FzA/4gyFiyQ+PLyU3IUSIvz5nB86jxXGtXR1nSnriyJ59Jua2pW+m1n6ipv/Y+AZRQeWmhEDYnuXjVY8WaRiZ66hdsXLOMcXFrljgG7GmjBIViJZ7vqA6R25OCBdbWxMmcUxv0unOU12D6TUDrOmkULX3xmgfUcGW4+zq3joqqNwHIUKMGGy+8HIo5he1s4ozw246NdLZnsPCtmPNq6N7YW7HPOGTrxz/zcMOH7TsLfdFiCI8Mb4aiQ9vyhzDnSqOVqefg6mtOjqPLsbKEtLV5ku+erjyUnKN3CUhQpwYNpTwebsvVeOFWeqMrR1X88nXYJ+LUU/qW36/AcHvaWgYyV0TIgRH8gMhXvn6hyI4upDDOzx3jOoCLJNG81yE2dHThQQ+LHz8oX/06j/iucOhYSSPghCN2DyDGTlLNP9tSPkzBQ/Rw9LRQaXDajrbJe02HbtGPQ8ZDqwe/DkhSEBUewzRoCePjxAiHjmMHExE/S/mxZ5GRBDSlSRHXUSUoke73Es+mrcpUYCvnZkXOAkeUSQYyaMmRCMWOSAI+xos5fiIhLGbianPP4gk/mSXzo0O1nQoNtdxPU++3c9QxbKY9zHxg1+PAhd+HX1teTqEGAlEsVk9HUg0YXIHYXiqUeYloSwF/bx1ONfx1HvHsyogn/IV9FOWp0+IpfLEnvSt8p4Q76WR94R4LyKHw/8DHLjn2L10lakAAAAASUVORK5CYII=;" vertex="1" parent="1">
          <mxGeometry x="323" y="462.5" width="50.77" height="50" as="geometry" />
        </mxCell>
      </root>
    </mxGraphModel>
  </diagram>
</mxfile>
